<svg width="48" height="48" viewBox="0 0 48 48" fill="none" xmlns="http://www.w3.org/2000/svg">
<path d="M0 31.4324C0.282454 30.5563 0.513029 29.6628 0.864656 28.8154C1.44109 27.4435 2.35186 26.2215 2.58244 24.7054C2.74384 23.6448 2.6055 22.6302 2.16164 21.6618C1.74661 20.7568 1.30275 19.8633 0.841599 18.9872C-0.864656 15.7649 0.760897 11.9546 4.26564 10.9286C5.23982 10.6461 6.21399 10.3348 7.14782 9.94286C8.63503 9.32031 9.68415 8.23084 10.2145 6.68599C10.5373 5.74639 10.8486 4.80104 11.1598 3.85568C12.2608 0.518107 16.0134 -0.946044 19.155 0.662217C20.4578 1.33088 21.8124 1.92461 23.1958 2.37424C24.2219 2.70857 25.3056 2.4607 26.2971 2.01108C27.1848 1.60757 28.0552 1.16948 28.9141 0.71986C32.2171 -1.02674 35.9524 0.523871 37.0361 4.08625C37.3186 5.01432 37.6125 5.94815 37.9757 6.84739C38.5867 8.36918 39.6589 9.45289 41.2153 10.0236C42.1491 10.3637 43.1002 10.6692 44.0456 10.9747C47.4408 12.0757 48.9684 15.8225 47.314 18.9699C46.8528 19.8518 46.4032 20.7395 45.9939 21.6503C45.3137 23.1548 45.3253 24.6824 45.9997 26.1811C46.4147 27.1092 46.8874 28.0142 47.3601 28.9134C48.9856 32.0089 47.3832 35.8191 44.0341 36.8337C43.0599 37.1276 42.0915 37.4505 41.1461 37.8194C39.5667 38.4362 38.4772 39.5602 37.9123 41.1627C37.578 42.1196 37.284 43.0938 36.9496 44.0564C35.8198 47.3191 32.0787 48.7717 29.0179 47.1577C28.1936 46.7253 27.3577 46.3161 26.5161 45.9183C24.8675 45.1344 23.2131 45.1459 21.5645 45.9356C20.5327 46.4314 19.5297 47.0135 18.4691 47.4286C15.3621 48.6449 12.0475 46.9617 11.0964 43.7624C10.8082 42.7883 10.4969 41.8141 10.1107 40.8803C9.50545 39.4103 8.43904 38.3612 6.94031 37.8021C5.96613 37.4389 4.97465 37.1276 3.98895 36.8164C1.72355 36.1016 0.149874 33.9284 0.155638 31.4959C0.109523 31.4728 0.0576437 31.4497 0 31.4324ZM24.1181 43.1168C25.0981 43.3589 26.1126 43.5146 27.0522 43.872C28.159 44.2928 29.1966 44.9038 30.2687 45.4053C32.0845 46.2584 34.2346 45.3822 34.909 43.5088C35.2203 42.6557 35.5085 41.791 35.7795 40.9264C36.5288 38.5514 38.016 36.8394 40.3218 35.8998C41.3997 35.456 42.5238 35.1332 43.6248 34.7412C45.5558 34.0552 46.4493 31.9339 45.5789 30.0836C45.1812 29.242 44.7488 28.4177 44.3338 27.5818C43.1118 25.1262 43.1118 22.6706 44.3396 20.215C44.7661 19.3618 45.2042 18.5202 45.602 17.6556C46.4205 15.8859 45.5558 13.7877 43.7343 13.1133C42.8812 12.7962 42.0223 12.5022 41.1576 12.2256C38.8115 11.4877 37.0822 10.0466 36.1196 7.77545C35.6411 6.64564 35.3183 5.44665 34.8975 4.28801C34.2289 2.43764 32.096 1.54417 30.3091 2.37424C29.4848 2.75468 28.672 3.16396 27.865 3.57899C25.663 4.7261 23.3976 4.9048 21.0976 3.94791C19.9793 3.481 18.9244 2.8815 17.8292 2.36847C16.0768 1.54993 13.9555 2.42035 13.2754 4.23613C12.9353 5.1469 12.6355 6.07496 12.33 6.99726C11.5864 9.23384 10.1799 10.894 8.00095 11.822C6.84808 12.312 5.63756 12.6521 4.46163 13.0844C2.56515 13.7819 1.70625 15.8802 2.56515 17.719C2.96289 18.5606 3.38945 19.3849 3.80449 20.2207C5.02653 22.6764 5.02653 25.132 3.80449 27.5876C3.37216 28.458 2.91677 29.3227 2.51327 30.2046C1.72931 31.9167 2.64008 34.0725 4.39822 34.7066C5.2744 35.0237 6.15635 35.3176 7.04406 35.6001C9.36711 36.3322 11.0734 37.7733 12.0187 40.0214C12.5029 41.1742 12.8373 42.3905 13.2754 43.5607C13.9555 45.388 16.048 46.2354 17.8234 45.4111C18.6708 45.0191 19.5009 44.604 20.3309 44.1832C21.5184 43.5953 22.7577 43.2552 24.1181 43.1168Z" fill="white"/>
<path d="M18.9706 34.28C18.0137 34.2743 17.5295 33.6056 17.7543 32.9196C17.8292 32.6948 17.9618 32.4931 18.0771 32.2855C21.5069 26.3482 24.9367 20.4109 28.3665 14.4679C28.4184 14.3756 28.476 14.2776 28.5279 14.1854C28.9372 13.5225 29.4905 13.3265 30.0439 13.6609C30.5858 13.9894 30.6953 14.5774 30.3091 15.2518C26.787 21.3621 23.265 27.4723 19.7199 33.5652C19.5239 33.9053 19.1377 34.1301 18.9706 34.28Z" fill="white"/>
<path d="M23.3457 17.2695C23.3457 19.6156 21.6049 21.3218 19.2011 21.3276C16.7859 21.3333 15.0104 19.5983 15.022 17.2349C15.0335 14.9003 16.7916 13.2056 19.2011 13.2171C21.6164 13.2344 23.3457 14.9234 23.3457 17.2695ZM19.1781 15.3038C17.9042 15.3096 17.0971 16.0878 17.1087 17.2983C17.1202 18.4684 17.933 19.2351 19.1723 19.2466C20.4405 19.2582 21.2705 18.4742 21.2705 17.2752C21.2705 16.0647 20.452 15.298 19.1781 15.3038Z" fill="white"/>
<path d="M33.1163 30.562C33.1106 32.9138 31.3755 34.6028 28.966 34.597C26.5738 34.597 24.8041 32.885 24.7983 30.5562C24.7926 28.1928 26.568 26.475 29.0006 26.4923C31.4158 26.5154 33.1221 28.1986 33.1163 30.562ZM28.9429 28.5848C27.6748 28.5963 26.8562 29.3918 26.8793 30.585C26.9023 31.7494 27.7266 32.5161 28.9545 32.5161C30.2226 32.5219 31.0354 31.7437 31.0354 30.5331C31.0354 29.3226 30.2341 28.5733 28.9429 28.5848Z" fill="white"/>
</svg>
