<svg width="74" height="74" viewBox="0 0 74 74" fill="none" xmlns="http://www.w3.org/2000/svg">
<path d="M36.8635 73.727C57.2227 73.727 73.727 57.2227 73.727 36.8635C73.727 16.5044 57.2227 0 36.8635 0C16.5044 0 0 16.5044 0 36.8635C0 57.2227 16.5044 73.727 36.8635 73.727Z" fill="url(#paint0_linear_72_9)"/>
<path d="M56.558 31.5613C56.558 26.764 52.5182 22.7241 47.7209 22.7241H24.9968C20.1995 22.7241 16.1597 26.764 16.1597 31.5613V42.1658C16.1597 46.9632 20.1995 51.003 24.9968 51.003H47.7209C52.5182 51.003 56.558 46.9632 56.558 42.1658V31.5613ZM43.4286 37.621L33.329 42.6708C32.824 42.9233 31.5615 42.6708 31.5615 42.1658V31.8138C31.5615 31.3088 32.824 31.0563 33.329 31.3088L43.1761 36.6111C43.4286 36.8636 43.6811 37.3685 43.4286 37.621Z" fill="white"/>
<defs>
<linearGradient id="paint0_linear_72_9" x1="62.9884" y1="10.7795" x2="10.779" y2="62.9889" gradientUnits="userSpaceOnUse">
<stop stop-color="#FF0000"/>
<stop offset="1" stop-color="#850000"/>
</linearGradient>
</defs>
</svg>
