<svg width="80" height="74" viewBox="0 0 80 74" fill="none" xmlns="http://www.w3.org/2000/svg">
<path d="M60.7769 59.4962C60.7769 59.7586 60.7769 59.9461 60.7769 60.1335C60.7269 64.3952 60.6769 68.6694 60.6519 72.9311C60.6519 73.481 60.352 73.6935 59.9521 73.8809C59.5021 74.0934 59.0397 74.0184 58.7273 73.681C57.9649 72.8811 57.1901 72.0813 56.4527 71.2689C52.9409 67.4322 49.4416 63.5954 45.9547 59.7461C45.7423 59.5212 45.5423 59.4212 45.2299 59.4212C37.1314 59.4337 29.0454 59.4337 20.947 59.4212C17.1477 59.4212 13.3359 59.3962 9.53665 59.3587C8.49935 59.3462 7.46204 59.2712 6.42474 59.1962C5.24997 59.1087 4.25016 58.5464 3.37532 57.8215C2.71295 57.2716 2.11306 56.6467 1.55067 55.9968C0.600849 54.872 0.163432 53.5473 0.138437 52.0726C0.100944 49.5856 -0.0115337 47.0985 0.000963958 44.624C0.0134616 32.5388 0.0384557 20.4536 0.0759486 8.35589C0.0759486 7.21861 0.100945 6.08132 0.625845 5.03152C1.72564 2.85693 3.37532 1.24474 5.67488 0.382403C6.01232 0.257427 6.38725 0.194938 6.73718 0.194938C13.2484 0.13245 19.7722 0.0574661 26.2835 0.0324708C32.7822 -0.00502203 39.2935 -0.00502356 45.7923 0.00747407C54.2781 0.0324693 62.764 0.119954 71.2499 0.094959C73.8369 0.0824613 75.7741 1.20725 77.3862 3.0569C78.1986 3.99422 78.811 5.06901 79.0734 6.29378C79.1984 6.89367 79.2109 7.53104 79.2109 8.14343C79.2234 22.1658 79.2234 36.1756 79.2109 50.1979C79.2109 51.3227 79.1734 52.485 78.936 53.5848C78.561 55.2845 77.4862 56.5967 76.1365 57.6715C74.6993 58.8088 73.0871 59.3587 71.2374 59.3587C67.9006 59.3462 64.5762 59.4337 61.2393 59.4837C61.1018 59.4962 60.9769 59.4962 60.7769 59.4962ZM43.2302 56.7092C42.9553 56.3843 42.7428 56.1593 42.5429 55.9218C41.2431 54.3721 39.9309 52.8349 38.6311 51.2727C38.2062 50.7603 38.1687 50.2854 38.4562 49.823C38.7436 49.3481 39.2935 49.1356 39.8934 49.2106C40.4683 49.2856 40.7182 49.7355 41.0432 50.0979C45.2174 54.8096 49.3666 59.5337 53.5533 64.2203C54.8405 65.6575 56.1903 67.0447 57.515 68.4445C57.6525 68.5819 57.8275 68.6819 58.0649 68.8569C58.0774 68.5819 58.1024 68.432 58.1024 68.2945C58.1274 66.3449 58.1524 64.4077 58.1774 62.4581C58.2024 60.9584 58.2274 59.4587 58.2524 57.959C58.2649 57.3091 58.4773 57.0591 59.1147 56.9467C59.4272 56.8967 59.7521 56.8592 60.077 56.8467C61.9017 56.8092 63.7138 56.7967 65.5385 56.7717C67.6506 56.7467 69.7752 56.7217 71.8873 56.7092C73.462 56.6967 74.6368 55.9218 75.5616 54.7346C76.224 53.8972 76.5989 52.9849 76.5989 51.8476C76.5864 40.3373 76.6114 28.8395 76.6239 17.3292C76.6239 14.0173 76.5864 10.7179 76.5239 7.40607C76.4739 4.69408 74.1744 2.78195 71.9623 2.78195C71.2624 2.78195 70.5625 2.71946 69.8627 2.71946C65.8884 2.69446 61.9017 2.65697 57.9274 2.65697C45.4923 2.65697 33.0447 2.65697 20.6095 2.66947C16.1354 2.68197 11.6487 2.76945 7.1746 2.79445C5.0875 2.80694 2.90041 4.69408 2.72544 7.13112C2.67545 7.81849 2.65046 8.50586 2.65046 9.19323C2.65046 23.6905 2.66296 38.1752 2.67545 52.6725C2.67545 52.8099 2.67545 52.9474 2.72544 53.0724C3.17536 54.0972 3.73775 55.047 4.65008 55.7219C5.53741 56.3843 6.49973 56.7967 7.66201 56.7842C18.46 56.7467 29.2454 56.7217 40.0434 56.7092C41.0807 56.7092 42.1055 56.7092 43.2302 56.7092Z" fill="#4B79C9"/>
<path d="M35.6567 19.8158H15.8355C15.1106 19.8158 14.5357 19.2284 14.5357 18.5161C14.5357 17.7912 15.1231 17.2163 15.8355 17.2163H35.6692C36.394 17.2163 36.9689 17.8037 36.9689 18.5161C36.9689 19.2284 36.3816 19.8158 35.6567 19.8158Z" fill="#4B79C9"/>
<path d="M60.7394 30.4269H15.8855C15.1481 30.4269 14.5482 29.827 14.5482 29.0897C14.5482 28.3523 15.1481 27.7524 15.8855 27.7524H60.7394C61.4768 27.7524 62.0767 28.3523 62.0767 29.0897C62.0767 29.827 61.4768 30.4269 60.7394 30.4269Z" fill="#4B79C9"/>
<path d="M60.7269 40.9997H15.873C15.1356 40.9997 14.5357 40.3998 14.5357 39.6624C14.5357 38.9251 15.1356 38.3252 15.873 38.3252H60.7269C61.4643 38.3252 62.0642 38.9251 62.0642 39.6624C62.0642 40.3998 61.4643 40.9997 60.7269 40.9997Z" fill="#4B79C9"/>
</svg>
