<svg width="96" height="105" viewBox="0 0 96 105" fill="none" xmlns="http://www.w3.org/2000/svg">
<g filter="url(#filter0_d_159_273)">
<path d="M10 66.8241V30.4124C10 28.2135 11.1822 26.2038 13.0737 25.0925L44.8512 6.81572C46.7427 5.72809 49.0834 5.72809 50.9986 6.81572L82.5869 25.0925C84.4784 26.2038 85.6606 28.2371 85.637 30.4124L85.4951 66.8241C85.4951 69.0229 84.3129 71.0327 82.3978 72.1203L50.7622 90.1843C48.8706 91.2719 46.5535 91.2719 44.6857 90.1843L13.0737 72.1203C11.1822 71.0563 10 69.0229 10 66.8241Z" fill="white"/>
<path d="M13.3811 64.8376V31.6888C13.3811 29.7027 14.4451 27.8348 16.1711 26.8418L45.1113 10.1964C46.8373 9.2034 48.9652 9.2034 50.7149 10.1964L79.4896 26.8418C81.2156 27.8348 82.2796 29.7027 82.2796 31.6888L82.1377 64.8613C82.1377 66.8473 81.0501 68.6916 79.3241 69.6846L50.5257 86.1408C48.7997 87.1102 46.6954 87.1102 44.9931 86.1408L16.1947 69.6846C14.4451 68.6916 13.3811 66.8473 13.3811 64.8376Z" fill="#F4F6F8"/>
</g>
<g clip-path="url(#clip0_159_273)">
<path d="M54.9724 54.3594H41.0697L35.1164 64.4069C35.8326 64.7587 36.6459 64.9843 37.1719 64.9843C42.6409 64.9843 53.8022 64.9061 59.3428 64.9061C59.9125 64.9061 60.4458 64.7185 60.9241 64.4245L54.9724 54.3594Z" fill="#4185F3"/>
<path d="M35.1164 64.4074L41.0697 54.3599H29.0061C29 55.0581 29.257 55.6969 29.6596 56.4257C30.7812 58.4531 32.6789 61.6942 33.7937 63.387C34.0684 63.8041 35.1593 64.4285 35.1164 64.4074Z" fill="#1767D1"/>
<path d="M54.9724 54.3592L60.9261 64.4227C61.6977 63.9489 62.3265 63.1982 62.7348 62.507C63.6565 60.9483 65.2152 58.3528 66.2903 56.5954C66.79 55.7783 66.9842 55.0445 66.9721 54.3584L54.9724 54.3592Z" fill="#E94235"/>
<path d="M41.0709 54.3602L48.0152 42.6957L41.8089 32.6982C41.1377 33.1248 40.5635 33.7038 40.3029 34.1448C37.5939 38.7353 32.1367 48.1436 29.3925 52.7936C29.1113 53.2694 28.9766 53.813 29.0044 54.3602H41.0709Z" fill="#30A753"/>
<path d="M54.972 54.3601L48.0152 42.6956L54.0511 32.7095C54.7223 33.1364 55.4592 33.7037 55.7198 34.1451C58.4288 38.7352 63.886 48.1435 66.6314 52.7935C66.9146 53.2717 67 53.8128 66.9725 54.3601H54.972Z" fill="#F9BC00"/>
<path d="M41.8082 32.7L48.0152 42.6959L54.0511 32.7098C53.4279 32.3579 52.5454 32.1495 51.6908 32.1234C49.3132 32.0467 45.4587 32.0158 43.3842 32.103C42.8727 32.1245 41.8146 32.6957 41.8082 32.7Z" fill="#0F8038"/>
</g>
<defs>
<filter id="filter0_d_159_273" x="0" y="0" width="95.6373" height="105" filterUnits="userSpaceOnUse" color-interpolation-filters="sRGB">
<feFlood flood-opacity="0" result="BackgroundImageFix"/>
<feColorMatrix in="SourceAlpha" type="matrix" values="0 0 0 0 0 0 0 0 0 0 0 0 0 0 0 0 0 0 127 0" result="hardAlpha"/>
<feOffset dy="4"/>
<feGaussianBlur stdDeviation="5"/>
<feComposite in2="hardAlpha" operator="out"/>
<feColorMatrix type="matrix" values="0 0 0 0 0 0 0 0 0 0 0 0 0 0 0 0 0 0 0.15 0"/>
<feBlend mode="normal" in2="BackgroundImageFix" result="effect1_dropShadow_159_273"/>
<feBlend mode="normal" in="SourceGraphic" in2="effect1_dropShadow_159_273" result="shape"/>
</filter>
<clipPath id="clip0_159_273">
<rect width="38" height="33" fill="white" transform="translate(29 32)"/>
</clipPath>
</defs>
</svg>
