<svg width="45" height="45" viewBox="0 0 45 45" fill="none" xmlns="http://www.w3.org/2000/svg">
<path d="M0 29.4679C0.264801 28.6465 0.480965 27.8089 0.810615 27.0145C1.35103 25.7283 2.20487 24.5826 2.42104 23.1613C2.57235 22.167 2.44265 21.2159 2.02654 20.308C1.63744 19.4595 1.22133 18.6219 0.788999 17.8005C-0.810615 14.7796 0.713341 11.2075 3.99903 10.2455C4.91233 9.98073 5.82562 9.68891 6.70108 9.32143C8.09534 8.73779 9.07889 7.71641 9.57607 6.26811C9.8787 5.38724 10.1705 4.50097 10.4623 3.6147C11.4945 0.485725 15.0126 -0.886916 17.9578 0.620828C19.1792 1.2477 20.4491 1.80433 21.7461 2.22585C22.708 2.53928 23.724 2.30691 24.6535 1.88539C25.4857 1.5071 26.3018 1.09639 27.107 0.674869C30.2035 -0.962573 33.7054 0.491129 34.7213 3.83086C34.9861 4.70092 35.2618 5.57639 35.6022 6.41943C36.175 7.84611 37.1802 8.86208 38.6393 9.39709C39.5148 9.71593 40.4065 10.0023 41.2927 10.2888C44.4757 11.3209 45.9078 14.8336 44.3569 17.7843C43.9245 18.6111 43.503 19.4433 43.1193 20.2972C42.4816 21.7076 42.4924 23.1397 43.1247 24.5448C43.5138 25.4148 43.957 26.2633 44.4001 27.1063C45.924 30.0083 44.4217 33.5804 41.2819 34.5316C40.3686 34.8072 39.4607 35.1098 38.5745 35.4557C37.0937 36.0339 36.0724 37.0877 35.5428 38.59C35.2293 39.4871 34.9537 40.4004 34.6403 41.3029C33.5811 44.3616 30.0738 45.7234 27.2042 44.2103C26.4315 43.805 25.6479 43.4213 24.8589 43.0484C23.3133 42.3135 21.7623 42.3243 20.2167 43.0646C19.2494 43.5294 18.3091 44.0752 17.3147 44.4643C14.4019 45.6046 11.2946 44.0266 10.4029 41.0273C10.1327 40.114 9.84087 39.2007 9.47879 38.3252C8.91136 36.9472 7.9116 35.9636 6.50654 35.4394C5.59324 35.099 4.66374 34.8072 3.73964 34.5153C1.61583 33.8452 0.140506 31.8079 0.145911 29.5274C0.102678 29.5057 0.054041 29.4841 0 29.4679ZM22.6108 40.422C23.5295 40.649 24.4806 40.7949 25.3614 41.13C26.399 41.5245 27.3718 42.0973 28.3769 42.5675C30.0792 43.3673 32.095 42.5458 32.7272 40.7895C33.0191 39.9897 33.2893 39.1791 33.5433 38.3685C34.2458 36.142 35.64 34.537 37.8017 33.6561C38.8122 33.24 39.866 32.9374 40.8982 32.5699C42.7086 31.9268 43.5462 29.9381 42.7302 28.2034C42.3573 27.4144 41.952 26.6416 41.5629 25.858C40.4173 23.5558 40.4173 21.2537 41.5683 18.9515C41.9682 18.1517 42.379 17.3627 42.7518 16.5521C43.5192 14.8931 42.7086 12.926 41.0009 12.2937C40.2011 11.9965 39.3959 11.7209 38.5853 11.4615C36.3858 10.7697 34.7646 9.4187 33.8621 7.28949C33.4136 6.23028 33.1109 5.10623 32.7164 4.02001C32.0896 2.28529 30.09 1.44766 28.4148 2.22585C27.642 2.58252 26.88 2.96621 26.1234 3.3553C24.0591 4.43072 21.9352 4.59825 19.779 3.70117C18.7306 3.26343 17.7417 2.70141 16.7149 2.22044C15.072 1.45306 13.0833 2.26908 12.4456 3.97137C12.1268 4.82522 11.8458 5.69528 11.5594 6.55993C10.8622 8.65672 9.54364 10.2131 7.50089 11.0832C6.42007 11.5425 5.28521 11.8614 4.18277 12.2667C2.40482 12.9206 1.59961 14.8877 2.40482 16.6116C2.77771 17.4006 3.17761 18.1733 3.56671 18.9569C4.71238 21.2591 4.71238 23.5612 3.56671 25.8634C3.1614 26.6794 2.73448 27.49 2.35619 28.3168C1.62123 29.9219 2.47508 31.943 4.12333 32.5374C4.94475 32.8347 5.77158 33.1103 6.60381 33.3751C8.78166 34.0614 10.3813 35.4124 11.2675 37.52C11.7215 38.6008 12.0349 39.7411 12.4456 40.8381C13.0833 42.5512 15.045 43.3456 16.7095 42.5729C17.5039 42.2054 18.2821 41.8163 19.0603 41.4218C20.1735 40.8706 21.3354 40.5517 22.6108 40.422Z" fill="white"/>
<path d="M17.7849 32.1376C16.8879 32.1322 16.4339 31.5053 16.6447 30.8622C16.7149 30.6514 16.8392 30.4623 16.9473 30.2677C20.1627 24.7015 23.3782 19.1353 26.5936 13.5637C26.6423 13.4772 26.6963 13.3853 26.7449 13.2989C27.1286 12.6774 27.6474 12.4937 28.1662 12.8071C28.6742 13.1151 28.7769 13.6664 28.4148 14.2986C25.1129 20.027 21.811 25.7553 18.4875 31.4675C18.3037 31.7863 17.9417 31.9971 17.7849 32.1376Z" fill="white"/>
<path d="M21.8866 16.19C21.8866 18.3895 20.2545 19.9891 18.001 19.9945C15.7367 19.9999 14.0723 18.3733 14.0831 16.1576C14.0939 13.9689 15.7421 12.3801 18.001 12.3909C20.2654 12.4071 21.8866 13.9905 21.8866 16.19ZM17.9794 14.3472C16.7851 14.3526 16.0285 15.0822 16.0393 16.217C16.0502 17.3141 16.8121 18.0328 17.974 18.0436C19.1629 18.0544 19.9411 17.3195 19.9411 16.1954C19.9411 15.0606 19.1737 14.3418 17.9794 14.3472Z" fill="white"/>
<path d="M31.0465 28.6518C31.0411 30.8567 29.4145 32.4401 27.1556 32.4347C24.9129 32.4347 23.2538 30.8297 23.2484 28.6464C23.243 26.4308 24.9075 24.8203 27.188 24.8365C29.4523 24.8582 31.0519 26.4362 31.0465 28.6518ZM27.134 26.7982C25.9451 26.809 25.1777 27.5548 25.1993 28.6735C25.2209 29.7651 25.9937 30.4838 27.1448 30.4838C28.3337 30.4892 29.0957 29.7597 29.0957 28.6248C29.0957 27.49 28.3445 26.7874 27.134 26.7982Z" fill="white"/>
</svg>
