<svg width="75" height="76" viewBox="0 0 75 76" fill="none" xmlns="http://www.w3.org/2000/svg">
<path d="M74.9611 37.9559C74.9611 17.1619 58.2746 0.475342 37.4806 0.475342C16.6866 0.475342 0 17.1619 0 37.9559C0 56.6962 13.606 72.0992 31.5761 74.923V48.738H22.0776V37.9559H31.5761V29.741C31.5761 20.2425 37.2238 15.1082 45.6955 15.1082C49.8029 15.1082 54.1671 15.8783 54.1671 15.8783V25.1201H49.2895C44.6686 25.1201 43.1283 27.944 43.1283 31.0246V37.9559H53.6537L51.8567 48.738H43.1283V74.923C61.0984 72.3559 74.9611 56.6962 74.9611 37.9559Z" fill="url(#paint0_linear_72_4)"/>
<path d="M51.8563 48.7382L53.3966 37.9561H42.8713V31.0248C42.8713 27.9442 44.4116 25.1203 49.0325 25.1203H53.6534V15.8785C53.6534 15.8785 49.2892 15.1084 45.1817 15.1084C36.7101 15.1084 31.0623 20.2427 31.0623 29.7412V37.9561H21.5638V48.7382H31.0623V74.9232C32.8594 75.18 34.9131 75.4367 36.9668 75.4367C39.0205 75.4367 40.8176 75.18 42.8713 74.9232V48.7382H51.8563Z" fill="white"/>
<defs>
<linearGradient id="paint0_linear_72_4" x1="10.7816" y1="11.4256" x2="63.8643" y2="64.5086" gradientUnits="userSpaceOnUse">
<stop stop-color="#4676ED"/>
<stop offset="0.1854" stop-color="#436DE4"/>
<stop offset="0.487" stop-color="#3C55CD"/>
<stop offset="0.8651" stop-color="#302EA8"/>
<stop offset="1" stop-color="#2B1E99"/>
</linearGradient>
</defs>
</svg>
