<svg width="40" height="42" viewBox="0 0 40 42" fill="none" xmlns="http://www.w3.org/2000/svg">
<path d="M8.66655 0C9.96451 0 11.2625 0 12.5537 0C13.4392 0.263647 14.0139 0.78418 14.0139 1.77793C14.0139 2.10242 14.0139 2.42691 14.0139 2.75139C14.0139 3.32601 14.0139 3.90062 14.0139 4.47524C18.0429 4.47524 22.0112 4.47524 26.0064 4.47524C26.0064 4.13723 26.0064 3.82626 26.0064 3.51529C26.0064 2.94744 26.0132 2.37958 26.0064 1.81849C25.9929 0.811221 26.5608 0.270407 27.4666 0C28.7646 0 30.0625 0 31.3537 0C31.4348 0.0338009 31.5227 0.074362 31.6039 0.101403C32.5638 0.405611 32.9897 0.973466 32.9964 1.97397C32.9964 2.62295 32.9964 3.27193 32.9964 3.92091C32.9964 4.10343 32.9964 4.28596 32.9964 4.50228C34.0984 4.50228 35.1394 4.47524 36.1737 4.5158C36.6672 4.53608 37.1742 4.60368 37.6339 4.76593C39.1212 5.30674 40 6.66554 40 8.3353C40 17.9077 40 27.4801 40 37.0526C40 37.35 39.973 37.6475 39.9324 37.9381C39.7026 39.7296 38.3776 41.156 36.6672 41.4467C36.4577 41.4805 36.2346 41.4805 36.025 41.4805C25.3439 41.4805 14.6628 41.4805 3.98175 41.4872C2.97448 41.4872 2.09566 41.1763 1.37232 40.48C0.37857 39.52 0 38.3235 0 36.9647C0.00676018 27.4193 0 17.8739 0 8.32854C0 6.11796 1.57512 4.52256 3.79246 4.50228C4.71185 4.49552 5.63123 4.50228 6.54386 4.50228C6.68582 4.50228 6.82779 4.48876 7.01031 4.482C7.01031 3.59642 7.00355 2.74463 7.01031 1.89961C7.01707 1.01403 7.41592 0.459692 8.24742 0.162244C8.39615 0.108162 8.53135 0.0540815 8.66655 0ZM2.02129 16.0081C2.02129 16.1906 2.02129 16.3461 2.02129 16.5016C2.02129 23.3226 2.02129 30.1369 2.02129 36.9579C2.02129 37.1202 2.01453 37.2824 2.02805 37.4447C2.10918 38.6818 2.89336 39.4727 4.04259 39.4727C14.6966 39.4727 25.3507 39.4727 36.0047 39.4795C36.8768 39.4795 37.4582 39.0806 37.7556 38.3099C37.9111 37.9179 37.9922 37.4717 37.9922 37.0526C38.0057 30.1775 37.999 23.3091 37.999 16.434C37.999 16.292 37.9855 16.1501 37.9787 16.0014C25.9794 16.0081 14.0206 16.0081 2.02129 16.0081ZM33.0032 6.49654C33.0032 6.78046 33.0032 7.02383 33.0032 7.26044C33.0032 8.67331 32.192 9.48454 30.7656 9.4913C29.8192 9.49806 28.8727 9.49806 27.9331 9.4913C26.7838 9.48454 26.0199 8.70711 26.0132 7.55112C26.0132 7.20635 26.0132 6.86159 26.0132 6.52358C21.9841 6.52358 18.0226 6.52358 14.0206 6.52358C14.0206 6.93595 14.0341 7.32128 14.0206 7.71337C13.9868 8.66655 13.2432 9.46425 12.3103 9.4913C11.2016 9.51834 10.093 9.5251 8.99104 9.4913C7.84181 9.45749 7.04411 8.58543 7.03735 7.44296C7.03735 7.13875 7.03735 6.83454 7.03735 6.51005C5.84756 6.51005 4.72537 6.48301 3.60994 6.51682C2.69055 6.55062 2.03482 7.30776 2.03482 8.24742C2.03482 10.0321 2.03482 11.81 2.03482 13.5947C2.03482 13.7232 2.04833 13.8516 2.05509 13.9868C14.0544 13.9868 26.0199 13.9868 37.9922 13.9868C37.999 13.9057 38.0125 13.8516 38.0125 13.8043C38.0125 11.9114 38.026 10.0253 38.0125 8.1325C38.0057 7.28072 37.3162 6.55062 36.4509 6.51682C35.3152 6.46273 34.1998 6.49654 33.0032 6.49654ZM27.9263 7.47C28.9674 7.47 29.9679 7.47 30.9887 7.47C30.9887 5.64475 30.9887 3.83978 30.9887 2.02805C29.9611 2.02805 28.9539 2.02805 27.9263 2.02805C27.9263 3.84654 27.9263 5.63799 27.9263 7.47ZM11.979 7.47676C11.979 5.63799 11.979 3.83978 11.979 2.03481C11.0326 2.03481 10.1132 2.03481 9.18033 2.03481C9.18033 3.86006 9.18033 5.65827 9.18033 7.47676C10.12 7.47676 11.0326 7.47676 11.979 7.47676Z" fill="white"/>
<path d="M13.5542 34.7068C13.7705 33.4967 13.9192 32.2258 14.2437 31.0022C14.5073 30.0085 14.3181 29.3324 13.5001 28.6767C12.5942 27.9601 11.8168 27.0813 10.9718 26.2903C10.6202 25.9591 10.4242 25.5738 10.5797 25.1006C10.7284 24.6341 11.1273 24.4719 11.5869 24.4043C13.0404 24.1879 14.4938 23.9581 15.9473 23.762C16.2785 23.7215 16.434 23.5795 16.5692 23.2956C17.2047 21.9706 17.8739 20.6591 18.5161 19.3409C18.7257 18.9082 19.0096 18.5837 19.5166 18.5837C20.0237 18.5837 20.3076 18.9015 20.5171 19.3409C21.1729 20.6997 21.8557 22.045 22.5182 23.4037C22.6263 23.6268 22.7615 23.7147 23.0049 23.7485C24.4989 23.9581 25.9929 24.1879 27.4869 24.411C27.9398 24.4786 28.3252 24.6544 28.4671 25.1344C28.6091 25.6076 28.3995 25.9659 28.0683 26.2903C26.9934 27.3179 25.9321 28.3522 24.8504 29.3662C24.6341 29.569 24.5868 29.7516 24.6341 30.0355C24.9045 31.4687 25.1749 32.895 25.4048 34.335C25.4588 34.6595 25.425 35.0515 25.2831 35.3355C25.033 35.829 24.4583 35.9101 23.8634 35.6059C22.5587 34.9299 21.2472 34.2606 19.9628 33.5575C19.6316 33.375 19.3882 33.4088 19.0772 33.5711C17.759 34.2741 16.434 34.9704 15.0955 35.6532C14.3181 36.0385 13.5068 35.545 13.5542 34.7068ZM19.5099 21.8421C18.9555 22.9508 18.435 23.9716 17.928 24.9992C17.7658 25.3304 17.5291 25.54 17.1641 25.5941C16.7517 25.6549 16.3326 25.709 15.9202 25.7698C15.1901 25.8712 14.4668 25.9794 13.642 26.1011C13.8043 26.2498 13.9057 26.3377 14.0003 26.4323C14.7034 27.1083 15.3997 27.7843 16.1028 28.4536C16.407 28.7443 16.5624 29.0823 16.4881 29.5082C16.4002 30.0287 16.3056 30.5425 16.2177 31.063C16.1163 31.6782 16.0149 32.2934 15.8999 32.9897C16.9275 32.4354 17.8672 31.9419 18.7933 31.4281C19.2598 31.1712 19.6992 31.1577 20.1724 31.4213C21.0242 31.8945 21.8759 32.3475 22.7345 32.8072C22.8291 32.8612 22.9373 32.895 23.0793 32.9559C22.9305 32.0635 22.8021 31.2253 22.6534 30.3938C22.3492 28.7578 22.4168 28.9471 23.4984 27.8722C24.0798 27.2976 24.6071 26.6689 25.1344 26.0875C25.0938 26.0808 24.9383 26.047 24.7828 26.0267C23.8905 25.8983 22.9981 25.7428 22.099 25.6549C21.5312 25.6008 21.2067 25.3304 20.9701 24.8234C20.5307 23.8364 20.0304 22.8832 19.5099 21.8421Z" fill="white"/>
</svg>
