<svg width="96" height="105" viewBox="0 0 96 105" fill="none" xmlns="http://www.w3.org/2000/svg">
<g filter="url(#filter0_d_159_275)">
<path d="M10 66.8241V30.4124C10 28.2135 11.1822 26.2038 13.0737 25.0925L44.8512 6.81572C46.7427 5.72809 49.0834 5.72809 50.9986 6.81572L82.5869 25.0925C84.4784 26.2038 85.6606 28.2371 85.637 30.4124L85.4951 66.8241C85.4951 69.0229 84.3129 71.0327 82.3978 72.1203L50.7622 90.1843C48.8706 91.2719 46.5535 91.2719 44.6857 90.1843L13.0737 72.1203C11.1822 71.0563 10 69.0229 10 66.8241Z" fill="white"/>
<path d="M13.3811 64.8376V31.6888C13.3811 29.7027 14.445 27.8348 16.1711 26.8418L45.1112 10.1964C46.8373 9.2034 48.9652 9.2034 50.7149 10.1964L79.4895 26.8418C81.2156 27.8348 82.2795 29.7027 82.2795 31.6888L82.1377 64.8613C82.1377 66.8473 81.0501 68.6916 79.324 69.6846L50.5257 86.1408C48.7997 87.1102 46.6954 87.1102 44.993 86.1408L16.1947 69.6846C14.445 68.6916 13.3811 66.8473 13.3811 64.8376Z" fill="#F4F6F8"/>
</g>
<path d="M46.6816 31.2513C46.9592 31.2513 47.098 31.39 47.3755 31.5288C45.7102 32.2227 44.0449 34.0268 43.2122 37.9125L40.1592 38.7451C41.1306 35.9696 43.0735 31.2513 46.6816 31.2513ZM48.2082 32.639C48.4857 33.4717 48.7633 34.4431 48.7633 35.9696C48.7633 36.1084 48.7633 36.1084 48.7633 36.2472L44.7388 37.3574C45.5714 34.4431 46.9592 33.1941 48.2082 32.639ZM51.8163 35.137L50.0122 35.6921C50.0122 35.5533 50.0122 35.4145 50.0122 35.2757C50.0122 34.0268 49.8735 33.0553 49.5959 32.2227C50.5673 32.5002 51.4 33.7492 51.8163 35.137ZM60.8367 37.3574C60.8367 37.2186 60.698 37.0798 60.5592 37.0798C60.2816 37.0798 57.3673 36.8023 57.3673 36.8023C57.3673 36.8023 55.2857 34.7206 55.0082 34.5819C54.7306 34.3043 54.3143 34.4431 54.1755 34.4431C54.1755 34.4431 53.7592 34.5819 53.0653 34.8594C52.3714 32.9166 51.1224 31.1125 49.0408 31.1125H48.902C48.3469 30.2798 47.5143 30.0023 46.8204 30.0023C41.8245 29.8635 39.4653 36.1084 38.6327 39.3002C37.5224 39.5778 36.4122 39.9941 35.1633 40.4104C34.0531 40.688 34.0531 40.8268 33.9143 41.7982C33.7755 42.4921 31 64.4186 31 64.4186L53.0653 68.5819L65 65.9451C65 65.9451 60.8367 37.6349 60.8367 37.3574Z" fill="#8DB849"/>
<path d="M60.4204 37.0801C60.2816 37.0801 57.3673 36.8025 57.3673 36.8025C57.3673 36.8025 55.2857 34.7209 55.0082 34.5821C54.8694 34.4434 54.8694 34.4434 54.7306 34.4434L53.0653 68.5821L65 65.9454C65 65.9454 60.8367 37.6352 60.8367 37.3576C60.8367 37.2189 60.5592 37.0801 60.4204 37.0801Z" fill="#5A863E"/>
<path d="M49.0408 43.7409L47.5143 48.1817C47.5143 48.1817 46.2653 47.4879 44.6 47.4879C42.2408 47.4879 42.1021 48.8756 42.1021 49.292C42.1021 51.2348 47.3755 52.0675 47.3755 56.7858C47.3755 60.5328 45.0163 62.892 41.8245 62.892C38.0776 62.892 36.1347 60.5328 36.1347 60.5328L37.1061 57.2022C37.1061 57.2022 39.049 58.8675 40.7143 58.8675C41.8245 58.8675 42.2408 58.0348 42.2408 57.3409C42.2408 54.7042 37.9388 54.5654 37.9388 50.2634C37.9388 46.6552 40.5755 43.1858 45.7102 43.1858C48.0694 43.0471 49.0408 43.7409 49.0408 43.7409Z" fill="#FFFFFE"/>
<defs>
<filter id="filter0_d_159_275" x="0" y="0" width="95.6373" height="105" filterUnits="userSpaceOnUse" color-interpolation-filters="sRGB">
<feFlood flood-opacity="0" result="BackgroundImageFix"/>
<feColorMatrix in="SourceAlpha" type="matrix" values="0 0 0 0 0 0 0 0 0 0 0 0 0 0 0 0 0 0 127 0" result="hardAlpha"/>
<feOffset dy="4"/>
<feGaussianBlur stdDeviation="5"/>
<feComposite in2="hardAlpha" operator="out"/>
<feColorMatrix type="matrix" values="0 0 0 0 0 0 0 0 0 0 0 0 0 0 0 0 0 0 0.15 0"/>
<feBlend mode="normal" in2="BackgroundImageFix" result="effect1_dropShadow_159_275"/>
<feBlend mode="normal" in="SourceGraphic" in2="effect1_dropShadow_159_275" result="shape"/>
</filter>
</defs>
</svg>
