<svg width="48" height="51" viewBox="0 0 48 51" fill="none" xmlns="http://www.w3.org/2000/svg">
<g clip-path="url(#clip0_71_214)">
<path d="M23.66 7.94354C22.8546 7.94354 22.2009 7.25474 22.2009 6.40604V2.39419C22.2009 1.54549 22.8546 0.856689 23.66 0.856689C24.4654 0.856689 25.119 1.54549 25.119 2.39419V6.40604C25.119 7.25474 24.4654 7.94354 23.66 7.94354Z" fill="white"/>
<path d="M36.4432 13.5236C36.0697 13.5236 35.6962 13.3739 35.4121 13.0726C34.8421 12.4719 34.8421 11.4982 35.4121 10.8975L38.1046 8.06035C38.6746 7.4597 39.5986 7.4597 40.1687 8.06035C40.7387 8.661 40.7387 9.63475 40.1687 10.2354L37.4762 13.0726C37.1902 13.3719 36.8167 13.5236 36.4432 13.5236Z" fill="white"/>
<path d="M45.5458 26.9942H41.7386C40.9332 26.9942 40.2795 26.3054 40.2795 25.4567C40.2795 24.608 40.9332 23.9192 41.7386 23.9192H45.5458C46.3512 23.9192 47.0048 24.608 47.0048 25.4567C47.0048 26.3054 46.3512 26.9942 45.5458 26.9942Z" fill="white"/>
<path d="M39.1356 43.3019C38.7621 43.3019 38.3886 43.1523 38.1046 42.8509L35.4121 40.0137C34.8421 39.4131 34.8421 38.4393 35.4121 37.8387C35.9821 37.238 36.9062 37.238 37.4762 37.8387L40.1687 40.6759C40.7387 41.2765 40.7387 42.2503 40.1687 42.8509C39.8827 43.1523 39.5092 43.3019 39.1356 43.3019Z" fill="white"/>
<path d="M8.18428 43.3019C7.81076 43.3019 7.43724 43.1523 7.15321 42.8509C6.58321 42.2503 6.58321 41.2765 7.15321 40.6759L9.84565 37.8387C10.4157 37.238 11.3397 37.238 11.9097 37.8387C12.4797 38.4393 12.4797 39.4131 11.9097 40.0137L9.21729 42.8509C8.93131 43.1523 8.55779 43.3019 8.18428 43.3019Z" fill="white"/>
<path d="M5.58128 26.9942H1.77412C0.96872 26.9942 0.315063 26.3054 0.315063 25.4567C0.315063 24.608 0.96872 23.9192 1.77412 23.9192H5.58128C6.38668 23.9192 7.04034 24.608 7.04034 25.4567C7.04034 26.3054 6.38668 26.9942 5.58128 26.9942Z" fill="white"/>
<path d="M10.8767 13.5236C10.5032 13.5236 10.1297 13.3739 9.84565 13.0726L7.15321 10.2354C6.58321 9.63475 6.58321 8.661 7.15321 8.06035C7.72321 7.4597 8.64728 7.4597 9.21729 8.06035L11.9097 10.8975C12.4797 11.4982 12.4797 12.4719 11.9097 13.0726C11.6218 13.3719 11.2502 13.5236 10.8767 13.5236Z" fill="white"/>
<path d="M29.4962 43.9067V46.4692C29.4962 48.4372 27.9593 50.0567 26.0917 50.0567H21.2282C19.5941 50.0567 17.8237 48.7447 17.8237 45.8747V43.9067H29.4962Z" fill="white"/>
<path d="M32.2391 14.3046C29.0487 11.5781 24.8466 10.5121 20.7418 11.4346C15.5865 12.5621 11.4038 16.9901 10.3339 22.4226C9.24443 27.9986 11.2287 33.5336 15.4697 36.9161C16.6175 37.8181 17.4151 39.212 17.6875 40.8315V40.852C17.7264 40.8315 17.7848 40.8315 17.8237 40.8315H29.4961C29.535 40.8315 29.5545 40.8315 29.5934 40.852V40.8315C29.8657 39.2736 30.7412 37.8386 32.0835 36.7316C35.3713 33.9846 37.2777 29.8846 37.2777 25.4566C37.2777 21.1106 35.4491 17.0516 32.2391 14.3046ZM22.9304 24.9441H24.3894C26.6694 24.9441 28.5234 26.8977 28.5234 29.3003C28.5234 31.4385 27.0507 33.2138 25.119 33.5787V36.2191C25.119 37.0678 24.4653 37.7565 23.6599 37.7565C22.8545 37.7565 22.2008 37.0678 22.2008 36.2191V33.6566H20.2554C19.45 33.6566 18.7964 32.9678 18.7964 32.1191C18.7964 31.2704 19.45 30.5816 20.2554 30.5816H24.3894C25.0606 30.5816 25.6053 30.0076 25.6053 29.3003C25.6053 28.5931 25.0606 28.0191 24.3894 28.0191H22.9304C20.6504 28.0191 18.7964 26.0654 18.7964 23.6628C18.7964 21.5247 20.2691 19.7494 22.2008 19.3845V16.7441C22.2008 15.8954 22.8545 15.2066 23.6599 15.2066C24.4653 15.2066 25.119 15.8954 25.119 16.7441V19.3066H27.0644C27.8698 19.3066 28.5234 19.9954 28.5234 20.8441C28.5234 21.6928 27.8698 22.3816 27.0644 22.3816H22.9304C22.2592 22.3816 21.7145 22.9556 21.7145 23.6628C21.7145 24.3701 22.2592 24.9441 22.9304 24.9441Z" fill="white"/>
<path d="M17.6875 40.8315H17.8247C17.7855 40.8315 17.7267 40.8315 17.6875 40.8521V40.8315Z" fill="white"/>
<path d="M29.5957 40.8315V40.8523C29.5559 40.8315 29.536 40.8315 29.4962 40.8315H29.5957Z" fill="white"/>
</g>
<defs>
<clipPath id="clip0_71_214">
<rect width="46.6898" height="49.2" fill="white" transform="translate(0.315063 0.856689)"/>
</clipPath>
</defs>
</svg>
