<svg width="137" height="52" viewBox="0 0 137 52" fill="none" xmlns="http://www.w3.org/2000/svg">
<path d="M12.4678 0.498713C11.0695 0.215131 10.0036 0 8.5368 0C4.32218 0 2.64025 2.00463 2.64025 5.57385V8.17499H0V12.3896H2.64025V25.2192H7.78384V12.3896H11.5389L11.8909 8.17499H7.78384V6.14102C7.78384 4.99691 7.8914 4.28307 9.53422 4.28307C10.1405 4.28307 11.1086 4.39063 11.8224 4.53731L12.4678 0.498713ZM27.9671 25.2192V14.1107C27.9671 9.28976 26.6469 7.46114 20.6135 7.46114C18.6089 7.46114 15.9979 7.82295 14.3551 8.32167L15.0396 12.1843C16.6824 11.8616 18.2177 11.6758 19.753 11.6758C22.5008 11.6758 22.8235 12.2918 22.8235 14.0715V15.3917H19.0684C15.4992 15.3917 13.8955 16.79 13.8955 20.2908C13.8955 23.2537 15.2156 25.5713 18.4328 25.5713C19.6063 25.5713 21.3958 25.2192 23.3906 24.1045L23.7524 25.2192H27.9671ZM22.8235 20.9655C22.0412 21.3273 21.2882 21.5718 20.2126 21.5718C19.2151 21.5718 18.824 21.1806 18.824 20.2126C18.824 19.2542 19.2542 18.9707 20.3592 18.9707H22.8235V20.9655ZM36.3278 14.4627C36.3278 12.683 37.071 11.8616 39.1441 11.8616C40.1513 11.8616 41.6474 12.0376 42.7231 12.2918L43.3587 7.99897C41.6083 7.60782 40.3567 7.46114 39.1441 7.46114C33.5018 7.46114 31.1842 9.57334 31.1842 14.5409V18.5013C31.1842 23.4689 33.5018 25.5713 39.1441 25.5713C40.3567 25.5713 41.6083 25.4344 43.3587 25.0335L42.7231 20.7504C41.4714 21.034 40.4642 21.1806 39.1441 21.1806C37.071 21.1806 36.3278 20.3592 36.3278 18.5697V14.4627ZM60.1879 18.3253V14.6778C60.1879 10.8935 58.9362 7.46114 53.1472 7.46114C47.3582 7.46114 45.6861 10.6783 45.6861 14.4333V18.5013C45.6861 22.7844 47.8276 25.5713 53.4699 25.5713C55.895 25.5713 58.4375 25.0335 60.0021 24.4663L59.2589 20.6135C57.7236 21.0731 55.5723 21.3567 53.9686 21.3567C51.6119 21.3567 50.8296 20.8188 50.8296 18.824V18.3253H60.1879ZM55.3278 14.4627H50.8296V13.7195C50.8296 12.4972 51.3968 11.4997 53.1863 11.4997C54.966 11.4997 55.3278 12.4972 55.3278 13.7195V14.4627ZM79.3639 18.247V13.7488C79.3639 9.85692 77.8677 7.46114 74.0051 7.46114C72.1179 7.46114 70.475 7.8914 69.0767 8.42923V0L63.9331 0.713845V25.0041C66.3289 25.3953 69.1451 25.5713 71.0031 25.5713C78.1904 25.5713 79.3639 22.3932 79.3639 18.247ZM69.0767 12.8981C70.0448 12.3896 71.2573 11.93 72.3623 11.93C73.7216 11.93 74.2203 12.6438 74.2203 13.788V18.2862C74.2203 19.929 73.7607 21.1122 71.1889 21.1122C70.475 21.1122 69.8296 21.1122 69.0767 21.034V12.8981ZM90.0813 25.5713C96.2615 25.5713 97.9336 22.1096 97.9336 18.5404V14.5018C97.9336 10.9326 96.2615 7.46114 90.0813 7.46114C83.9012 7.46114 82.2192 10.9326 82.2192 14.5018V18.5404C82.2192 22.1096 83.9012 25.5713 90.0813 25.5713ZM90.0813 21.2491C88.2234 21.2491 87.3628 20.3201 87.3628 18.6773V14.3551C87.3628 12.7123 88.2234 11.7833 90.0813 11.7833C91.9393 11.7833 92.79 12.7123 92.79 14.3551V18.6773C92.79 20.3201 91.9393 21.2491 90.0813 21.2491ZM108.651 25.5713C114.831 25.5713 116.513 22.1096 116.513 18.5404V14.5018C116.513 10.9326 114.831 7.46114 108.651 7.46114C102.471 7.46114 100.799 10.9326 100.799 14.5018V18.5404C100.799 22.1096 102.471 25.5713 108.651 25.5713ZM108.651 21.2491C106.793 21.2491 105.942 20.3201 105.942 18.6773V14.3551C105.942 12.7123 106.793 11.7833 108.651 11.7833C110.509 11.7833 111.37 12.7123 111.37 14.3551V18.6773C111.37 20.3201 110.509 21.2491 108.651 21.2491ZM125.402 25.2192V0L120.258 0.713845V25.2192H125.402ZM126.086 16.4673L130.722 25.2192H136.227L131.445 16.4673L136.012 7.82295H130.516L126.086 16.4673Z" fill="#3A589E"/>
<path d="M104.851 51.3052H106.709L99.2578 29.8996H96.4611L89 51.3052H90.8677L92.8626 45.6824H102.827L104.851 51.3052ZM97.8399 30.9949L102.25 44.0396H93.4395L97.8399 30.9949ZM109.995 47.2862C109.995 50.122 111.374 51.6279 114.425 51.6279C116.165 51.6279 118.121 51.0216 119.705 49.8286L119.793 51.3052H121.504V29L119.637 29.2542V35.8451C117.837 35.4931 116.459 35.3366 114.816 35.3366C111.276 35.3366 109.995 37.2923 109.995 40.1575V47.2862ZM119.637 47.9609C118.16 49.1539 116.488 49.9557 114.562 49.9557C112.44 49.9557 111.853 49.0952 111.853 47.2862V40.1575C111.853 38.0355 112.694 37.0087 114.747 37.0087C116.263 37.0087 117.935 37.1945 119.637 37.5466V47.9609ZM136.29 47.3546C136.29 44.4308 136.036 43.6876 131.43 42.5337C128.545 41.7905 128.408 41.5656 128.408 39.4143C128.408 37.7128 128.799 37.0087 131.528 37.0087C132.818 37.0087 134.647 37.1945 135.899 37.4586L136.094 35.8744C134.872 35.5224 133.102 35.3366 131.655 35.3366C127.802 35.3366 126.55 36.7447 126.55 39.3459C126.55 42.211 126.873 43.1791 130.794 44.1081C134.363 44.9393 134.422 45.174 134.422 47.4231C134.422 49.4081 133.845 49.9557 130.951 49.9557C129.797 49.9557 128.154 49.7308 126.804 49.3201L126.482 50.826C127.645 51.3052 129.503 51.6279 131.078 51.6279C135.263 51.6279 136.29 50.1806 136.29 47.3546Z" fill="#4A4A4A"/>
</svg>
