<svg width="96" height="105" viewBox="0 0 96 105" fill="none" xmlns="http://www.w3.org/2000/svg">
<g filter="url(#filter0_d_159_30)">
<path d="M10 66.8241V30.4124C10 28.2135 11.1822 26.2038 13.0737 25.0925L44.8512 6.81572C46.7427 5.72809 49.0834 5.72809 50.9986 6.81572L82.5869 25.0925C84.4784 26.2038 85.6606 28.2371 85.637 30.4124L85.4951 66.8241C85.4951 69.0229 84.3129 71.0327 82.3978 72.1203L50.7622 90.1843C48.8706 91.2719 46.5535 91.2719 44.6857 90.1843L13.0737 72.1203C11.1822 71.0563 10 69.0229 10 66.8241Z" fill="white"/>
<path d="M13.3811 64.8376V31.6888C13.3811 29.7027 14.445 27.8348 16.1711 26.8418L45.1112 10.1964C46.8373 9.2034 48.9652 9.2034 50.7149 10.1964L79.4895 26.8418C81.2156 27.8348 82.2795 29.7027 82.2795 31.6888L82.1377 64.8613C82.1377 66.8473 81.0501 68.6916 79.324 69.6846L50.5257 86.1408C48.7997 87.1102 46.6954 87.1102 44.993 86.1408L16.1947 69.6846C14.445 68.6916 13.3811 66.8473 13.3811 64.8376Z" fill="#F4F6F8"/>
</g>
<g clip-path="url(#clip0_159_30)">
<mask id="mask0_159_30" style="mask-type:luminance" maskUnits="userSpaceOnUse" x="31" y="35" width="33" height="26">
<path d="M63.8357 35H31V61H63.8357V35Z" fill="white"/>
</mask>
<g mask="url(#mask0_159_30)">
<path d="M33.2388 60.9998H38.4627V47.6058L31 41.6968V58.6362C31 59.944 32.0037 60.9998 33.2388 60.9998Z" fill="#4285F4"/>
<path d="M56.3731 60.9998H61.5969C62.8359 60.9998 63.8357 59.9401 63.8357 58.6362V41.6968L56.3731 47.6058" fill="#34A853"/>
<path d="M56.3731 37.3635V47.6059L63.8357 41.6968V38.5453C63.8357 35.6223 60.6754 33.9559 58.4627 35.709" fill="#FBBC04"/>
<path d="M38.4627 47.6057V37.3633L47.4179 44.4542L56.3731 37.3633V47.6057L47.4179 54.6966" fill="#EA4335"/>
<path d="M31 38.5453V41.6968L38.4627 47.6059V37.3635L36.3731 35.709C34.1567 33.9559 31 35.6223 31 38.5453Z" fill="#C5221F"/>
</g>
</g>
<defs>
<filter id="filter0_d_159_30" x="0" y="0" width="95.6373" height="105" filterUnits="userSpaceOnUse" color-interpolation-filters="sRGB">
<feFlood flood-opacity="0" result="BackgroundImageFix"/>
<feColorMatrix in="SourceAlpha" type="matrix" values="0 0 0 0 0 0 0 0 0 0 0 0 0 0 0 0 0 0 127 0" result="hardAlpha"/>
<feOffset dy="4"/>
<feGaussianBlur stdDeviation="5"/>
<feComposite in2="hardAlpha" operator="out"/>
<feColorMatrix type="matrix" values="0 0 0 0 0 0 0 0 0 0 0 0 0 0 0 0 0 0 0.15 0"/>
<feBlend mode="normal" in2="BackgroundImageFix" result="effect1_dropShadow_159_30"/>
<feBlend mode="normal" in="SourceGraphic" in2="effect1_dropShadow_159_30" result="shape"/>
</filter>
<clipPath id="clip0_159_30">
<rect width="33" height="26" fill="white" transform="translate(31 35)"/>
</clipPath>
</defs>
</svg>
