<svg width="96" height="105" viewBox="0 0 96 105" fill="none" xmlns="http://www.w3.org/2000/svg">
<g filter="url(#filter0_d_178_20)">
<path d="M10 66.8241V30.4124C10 28.2135 11.1822 26.2038 13.0737 25.0925L44.8512 6.81572C46.7427 5.72809 49.0834 5.72809 50.9986 6.81572L82.5869 25.0925C84.4784 26.2038 85.6606 28.2371 85.637 30.4124L85.4951 66.8241C85.4951 69.0229 84.3129 71.0327 82.3978 72.1203L50.7622 90.1843C48.8706 91.2719 46.5535 91.2719 44.6857 90.1843L13.0737 72.1203C11.1822 71.0563 10 69.0229 10 66.8241Z" fill="white"/>
<path d="M13.3811 64.8376V31.6888C13.3811 29.7027 14.4451 27.8348 16.1711 26.8418L45.1113 10.1964C46.8373 9.2034 48.9652 9.2034 50.7149 10.1964L79.4896 26.8418C81.2156 27.8348 82.2796 29.7027 82.2796 31.6888L82.1377 64.8613C82.1377 66.8473 81.0501 68.6916 79.3241 69.6846L50.5257 86.1408C48.7997 87.1102 46.6954 87.1102 44.9931 86.1408L16.1947 69.6846C14.4451 68.6916 13.3811 66.8473 13.3811 64.8376Z" fill="#F4F6F8"/>
</g>
<path d="M64.5887 47.6433L49.4637 32.4702L47.9982 31L36.6125 42.4219L31.406 47.6433C31.146 47.9055 31 48.2604 31 48.6303C31 49.0002 31.146 49.355 31.406 49.6173L41.8079 60.0522L47.9982 66.2606L59.3823 54.8387L59.5596 54.6624L64.5887 49.6251C64.7191 49.4954 64.8225 49.341 64.8931 49.1709C64.9637 49.0009 65 48.8185 65 48.6342C65 48.45 64.9637 48.2676 64.8931 48.0975C64.8225 47.9275 64.7191 47.7731 64.5887 47.6433ZM47.9982 53.8438L42.8012 48.6303L47.9982 43.4168L53.1936 48.6303L47.9982 53.8438Z" fill="#2684FF"/>
<path d="M47.9981 43.4167C46.3637 41.7775 45.4423 39.5559 45.4352 37.2374C45.4282 34.9189 46.336 32.6917 47.9605 31.0425L36.5889 42.4455L42.7776 48.6539L47.9981 43.4167Z" fill="url(#paint0_linear_178_20)"/>
<path d="M53.2077 48.6162L47.9982 53.8439C49.6388 55.4902 50.5605 57.7228 50.5605 60.0507C50.5605 62.3786 49.6388 64.6112 47.9982 66.2575L59.4011 54.8246L53.2077 48.6162Z" fill="url(#paint1_linear_178_20)"/>
<defs>
<filter id="filter0_d_178_20" x="0" y="0" width="95.6373" height="105" filterUnits="userSpaceOnUse" color-interpolation-filters="sRGB">
<feFlood flood-opacity="0" result="BackgroundImageFix"/>
<feColorMatrix in="SourceAlpha" type="matrix" values="0 0 0 0 0 0 0 0 0 0 0 0 0 0 0 0 0 0 127 0" result="hardAlpha"/>
<feOffset dy="4"/>
<feGaussianBlur stdDeviation="5"/>
<feComposite in2="hardAlpha" operator="out"/>
<feColorMatrix type="matrix" values="0 0 0 0 0 0 0 0 0 0 0 0 0 0 0 0 0 0 0.15 0"/>
<feBlend mode="normal" in2="BackgroundImageFix" result="effect1_dropShadow_178_20"/>
<feBlend mode="normal" in="SourceGraphic" in2="effect1_dropShadow_178_20" result="shape"/>
</filter>
<linearGradient id="paint0_linear_178_20" x1="47.0676" y1="38.1418" x2="39.7873" y2="45.3975" gradientUnits="userSpaceOnUse">
<stop offset="0.18" stop-color="#0052CC"/>
<stop offset="1" stop-color="#2684FF"/>
</linearGradient>
<linearGradient id="paint1_linear_178_20" x1="48.9899" y1="59.0559" x2="56.256" y2="51.8143" gradientUnits="userSpaceOnUse">
<stop offset="0.18" stop-color="#0052CC"/>
<stop offset="1" stop-color="#2684FF"/>
</linearGradient>
</defs>
</svg>
