<svg width="48" height="48" viewBox="0 0 48 48" fill="none" xmlns="http://www.w3.org/2000/svg">
<g clip-path="url(#clip0_22_74)">
<path fill-rule="evenodd" clip-rule="evenodd" d="M0.598806 1.33515C0.338003 1.68623 0.257755 2.15768 0.0571373 2.47867C0.187539 4.71556 0.0771991 7.59442 0.0571373 9.91155V24.7673C0.0771991 26.4625 -0.243788 30.6855 0.448343 31.9193C1.51162 33.8452 3.86887 33.3437 6.42675 33.3537H21.3728C23.8604 33.3337 26.4384 33.444 28.906 33.3537V24.2557C27.4114 24.8174 26.3681 25.3792 24.2917 24.5968C23.1482 24.1454 21.784 22.8815 20.9314 22.2094L17.7516 19.7017C16.7084 18.9193 15.5248 18.0968 14.9731 16.7125C12.7863 11.4964 18.9152 7.35368 22.8975 10.4532L26.1073 12.991C26.4584 12.8205 26.8697 12.4694 27.1907 12.1886C27.6019 11.8475 27.9029 11.5867 28.3141 11.2758C28.7254 10.9548 28.9862 10.6739 29.3774 10.383C29.8589 10.042 30.0695 9.91155 30.6112 9.62066C30.0695 8.73794 29.7185 7.73485 29.568 6.65152C29.2169 4.1438 30.0495 1.77651 31.6444 0.0712577C26.2879 0.00104147 20.9013 0.131443 15.5448 0.0712577C12.8565 0.0511959 10.1281 0.0511959 7.43987 0.0712577C4.9823 0.0913194 1.53168 -0.450348 0.598806 1.33515Z" fill="white"/>
<path fill-rule="evenodd" clip-rule="evenodd" d="M26.2578 16.9334C25.8465 16.7629 22.5564 14.0947 21.9646 13.6132C21.6436 13.3524 20.8813 12.7004 20.3998 12.5499C18.9052 12.0985 17.5811 13.1819 17.561 14.6062C17.561 16.1008 18.7046 16.5723 19.838 17.5052L24.1012 20.8655C24.5726 21.2166 25.0541 21.7282 25.7262 21.8786C27.0703 22.1595 27.9631 21.1865 29.0464 20.2336C29.4577 19.8825 29.9793 19.4512 30.4507 19.08C30.9723 18.6687 31.3836 18.2374 31.9654 17.9064C31.9453 18.3879 31.855 47.7182 31.9854 48.5808C32.2262 50.266 34.3026 51.0685 35.737 49.9852C36.9307 49.1024 36.5595 46.3841 36.5595 44.6287V35.4404C36.5595 34.5978 36.5595 33.2938 37.7131 33.7452C38.4754 34.0461 38.2547 35.3501 38.2547 36.2328C38.2347 37.256 38.2347 38.3293 38.2547 39.3524C38.2547 41.4088 38.2547 43.4651 38.2547 45.5214C38.2347 47.5978 37.9338 49.4836 39.7293 50.2058C41.0734 50.7475 42.9091 50.0353 42.9091 47.5577V29.0607C46.6305 27.7768 45.9585 25.3293 45.9183 21.0461C45.8983 17.455 46.781 13.7035 43.4708 12.4295C42.5379 12.0785 34.1321 12.1085 32.6174 12.2089C31.6444 12.2791 31.3334 12.7706 30.7817 13.1618L26.2578 16.9334Z" fill="#FED369"/>
<path fill-rule="evenodd" clip-rule="evenodd" d="M44.1729 9.73124C44.2632 9.77137 44.3736 9.80146 44.4739 9.82152C45.798 10.3431 46.9013 11.1857 47.6537 12.3995C49.2787 14.9975 48.7169 18.1371 48.7169 21.026C48.737 23.4736 49.1282 26.2722 47.9145 28.5191C47.3728 29.5121 46.6105 30.2544 45.7077 30.8362V33.354H45.818C48.396 33.3339 50.7331 33.8355 51.8165 31.9196C52.5086 30.6858 52.1876 26.4628 52.2077 24.7675V9.9118C52.1876 7.59467 52.0572 4.7158 52.2077 2.47892C51.987 2.15793 51.9268 1.69651 51.666 1.3354C50.7331 -0.46013 47.2524 0.081536 44.845 0.0614743C44.3034 0.0614743 43.7416 0.0614743 43.2 0.0614743C44.2833 1.20499 45.0356 2.65947 45.2763 4.3246C45.5773 6.27059 45.1459 8.17646 44.1729 9.73124Z" fill="white"/>
<path fill-rule="evenodd" clip-rule="evenodd" d="M36.7601 0.703405C34.2725 1.05449 32.186 3.32147 32.5973 6.21036C32.9384 8.6579 35.2354 10.7142 38.1243 10.3431C40.5719 10.002 42.6784 7.69493 42.237 4.77594C41.8759 2.36853 39.5788 0.292139 36.7601 0.703405Z" fill="#FED369"/>
</g>
<defs>
<clipPath id="clip0_22_74">
<rect width="48" height="48" fill="white"/>
</clipPath>
</defs>
</svg>
