<svg width="26" height="26" viewBox="0 0 26 26" fill="none" xmlns="http://www.w3.org/2000/svg">
<g clip-path="url(#clip0_1_74)">
<path d="M16.7751 13.31L25.0295 18.5309V7.86865L16.7751 13.31Z" fill="#9092B0"/>
<path d="M0.544922 7.86865V18.5309L8.79929 13.31L0.544922 7.86865Z" fill="#9092B0"/>
<path d="M23.499 4.76367H2.075C1.31139 4.76367 0.705393 5.33322 0.590622 6.0666L12.787 14.1062L24.9834 6.0666C24.8686 5.33322 24.2626 4.76367 23.499 4.76367Z" fill="#9092B0"/>
<path d="M15.3732 14.2349L13.2078 15.6619C13.0793 15.7461 12.9339 15.7874 12.787 15.7874C12.6401 15.7874 12.4947 15.7461 12.3662 15.6619L10.2008 14.2334L0.593658 20.3132C0.711491 21.0405 1.31442 21.6054 2.07498 21.6054H23.499C24.2596 21.6054 24.8625 21.0405 24.9803 20.3132L15.3732 14.2349Z" fill="#9092B0"/>
</g>
<defs>
<clipPath id="clip0_1_74">
<rect width="24.4846" height="24.4969" fill="white" transform="translate(0.544922 0.936035)"/>
</clipPath>
</defs>
</svg>
