<svg width="96" height="105" viewBox="0 0 96 105" fill="none" xmlns="http://www.w3.org/2000/svg">
<g filter="url(#filter0_d_178_17)">
<path d="M10 66.8241V30.4124C10 28.2135 11.1822 26.2038 13.0737 25.0925L44.8512 6.81572C46.7427 5.72809 49.0834 5.72809 50.9986 6.81572L82.5869 25.0925C84.4784 26.2038 85.6606 28.2371 85.637 30.4124L85.4951 66.8241C85.4951 69.0229 84.3129 71.0327 82.3978 72.1203L50.7622 90.1843C48.8706 91.2719 46.5535 91.2719 44.6857 90.1843L13.0737 72.1203C11.1822 71.0563 10 69.0229 10 66.8241Z" fill="white"/>
<path d="M13.3811 64.8376V31.6888C13.3811 29.7027 14.4451 27.8348 16.1711 26.8418L45.1113 10.1964C46.8373 9.2034 48.9652 9.2034 50.7149 10.1964L79.4896 26.8418C81.2156 27.8348 82.2796 29.7027 82.2796 31.6888L82.1377 64.8613C82.1377 66.8473 81.0501 68.6916 79.3241 69.6846L50.5257 86.1408C48.7997 87.1102 46.6954 87.1102 44.9931 86.1408L16.1947 69.6846C14.4451 68.6916 13.3811 66.8473 13.3811 64.8376Z" fill="#F4F6F8"/>
</g>
<path fill-rule="evenodd" clip-rule="evenodd" d="M65 35.8314C64.9993 34.5503 64.49 33.3218 63.5841 32.4159C62.6782 31.51 61.4497 31.0007 60.1686 31H34.8314C33.5503 31.0007 32.3218 31.51 31.4159 32.4159C30.51 33.3218 30.0007 34.5503 30 35.8314V61.1686C30.0007 62.4497 30.51 63.6782 31.4159 64.5841C32.3218 65.49 33.5503 65.9993 34.8314 66H60.1686C61.4497 65.9993 62.6782 65.49 63.5841 64.5841C64.49 63.6782 64.9993 62.4497 65 61.1686V35.8314Z" fill="#FFD228"/>
<path fill-rule="evenodd" clip-rule="evenodd" d="M50.1541 46.8245H55.0837L47.5 54.4808L39.9163 46.8252H44.8459V39H50.1541V46.8245ZM36 56.5926H59V58H36V56.5926Z" fill="#E42815"/>
<defs>
<filter id="filter0_d_178_17" x="0" y="0" width="95.6375" height="105" filterUnits="userSpaceOnUse" color-interpolation-filters="sRGB">
<feFlood flood-opacity="0" result="BackgroundImageFix"/>
<feColorMatrix in="SourceAlpha" type="matrix" values="0 0 0 0 0 0 0 0 0 0 0 0 0 0 0 0 0 0 127 0" result="hardAlpha"/>
<feOffset dy="4"/>
<feGaussianBlur stdDeviation="5"/>
<feComposite in2="hardAlpha" operator="out"/>
<feColorMatrix type="matrix" values="0 0 0 0 0 0 0 0 0 0 0 0 0 0 0 0 0 0 0.15 0"/>
<feBlend mode="normal" in2="BackgroundImageFix" result="effect1_dropShadow_178_17"/>
<feBlend mode="normal" in="SourceGraphic" in2="effect1_dropShadow_178_17" result="shape"/>
</filter>
</defs>
</svg>
