<svg width="79" height="79" viewBox="0 0 79 79" fill="none" xmlns="http://www.w3.org/2000/svg">
<path d="M19.75 12.3438L19.75 66.6563C19.75 69.3832 21.9606 71.5938 24.6875 71.5938L54.3125 71.5938C57.0394 71.5938 59.25 69.3832 59.25 66.6563L59.25 12.3438C59.25 9.61685 57.0394 7.40626 54.3125 7.40626L24.6875 7.40626C21.9606 7.40626 19.75 9.61685 19.75 12.3438Z" stroke="#4B79C9" stroke-width="2" stroke-linecap="round" stroke-linejoin="round"/>
<path d="M39.5 56.7813C37.4548 56.7813 35.7969 58.4392 35.7969 60.4844C35.7969 62.5296 37.4548 64.1875 39.5 64.1875C41.5452 64.1875 43.2031 62.5296 43.2031 60.4844C43.2031 58.4392 41.5452 56.7813 39.5 56.7813Z" fill="#4B79C9"/>
</svg>
