<svg width="29" height="29" viewBox="0 0 29 29" fill="none" xmlns="http://www.w3.org/2000/svg">
<g clip-path="url(#clip0_1_87)">
<path d="M19.0567 6.80047L3.32361 14.4819C2.66078 14.8055 2.24451 15.465 2.23718 16.2028C2.22991 16.9407 2.63306 17.6083 3.28933 17.9449L8.47238 20.6039L13.1373 15.3197C13.352 15.0766 13.7231 15.0535 13.9661 15.2683C14.2092 15.4831 14.2322 15.8544 14.0175 16.0975L9.35258 21.3818L12.63 26.1993C13.045 26.8093 13.7569 27.1271 14.4879 27.0287C15.2203 26.9301 15.8219 26.4343 16.0606 25.7375L21.7362 9.16822C21.9946 8.41384 21.784 7.61726 21.1866 7.08934C20.5892 6.56142 19.773 6.45067 19.0567 6.80047Z" fill="#4A4A4A"/>
</g>
<defs>
<clipPath id="clip0_1_87">
<rect width="20.0468" height="20.0456" fill="white" transform="matrix(0.661812 -0.74967 0.74934 0.662186 0.408691 15.4805)"/>
</clipPath>
</defs>
</svg>
