<svg width="89" height="109" viewBox="0 0 89 109" fill="none" xmlns="http://www.w3.org/2000/svg">
<path d="M2.45195 57.3555L31.6305 7.20483C35.2779 9.33244 54.1224 19.6665 57.1618 21.7941L27.9832 71.6409C24.6398 75.8961 -1.80326 63.7383 2.45195 57.3555Z" fill="#FBBC04"/>
<path d="M86.6443 57.3558L57.1617 7.20516C53.2105 0.518401 44.3961 -2.21709 37.1015 2.03812C29.8068 6.29333 27.6792 14.4998 31.6305 21.7945L61.113 71.6412C65.0643 78.328 73.8786 81.0634 81.1733 76.8082C88.164 72.857 90.5955 64.0426 86.6443 57.3558Z" fill="#4285F4"/>
<path d="M14.9136 78.9357C22.971 78.9357 29.5029 72.5399 29.5029 64.6503C29.5029 56.7608 22.971 50.365 14.9136 50.365C6.85613 50.365 0.32428 56.7608 0.32428 64.6503C0.32428 72.5399 6.85613 78.9357 14.9136 78.9357Z" fill="#34A853"/>
<path fill-rule="evenodd" clip-rule="evenodd" d="M60.1855 104.64L64.8207 92.3467H66.6046L71.2399 104.64H69.4895L68.3065 101.307H63.1375L61.9358 104.64H60.1855ZM63.6675 99.8333H67.7541L65.7463 94.2874H65.6791L63.6675 99.8333ZM75.6699 104.916C74.5838 104.916 73.6433 104.487 72.8559 103.629C72.0684 102.77 71.6728 101.707 71.6728 100.434C71.6728 99.1615 72.0684 98.0979 72.8559 97.2395C73.6433 96.3811 74.5838 95.9519 75.6699 95.9519C76.3118 95.9519 76.8865 96.09 77.3941 96.3625C77.9016 96.6386 78.2823 96.982 78.5361 97.3925H78.6033L78.5361 96.2244V92.343H80.1148V104.636H78.607V103.468H78.5398C78.2898 103.879 77.9091 104.222 77.3978 104.498C76.8865 104.778 76.3118 104.916 75.6699 104.916ZM75.9274 103.476C76.6701 103.476 77.3045 103.2 77.8233 102.651C78.3458 102.102 78.6033 101.363 78.6033 100.438C78.6033 99.5123 78.342 98.7734 77.8233 98.2248C77.3045 97.6762 76.6701 97.4 75.9274 97.4C75.1959 97.4 74.5652 97.6762 74.0389 98.2322C73.5127 98.7883 73.2477 99.5235 73.2477 100.438C73.2477 101.352 73.5127 102.087 74.0389 102.644C74.5652 103.196 75.1959 103.476 75.9274 103.476ZM85.0784 104.916C84.1417 104.916 83.3654 104.689 82.7534 104.23C82.1413 103.771 81.6897 103.2 81.4061 102.513L82.8131 101.931C83.2609 102.983 84.0223 103.509 85.0971 103.509C85.5897 103.509 85.9928 103.401 86.3063 103.185C86.6198 102.968 86.7803 102.681 86.7803 102.326C86.7803 101.778 86.3959 101.405 85.6308 101.21L83.9327 100.8C83.3953 100.662 82.884 100.401 82.4063 100.02C81.9248 99.6355 81.686 99.1205 81.686 98.4674C81.686 97.7247 82.0144 97.1201 82.675 96.6573C83.3356 96.1945 84.1156 95.9631 85.0187 95.9631C85.7614 95.9631 86.4257 96.1311 87.0116 96.4707C87.5939 96.8066 88.0118 97.2918 88.2656 97.9225L86.8922 98.4898C86.5825 97.7471 85.9405 97.3739 84.9702 97.3739C84.5 97.3739 84.1044 97.4709 83.7871 97.665C83.4662 97.859 83.3057 98.124 83.3057 98.4562C83.3057 98.9376 83.6789 99.2623 84.4216 99.434L86.0861 99.8296C86.8773 100.012 87.4595 100.326 87.8364 100.774C88.2134 101.222 88.4037 101.725 88.4037 102.285C88.4037 103.039 88.094 103.67 87.4782 104.174C86.8474 104.666 86.0525 104.916 85.0784 104.916Z" fill="#747474"/>
<path d="M7.09186 104.894C3.28465 104.894 0 101.759 0 97.9516C0 94.1444 3.21 91.009 7.09186 91.009C9.18209 91.009 10.7498 91.8302 11.8695 92.95L10.5258 94.2937C9.70464 93.5472 8.58488 92.95 7.09186 92.95C4.32976 92.95 2.09023 95.1895 2.09023 98.0262C2.09023 100.863 4.25511 103.103 7.09186 103.103C8.88348 103.103 9.9286 102.356 10.6005 101.684C11.123 101.162 11.4963 100.34 11.6456 99.2953H7.09186V97.429H13.5118C13.5865 97.8023 13.5865 98.1755 13.5865 98.6234C13.5865 100.042 13.2132 101.833 11.9442 103.103C10.6751 104.222 9.10744 104.894 7.09186 104.894ZM23.4405 100.415C23.4405 103.028 21.4249 104.894 19.036 104.894C16.5725 104.894 14.6316 103.028 14.6316 100.415C14.6316 97.8023 16.6472 95.936 19.036 95.936C21.4995 95.936 23.4405 97.8769 23.4405 100.415ZM21.4995 100.415C21.4995 98.7727 20.3798 97.7276 19.036 97.7276C17.6923 97.7276 16.5725 98.8474 16.5725 100.415C16.5725 101.983 17.6923 103.103 19.036 103.103C20.3798 103.177 21.4995 102.057 21.4995 100.415ZM33.369 100.415C33.369 103.028 31.3535 104.894 28.9646 104.894C26.5011 104.894 24.5602 103.028 24.5602 100.415C24.5602 97.8023 26.5758 95.936 28.9646 95.936C31.3535 95.936 33.369 97.8769 33.369 100.415ZM31.4281 100.415C31.4281 98.7727 30.3083 97.7276 28.9646 97.7276C27.6209 97.7276 26.5011 98.8474 26.5011 100.415C26.5011 101.983 27.6209 103.103 28.9646 103.103C30.2337 103.177 31.4281 102.057 31.4281 100.415ZM42.999 96.2346V104.297C42.999 107.582 41.0581 109 38.7439 109C36.579 109 35.2353 107.507 34.7874 106.387L36.5044 105.641C36.803 106.387 37.5495 107.208 38.7439 107.208C40.2369 107.208 41.1328 106.313 41.1328 104.596V103.924H41.0581C40.6102 104.446 39.789 104.969 38.6693 104.969C36.4297 104.969 34.4142 103.028 34.4142 100.49C34.4142 97.9516 36.5044 96.0107 38.6693 96.0107C39.7144 96.0107 40.6102 96.4586 41.0581 96.9811H41.1328V96.2346H42.999ZM41.2821 100.49C41.2821 98.9221 40.2369 97.7276 38.8932 97.7276C37.5495 97.7276 36.4297 98.8474 36.4297 100.49C36.4297 102.057 37.5495 103.177 38.8932 103.177C40.2369 103.177 41.2821 101.983 41.2821 100.49ZM46.433 91.4569V104.596H44.4921V91.4569H46.433ZM54.1967 101.908L55.6897 102.953C55.1672 103.7 54.0474 104.969 51.9572 104.969C49.419 104.969 47.5528 103.028 47.5528 100.49C47.5528 97.8023 49.419 96.0107 51.7332 96.0107C54.0474 96.0107 55.1672 97.8769 55.5404 98.8474L55.7644 99.37L49.7923 101.833C50.2402 102.729 50.9867 103.177 51.9572 103.177C52.9276 103.177 53.6741 102.655 54.1967 101.908ZM49.4937 100.266L53.5248 98.6234C53.3009 98.1009 52.629 97.653 51.8825 97.653C50.8374 97.653 49.419 98.5488 49.4937 100.266Z" fill="#747474"/>
</svg>
