<svg width="47" height="47" viewBox="0 0 47 47" fill="none" xmlns="http://www.w3.org/2000/svg">
<path d="M4.62011 33.8616C4.90283 33.862 5.18285 33.8065 5.44405 33.6983C5.70526 33.5901 5.94252 33.4314 6.14219 33.2312L18.2526 21.1207L23.188 26.0562C23.3879 26.2561 23.6252 26.4146 23.8863 26.5228C24.1475 26.631 24.4274 26.6867 24.7101 26.6867C24.9928 26.6867 25.2727 26.631 25.5338 26.5228C25.795 26.4146 26.0323 26.2561 26.2322 26.0562L39.7768 12.5116L39.776 17.3591C39.776 17.93 40.0028 18.4775 40.4064 18.8812C40.8101 19.2848 41.3576 19.5116 41.9285 19.5116C42.4993 19.5116 43.0468 19.2848 43.4505 18.8812C43.8542 18.4775 44.081 17.93 44.081 17.3591L44.0826 7.31412C44.0826 6.74324 43.8558 6.19575 43.4521 5.79207C43.0485 5.3884 42.501 5.16162 41.9301 5.16162H31.8851C31.3142 5.16162 30.7667 5.3884 30.363 5.79207C29.9594 6.19575 29.7326 6.74324 29.7326 7.31412C29.7326 7.885 29.9594 8.43249 30.363 8.83617C30.7667 9.23984 31.3142 9.46662 31.8851 9.46662H36.7335L24.7101 21.49L19.7747 16.5545C19.5748 16.3546 19.3375 16.1961 19.0763 16.0879C18.8152 15.9797 18.5353 15.924 18.2526 15.924C17.9699 15.924 17.69 15.9797 17.4288 16.0879C17.1677 16.1961 16.9304 16.3546 16.7305 16.5545L3.09802 30.187C2.79697 30.4881 2.59196 30.8716 2.50889 31.2892C2.42583 31.7067 2.46846 32.1395 2.63138 32.5328C2.79431 32.9262 3.07021 33.2623 3.4242 33.4989C3.77819 33.7354 4.19437 33.8616 4.62011 33.8616Z" fill="white"/>
<path d="M41.9301 37.8616H4.62015C4.04927 37.8616 3.50178 38.0884 3.0981 38.492C2.69443 38.8957 2.46765 39.4432 2.46765 40.0141C2.46765 40.5849 2.69443 41.1324 3.0981 41.5361C3.50178 41.9398 4.04927 42.1666 4.62015 42.1666H41.9301C42.501 42.1666 43.0485 41.9398 43.4522 41.5361C43.8558 41.1324 44.0826 40.5849 44.0826 40.0141C44.0826 39.4432 43.8558 38.8957 43.4522 38.492C43.0485 38.0884 42.501 37.8616 41.9301 37.8616Z" fill="white"/>
</svg>
