<svg width="96" height="105" viewBox="0 0 96 105" fill="none" xmlns="http://www.w3.org/2000/svg">
<g filter="url(#filter0_d_178_21)">
<path d="M10 66.8241V30.4124C10 28.2135 11.1822 26.2038 13.0737 25.0925L44.8512 6.81572C46.7427 5.72809 49.0834 5.72809 50.9986 6.81572L82.5869 25.0925C84.4784 26.2038 85.6606 28.2371 85.637 30.4124L85.4951 66.8241C85.4951 69.0229 84.3129 71.0327 82.3978 72.1203L50.7622 90.1843C48.8706 91.2719 46.5535 91.2719 44.6857 90.1843L13.0737 72.1203C11.1822 71.0563 10 69.0229 10 66.8241Z" fill="white"/>
<path d="M13.3811 64.8376V31.6888C13.3811 29.7027 14.4451 27.8348 16.1711 26.8418L45.1113 10.1964C46.8373 9.2034 48.9652 9.2034 50.7149 10.1964L79.4896 26.8418C81.2156 27.8348 82.2796 29.7027 82.2796 31.6888L82.1377 64.8613C82.1377 66.8473 81.0501 68.6916 79.3241 69.6846L50.5257 86.1408C48.7997 87.1102 46.6954 87.1102 44.9931 86.1408L16.1947 69.6846C14.4451 68.6916 13.3811 66.8473 13.3811 64.8376Z" fill="#F4F6F8"/>
</g>
<path d="M32.5608 59.7491C31.3113 59.7491 30.2984 58.7093 30.2984 57.4264C30.2984 56.1437 31.3113 55.1038 32.5609 55.1038C33.8105 55.1038 34.8232 56.1437 34.8232 57.4264C34.8232 58.7093 33.8103 59.7491 32.5608 59.7491ZM34.8304 60.0437C34.8304 60.2564 35.1933 60.8539 35.638 60.8539H35.9259C36.0376 60.8539 36.1288 60.7621 36.1288 60.6501V54.2937H36.1278C36.125 54.2418 36.1025 54.1928 36.065 54.157C36.0275 54.1212 35.9777 54.1011 35.9259 54.1009H35.0336C34.9257 54.1009 34.8375 54.1867 34.8315 54.2937H34.8304V54.8102C34.2839 54.1339 33.4218 53.8532 32.5574 53.8532C30.5926 53.8532 29 55.453 29 57.4266C29 59.4002 30.5926 61 32.5574 61C33.4218 61 34.3638 60.6632 34.8304 60.043V60.044V60.0437ZM38.2609 59.1335C38.8564 59.5478 39.5067 59.7491 40.1315 59.7491C40.7269 59.7491 41.342 59.4391 41.342 58.8996C41.342 58.1795 40.0011 58.0674 39.1588 57.7798C38.316 57.4922 37.5902 56.8976 37.5902 55.9347C37.5902 54.4615 38.8972 53.853 40.1171 53.853C40.89 53.853 41.6873 54.1089 42.2044 54.4758C42.3826 54.6112 42.274 54.767 42.274 54.767L41.7805 55.4748C41.7251 55.5546 41.6101 55.6182 41.4888 55.5372C41.1563 55.3164 40.786 55.1036 40.1169 55.1036C39.2888 55.1036 38.9246 55.4489 38.9246 55.8768C38.9246 56.3901 39.5071 56.5514 40.1895 56.7263C41.3789 57.0481 42.6764 57.4354 42.6764 58.8998C42.6764 60.1978 41.4675 61 40.1315 61C39.1191 61 38.257 60.7101 37.534 60.1773C37.3835 60.0258 37.4887 59.8853 37.4887 59.8853L37.9797 59.181C38.0797 59.0491 38.2056 59.0953 38.2609 59.1335ZM49.3683 60.0438C49.3683 60.2564 49.7311 60.8539 50.1756 60.8539H50.4637C50.5753 60.8539 50.6667 60.7621 50.6667 60.6501V54.2937H50.6655C50.6627 54.2418 50.6402 54.1929 50.6027 54.1571C50.5652 54.1212 50.5154 54.1011 50.4637 54.1009H49.5714C49.4633 54.1009 49.3753 54.1867 49.3694 54.2937H49.3683V54.8102C48.8216 54.1339 47.9596 53.8532 47.0953 53.8532C45.1305 53.8532 43.5376 55.453 43.5376 57.4264C43.5376 59.3999 45.1305 60.9999 47.0953 60.9999C47.9596 60.9999 48.9016 60.663 49.3682 60.0428V60.0438H49.3683ZM47.0987 59.7493C45.849 59.7493 44.8362 58.7093 44.8362 57.4264C44.8362 56.1437 45.849 55.1038 47.0987 55.1038C48.3481 55.1038 49.3611 56.1437 49.3611 57.4264C49.3611 58.7093 48.3481 59.7491 47.0987 59.7491V59.7493ZM58.6613 60.2622L58.661 56.9733C58.661 55.1193 57.4965 53.8684 55.6394 53.8684C54.753 53.8684 54.0279 54.3833 53.7712 54.8256V54.8193L53.7697 54.8244C53.7691 54.3769 53.4077 54.1162 52.9621 54.1162H52.6757C52.5638 54.1162 52.4726 54.2082 52.4726 54.3203V60.6769H52.4738C52.4796 60.784 52.5678 60.8698 52.6757 60.8698H53.5679C53.5816 60.8698 53.595 60.8682 53.6079 60.8658C53.6139 60.8645 53.6193 60.8621 53.6251 60.8605C53.6319 60.8585 53.6387 60.8569 53.645 60.8542C53.6531 60.8509 53.6602 60.8465 53.6676 60.8423C53.6712 60.8401 53.675 60.8386 53.6786 60.8364C53.6873 60.8303 53.6957 60.8237 53.7035 60.8164C53.7048 60.8151 53.7064 60.8142 53.7076 60.813C53.745 60.7773 53.7672 60.7286 53.7698 60.6769H53.7712V56.9223C53.7712 55.9265 54.5749 55.1191 55.5664 55.1191C56.5577 55.1191 57.3616 55.9265 57.3616 56.9223L57.3622 60.0608L57.3625 60.0596C57.3625 60.0624 57.3631 60.0654 57.3631 60.0682V60.6769H57.3642C57.3702 60.784 57.4581 60.8698 57.5661 60.8698H58.4584C58.4722 60.8698 58.4854 60.8682 58.4984 60.8658C58.5037 60.8646 58.5086 60.8624 58.5136 60.8612C58.521 60.859 58.5285 60.857 58.5356 60.8542C58.5428 60.8512 58.5495 60.8469 58.5563 60.8431C58.5606 60.8408 58.565 60.839 58.569 60.8364C58.5773 60.8307 58.5849 60.8243 58.5923 60.8178C58.5942 60.8163 58.5963 60.8148 58.5982 60.8129C58.6065 60.8048 58.6139 60.7959 58.6209 60.7867C58.6443 60.7549 58.658 60.717 58.6603 60.6775L58.6604 60.6769H58.6615L58.6613 60.2622ZM65.6201 60.0438C65.6201 60.2564 65.9826 60.8539 66.4274 60.8539H66.7154C66.827 60.8539 66.9185 60.7621 66.9185 60.6501V54.2937H66.9175C66.9146 54.2418 66.8921 54.1929 66.8545 54.1571C66.817 54.1212 66.7672 54.1011 66.7154 54.1009H65.8233C65.7715 54.101 65.7217 54.1211 65.6841 54.1569C65.6466 54.1928 65.6241 54.2417 65.6213 54.2937H65.6201V54.8102C65.0731 54.1339 64.2113 53.8532 63.3468 53.8532C61.3823 53.8532 59.7894 55.453 59.7894 57.4264C59.7894 59.3999 61.3823 60.9999 63.3468 60.9999C64.2113 60.9999 65.1532 60.663 65.6197 60.0428L65.6201 60.0438ZM63.3506 59.7493C62.1009 59.7493 61.0881 58.7093 61.0881 57.4264C61.0881 56.1437 62.1009 55.1038 63.3506 55.1038C64.5997 55.1038 65.6126 56.1437 65.6126 57.4264C65.6126 58.7093 64.5997 59.7491 63.3506 59.7491V59.7493Z" fill="#283343"/>
<path d="M52.067 43.0457C50.345 43.0457 48.9492 44.4476 48.9492 46.1769C48.9492 47.9064 50.345 49.3087 52.067 49.3087C53.7887 49.3087 55.1845 47.9064 55.1845 46.1769C55.1845 44.4476 53.7887 43.0457 52.067 43.0457ZM43.9671 43.0458C42.2454 43.046 40.8495 44.4476 40.8495 46.1771C40.8495 47.9064 42.2454 49.3085 43.9671 49.3085C45.689 49.3085 47.0849 47.9064 47.0849 46.1771C47.0849 44.4476 45.6891 43.0458 43.9671 43.0458ZM51.1346 39.1314C51.1346 40.8608 49.7389 42.2631 48.0171 42.2631C46.2951 42.2631 44.8994 40.8608 44.8994 39.1314C44.8994 37.4021 46.2951 36 48.0171 36C49.7389 36 51.1344 37.4021 51.1344 39.1314H51.1346Z" fill="url(#paint0_radial_178_21)"/>
<defs>
<filter id="filter0_d_178_21" x="0" y="0" width="95.6373" height="105" filterUnits="userSpaceOnUse" color-interpolation-filters="sRGB">
<feFlood flood-opacity="0" result="BackgroundImageFix"/>
<feColorMatrix in="SourceAlpha" type="matrix" values="0 0 0 0 0 0 0 0 0 0 0 0 0 0 0 0 0 0 127 0" result="hardAlpha"/>
<feOffset dy="4"/>
<feGaussianBlur stdDeviation="5"/>
<feComposite in2="hardAlpha" operator="out"/>
<feColorMatrix type="matrix" values="0 0 0 0 0 0 0 0 0 0 0 0 0 0 0 0 0 0 0.15 0"/>
<feBlend mode="normal" in2="BackgroundImageFix" result="effect1_dropShadow_178_21"/>
<feBlend mode="normal" in="SourceGraphic" in2="effect1_dropShadow_178_21" result="shape"/>
</filter>
<radialGradient id="paint0_radial_178_21" cx="0" cy="0" r="1" gradientUnits="userSpaceOnUse" gradientTransform="translate(48.017 763.344) scale(949.879 881.871)">
<stop stop-color="#FFB900"/>
<stop offset="0.6" stop-color="#F95D8F"/>
<stop offset="0.9991" stop-color="#F95353"/>
</radialGradient>
</defs>
</svg>
