<svg width="96" height="105" viewBox="0 0 96 105" fill="none" xmlns="http://www.w3.org/2000/svg">
<g filter="url(#filter0_d_168_434)">
<path d="M10 66.8241V30.4124C10 28.2135 11.1822 26.2038 13.0737 25.0925L44.8512 6.81572C46.7427 5.72809 49.0834 5.72809 50.9986 6.81572L82.5869 25.0925C84.4784 26.2038 85.6606 28.2371 85.637 30.4124L85.4951 66.8241C85.4951 69.0229 84.3129 71.0327 82.3978 72.1203L50.7622 90.1843C48.8706 91.2719 46.5535 91.2719 44.6857 90.1843L13.0737 72.1203C11.1822 71.0563 10 69.0229 10 66.8241Z" fill="white"/>
<path d="M13.3811 64.8376V31.6888C13.3811 29.7027 14.4451 27.8348 16.1711 26.8418L45.1113 10.1964C46.8373 9.2034 48.9652 9.2034 50.7149 10.1964L79.4896 26.8418C81.2156 27.8348 82.2796 29.7027 82.2796 31.6888L82.1377 64.8613C82.1377 66.8473 81.0501 68.6916 79.3241 69.6846L50.5257 86.1408C48.7997 87.1102 46.6954 87.1102 44.9931 86.1408L16.1947 69.6846C14.4451 68.6916 13.3811 66.8473 13.3811 64.8376Z" fill="#F4F6F8"/>
</g>
<path d="M59.3866 34.1875H40.5168C40.1081 34.1875 39.7162 34.3493 39.4272 34.6373C39.1382 34.9253 38.9758 35.3159 38.9758 35.7231V37.4687L49.6115 40.75L60.9276 37.4687V35.7231C60.9276 35.3159 60.7653 34.9253 60.4763 34.6373C60.1873 34.3493 59.7953 34.1875 59.3866 34.1875Z" fill="#0364B8"/>
<path d="M62.7388 51.0371C62.8995 50.5335 63.0278 50.0203 63.1229 49.5004C63.1228 49.3727 63.0889 49.2472 63.0248 49.1366C62.9606 49.0261 62.8684 48.9342 62.7574 48.8704L62.7432 48.8616L62.7388 48.8594L50.8431 42.1066C50.7918 42.0734 50.7386 42.0431 50.6839 42.0158C50.4564 41.9033 50.2059 41.8447 49.9518 41.8447C49.6978 41.8447 49.4473 41.9033 49.2197 42.0158C49.1651 42.0428 49.1119 42.0727 49.0606 42.1055L37.1649 48.8605L37.1605 48.8627L37.1474 48.8704C37.0362 48.9341 36.9437 49.0259 36.8794 49.1365C36.815 49.247 36.781 49.3725 36.7808 49.5004C36.8758 50.0202 37.0042 50.5335 37.1649 51.0371L49.7784 60.2301L62.7388 51.0371Z" fill="#0A2767"/>
<path d="M54.342 37.4688H46.6589L44.4407 40.75L46.6589 44.0312L54.342 50.5937H60.9276V44.0312L54.342 37.4688Z" fill="#28A8EA"/>
<path d="M38.9758 37.4688H46.659V44.0312H38.9758V37.4688Z" fill="#0078D4"/>
<path d="M54.3423 37.4688H60.9278V44.0312H54.3423V37.4688Z" fill="#50D9FF"/>
<path d="M54.3421 50.5933L46.659 44.0308H38.9758V50.5933L46.659 57.1558L58.5481 59.0895L54.3421 50.5933Z" fill="#0364B8"/>
<path d="M46.6589 44.0308H54.3421V50.5933H46.6589V44.0308Z" fill="#0078D4"/>
<path d="M38.9758 50.5938H46.659V57.1562H38.9758V50.5938Z" fill="#064A8C"/>
<path d="M54.3423 50.5938H60.9278V57.1562H54.3423V50.5938Z" fill="#0078D4"/>
<path opacity="0.5" d="M50.1604 59.5825L37.2166 50.1763L37.7599 49.2247C37.7599 49.2247 49.5535 55.9185 49.7335 56.0191C49.8071 56.0484 49.886 56.0624 49.9653 56.0602C50.0446 56.0579 50.1226 56.0395 50.1945 56.006L62.1944 49.1919L62.7388 50.1424L50.1604 59.5825Z" fill="#0A2767"/>
<path d="M62.7573 50.1311L62.7419 50.1398L62.7386 50.142L50.843 56.8948C50.6067 57.0467 50.3353 57.1355 50.0548 57.1529C49.7742 57.1704 49.4938 57.1158 49.2405 56.9944L53.3828 62.5298L62.4423 64.4953V64.4997C62.653 64.3478 62.8246 64.1482 62.9429 63.9174C63.0612 63.6866 63.1228 63.4311 63.1228 63.1719V49.5C63.1228 49.6279 63.0891 49.7536 63.0249 49.8644C62.9608 49.9751 62.8685 50.0671 62.7573 50.1311Z" fill="#1490DF"/>
<path opacity="0.05" d="M63.1228 63.1715V62.3643L52.1656 56.1431L50.843 56.8945C50.6067 57.0463 50.3353 57.1351 50.0548 57.1526C49.7742 57.17 49.4938 57.1154 49.2405 56.994L53.3828 62.5295L62.4423 64.4949V64.4993C62.653 64.3474 62.8246 64.1478 62.9429 63.917C63.0612 63.6862 63.1228 63.4307 63.1228 63.1715Z" fill="black"/>
<path opacity="0.1" d="M63.0679 63.5908L51.057 56.7734L50.843 56.8938C50.6068 57.0457 50.3355 57.1348 50.0549 57.1524C49.7743 57.17 49.4939 57.1156 49.2405 56.9944L53.3828 62.5298L62.4423 64.4953V64.4997C62.7495 64.2779 62.9705 63.9572 63.0679 63.5919V63.5908Z" fill="black"/>
<path d="M37.1649 50.1453V50.1344H37.154L37.121 50.1125C37.0161 50.0483 36.9296 49.9582 36.87 49.8509C36.8104 49.7435 36.7797 49.6227 36.7808 49.5V63.1719C36.7805 63.3874 36.8229 63.6009 36.9055 63.8001C36.9882 63.9992 37.1094 64.1802 37.2624 64.3326C37.4153 64.485 37.5969 64.6059 37.7968 64.6882C37.9967 64.7705 38.2109 64.8128 38.4272 64.8125H61.4766C61.6137 64.8112 61.7501 64.7928 61.8827 64.7578C61.9514 64.7459 62.018 64.7238 62.0802 64.6922C62.1036 64.6899 62.1261 64.6824 62.1461 64.6703C62.2359 64.6337 62.3207 64.5859 62.3985 64.5281C62.4205 64.5172 62.4315 64.5172 62.4424 64.4953L37.1649 50.1453Z" fill="#28A8EA"/>
<path opacity="0.1" d="M47.7567 58.9795V41.1142C47.7555 40.7279 47.601 40.3577 47.3269 40.0846C47.0527 39.8114 46.6813 39.6574 46.2936 39.6562H39.0089V47.8113L37.1649 48.8591L37.1594 48.8613L37.1463 48.8689C37.0351 48.9329 36.9428 49.0249 36.8786 49.1356C36.8145 49.2464 36.7807 49.3721 36.7808 49.5V60.4375H46.2936C46.6813 60.4363 47.0527 60.2824 47.3269 60.0092C47.601 59.736 47.7555 59.3659 47.7567 58.9795Z" fill="black"/>
<path opacity="0.2" d="M46.6591 60.0733V42.208C46.6579 41.8216 46.5034 41.4515 46.2293 41.1783C45.9551 40.9051 45.5837 40.7512 45.196 40.75H39.0089V47.8113L37.1649 48.8591L37.1594 48.8613L37.1463 48.8689C37.0351 48.9329 36.9428 49.0249 36.8786 49.1356C36.8145 49.2464 36.7807 49.3721 36.7808 49.5V61.5312H45.196C45.5837 61.5301 45.9551 61.3761 46.2293 61.1029C46.5034 60.8298 46.6579 60.4596 46.6591 60.0733Z" fill="black"/>
<path opacity="0.2" d="M46.6591 57.8858V42.208C46.6579 41.8216 46.5034 41.4515 46.2293 41.1783C45.9551 40.9051 45.5837 40.7512 45.196 40.75H39.0089V47.8113L37.1649 48.8591L37.1594 48.8613L37.1463 48.8689C37.0351 48.9329 36.9428 49.0249 36.8786 49.1356C36.8145 49.2464 36.7807 49.3721 36.7808 49.5V59.3438H45.196C45.5837 59.3426 45.9551 59.1886 46.2293 58.9154C46.5034 58.6423 46.6579 58.2721 46.6591 57.8858Z" fill="black"/>
<path opacity="0.2" d="M45.5615 57.8858V42.208C45.5603 41.8216 45.4058 41.4515 45.1317 41.1783C44.8575 40.9051 44.4861 40.7512 44.0984 40.75H39.0089V47.8113L37.1649 48.8591L37.1594 48.8613L37.1463 48.8689C37.0351 48.9329 36.9428 49.0249 36.8786 49.1356C36.8145 49.2464 36.7807 49.3721 36.7808 49.5V59.3438H44.0984C44.4861 59.3426 44.8575 59.1886 45.1317 58.9154C45.4058 58.6423 45.5603 58.2721 45.5615 57.8858Z" fill="black"/>
<path d="M29.4631 40.75H44.0984C44.4864 40.75 44.8585 40.9036 45.1329 41.177C45.4073 41.4505 45.5614 41.8213 45.5614 42.208V56.792C45.5614 57.1787 45.4073 57.5495 45.1329 57.823C44.8585 58.0964 44.4864 58.25 44.0984 58.25H29.4631C29.0751 58.25 28.7029 58.0964 28.4285 57.823C28.1541 57.5495 28 57.1787 28 56.792V42.208C28 41.8213 28.1541 41.4505 28.4285 41.177C28.7029 40.9036 29.0751 40.75 29.4631 40.75Z" fill="#0078D4"/>
<path d="M32.2443 46.7304C32.6331 45.9048 33.2607 45.2139 34.0466 44.7464C34.9172 44.2497 35.9085 44.0022 36.9113 44.0311C37.8398 44.011 38.756 44.2456 39.5597 44.7092C40.3164 45.1583 40.9257 45.8168 41.3137 46.6047C41.7364 47.4731 41.947 48.4288 41.9283 49.3937C41.9487 50.4017 41.7318 51.4003 41.295 52.3097C40.8986 53.1256 40.2709 53.8077 39.4895 54.2719C38.6542 54.7502 37.7032 54.9912 36.74 54.9686C35.7912 54.9911 34.8542 54.7539 34.0312 54.2828C33.2685 53.833 32.652 53.1738 32.2553 52.384C31.8297 51.5285 31.6163 50.5836 31.633 49.6289C31.6145 48.6291 31.8236 47.6382 32.2443 46.7304ZM34.1651 51.3876C34.3722 51.9096 34.7235 52.3624 35.1782 52.6936C35.6415 53.0168 36.1966 53.1835 36.762 53.1694C37.3643 53.1927 37.9579 53.0203 38.4534 52.6783C38.903 52.3472 39.2453 51.892 39.4379 51.369C39.6538 50.7864 39.7603 50.169 39.7518 49.5479C39.7585 48.921 39.6583 48.2974 39.4555 47.7039C39.2765 47.1699 38.9464 46.6989 38.505 46.3476C38.0226 45.9884 37.4307 45.8057 36.8289 45.8303C36.2512 45.8157 35.6837 45.9838 35.2078 46.3104C34.7442 46.6422 34.3848 47.0986 34.1717 47.6262C33.7002 48.8359 33.6975 50.1771 34.164 51.3887L34.1651 51.3876Z" fill="white"/>
<defs>
<filter id="filter0_d_168_434" x="0" y="0" width="95.6375" height="105" filterUnits="userSpaceOnUse" color-interpolation-filters="sRGB">
<feFlood flood-opacity="0" result="BackgroundImageFix"/>
<feColorMatrix in="SourceAlpha" type="matrix" values="0 0 0 0 0 0 0 0 0 0 0 0 0 0 0 0 0 0 127 0" result="hardAlpha"/>
<feOffset dy="4"/>
<feGaussianBlur stdDeviation="5"/>
<feComposite in2="hardAlpha" operator="out"/>
<feColorMatrix type="matrix" values="0 0 0 0 0 0 0 0 0 0 0 0 0 0 0 0 0 0 0.15 0"/>
<feBlend mode="normal" in2="BackgroundImageFix" result="effect1_dropShadow_168_434"/>
<feBlend mode="normal" in="SourceGraphic" in2="effect1_dropShadow_168_434" result="shape"/>
</filter>
</defs>
</svg>
