<svg width="96" height="105" viewBox="0 0 96 105" fill="none" xmlns="http://www.w3.org/2000/svg">
<g filter="url(#filter0_d_159_274)">
<path d="M10 66.8241V30.4124C10 28.2135 11.1822 26.2038 13.0737 25.0925L44.8512 6.81572C46.7427 5.72809 49.0834 5.72809 50.9986 6.81572L82.5869 25.0925C84.4784 26.2038 85.6606 28.2371 85.637 30.4124L85.4951 66.8241C85.4951 69.0229 84.3129 71.0327 82.3978 72.1203L50.7622 90.1843C48.8706 91.2719 46.5535 91.2719 44.6857 90.1843L13.0737 72.1203C11.1822 71.0563 10 69.0229 10 66.8241Z" fill="white"/>
<path d="M13.3811 64.8376V31.6888C13.3811 29.7027 14.4451 27.8348 16.1711 26.8418L45.1113 10.1964C46.8373 9.2034 48.9652 9.2034 50.7149 10.1964L79.4896 26.8418C81.2156 27.8348 82.2796 29.7027 82.2796 31.6888L82.1377 64.8613C82.1377 66.8473 81.0501 68.6916 79.3241 69.6846L50.5257 86.1408C48.7997 87.1102 46.6954 87.1102 44.9931 86.1408L16.1947 69.6846C14.4451 68.6916 13.3811 66.8473 13.3811 64.8376Z" fill="#F4F6F8"/>
</g>
<path d="M62.4251 35.68C59.5999 34.4099 56.6175 33.509 53.5539 33C53.1346 33.7359 52.7553 34.493 52.4175 35.2682C49.1541 34.7853 45.8356 34.7853 42.5722 35.2682C42.2342 34.4931 41.8549 33.736 41.4358 33C38.3703 33.5132 35.3858 34.4164 32.5578 35.6866C26.9436 43.8427 25.4216 51.7962 26.1826 59.6368C29.4705 62.022 33.1505 63.8361 37.0628 65C37.9437 63.8366 38.7232 62.6024 39.393 61.3105C38.1208 60.8439 36.8929 60.2683 35.7235 59.5903C36.0313 59.3711 36.3323 59.1453 36.6231 58.9261C40.0258 60.4974 43.7397 61.312 47.4999 61.312C51.2601 61.312 54.974 60.4974 58.3767 58.9261C58.671 59.1619 58.972 59.3877 59.2764 59.5903C58.1047 60.2694 56.8745 60.8461 55.6 61.3138C56.269 62.6051 57.0486 63.8383 57.9303 65C61.8459 63.8407 65.5288 62.0276 68.8172 59.6401C69.7101 50.5475 67.2919 42.6671 62.4251 35.68ZM40.3569 54.8149C38.2364 54.8149 36.4845 52.9253 36.4845 50.6007C36.4845 48.276 38.1755 46.3699 40.3502 46.3699C42.5249 46.3699 44.2633 48.276 44.2261 50.6007C44.1889 52.9253 42.5181 54.8149 40.3569 54.8149ZM54.6429 54.8149C52.5189 54.8149 50.7738 52.9253 50.7738 50.6007C50.7738 48.276 52.4648 46.3699 54.6429 46.3699C56.821 46.3699 58.5458 48.276 58.5086 50.6007C58.4714 52.9253 56.8041 54.8149 54.6429 54.8149Z" fill="black"/>
<defs>
<filter id="filter0_d_159_274" x="0" y="0" width="95.6373" height="105" filterUnits="userSpaceOnUse" color-interpolation-filters="sRGB">
<feFlood flood-opacity="0" result="BackgroundImageFix"/>
<feColorMatrix in="SourceAlpha" type="matrix" values="0 0 0 0 0 0 0 0 0 0 0 0 0 0 0 0 0 0 127 0" result="hardAlpha"/>
<feOffset dy="4"/>
<feGaussianBlur stdDeviation="5"/>
<feComposite in2="hardAlpha" operator="out"/>
<feColorMatrix type="matrix" values="0 0 0 0 0 0 0 0 0 0 0 0 0 0 0 0 0 0 0.15 0"/>
<feBlend mode="normal" in2="BackgroundImageFix" result="effect1_dropShadow_159_274"/>
<feBlend mode="normal" in="SourceGraphic" in2="effect1_dropShadow_159_274" result="shape"/>
</filter>
</defs>
</svg>
