<svg width="74" height="75" viewBox="0 0 74 75" fill="none" xmlns="http://www.w3.org/2000/svg">
<path d="M36.8635 74.2649C57.2227 74.2649 73.727 57.7605 73.727 37.4013C73.727 17.0422 57.2227 0.537842 36.8635 0.537842C16.5044 0.537842 0 17.0422 0 37.4013C0 57.7605 16.5044 74.2649 36.8635 74.2649Z" fill="url(#paint0_linear_72_27)"/>
<path d="M57.3152 24.7771C56.0528 25.282 54.5378 25.787 53.2754 26.0395C54.0329 26.0395 54.7903 24.7771 55.2953 24.2721C55.8003 23.5146 56.3053 22.7572 56.5578 21.7472V21.4947H56.3053C54.7903 22.2522 53.2754 23.0096 51.508 23.2621C51.2555 23.2621 51.2555 23.2621 51.2555 23.2621C51.003 23.0096 51.003 23.0097 50.7505 22.7572C49.993 22.2522 49.2355 21.7472 48.4781 21.2422C47.4681 20.7372 46.2057 20.4847 44.9432 20.7372C43.6808 20.7372 42.6708 21.2422 41.6609 21.7472C40.6509 22.2522 39.641 23.0097 38.8835 24.0196C38.126 25.0296 37.621 26.0395 37.3685 27.302C37.116 28.5644 37.116 29.5744 37.3685 30.8368C37.3685 31.0893 37.3685 31.0893 37.116 31.0893C30.5513 30.0794 24.9965 27.807 20.4517 22.7572C20.1992 22.5047 20.1992 22.5047 19.9467 22.7572C17.9268 25.787 18.9368 30.3319 21.4617 32.6043C21.7142 32.8568 22.2192 33.1092 22.4716 33.6142C22.2192 33.6142 20.7042 33.3617 19.1893 32.6043C18.9368 32.6043 18.9368 32.6043 18.9368 32.8568C18.9368 33.1092 18.9368 33.3617 18.9368 33.8667C19.1893 36.8966 21.4617 39.674 24.2391 40.6839C24.4916 40.9364 24.9965 40.9364 25.249 40.9364C24.4915 41.1889 23.9866 41.1889 22.2191 40.9364C21.9667 40.9364 21.9666 40.9364 21.9666 41.1889C23.2291 44.9763 26.259 45.9862 28.5314 46.7437C28.7839 46.7437 29.0364 46.7437 29.5413 46.7437C28.7839 47.7537 26.259 48.7636 24.9965 49.0161C22.7241 49.7736 20.4517 50.0261 18.1793 49.7736C17.9268 49.7736 17.6743 49.7736 17.6743 49.7736V50.026C18.1793 50.2785 18.6843 50.531 19.1893 50.7835C20.7042 51.541 22.2192 52.2985 23.7341 52.5509C32.0663 54.8234 41.1559 53.0559 47.4681 46.9962C52.2654 42.1989 54.0329 35.6341 54.0329 28.8169C54.0329 28.5644 54.2854 28.3119 54.5378 28.3119C55.8003 27.302 56.8103 26.292 57.8202 25.0296C57.3152 25.2821 57.3152 25.0296 57.3152 24.7771Z" fill="white"/>
<defs>
<linearGradient id="paint0_linear_72_27" x1="62.948" y1="11.3578" x2="10.7389" y2="63.5671" gradientUnits="userSpaceOnUse">
<stop stop-color="#33CCFF"/>
<stop offset="1" stop-color="#337FFF"/>
</linearGradient>
</defs>
</svg>
