<svg width="96" height="105" viewBox="0 0 96 105" fill="none" xmlns="http://www.w3.org/2000/svg">
<g filter="url(#filter0_d_178_18)">
<path d="M10 66.8241V30.4124C10 28.2135 11.1822 26.2038 13.0737 25.0925L44.8512 6.81572C46.7427 5.72809 49.0834 5.72809 50.9986 6.81572L82.5869 25.0925C84.4784 26.2038 85.6606 28.2371 85.637 30.4124L85.4951 66.8241C85.4951 69.0229 84.3129 71.0327 82.3978 72.1203L50.7622 90.1843C48.8706 91.2719 46.5535 91.2719 44.6857 90.1843L13.0737 72.1203C11.1822 71.0563 10 69.0229 10 66.8241Z" fill="white"/>
<path d="M13.3811 64.8376V31.6888C13.3811 29.7027 14.4451 27.8348 16.1711 26.8418L45.1113 10.1964C46.8373 9.2034 48.9652 9.2034 50.7149 10.1964L79.4896 26.8418C81.2156 27.8348 82.2796 29.7027 82.2796 31.6888L82.1377 64.8613C82.1377 66.8473 81.0501 68.6916 79.3241 69.6846L50.5257 86.1408C48.7997 87.1102 46.6954 87.1102 44.9931 86.1408L16.1947 69.6846C14.4451 68.6916 13.3811 66.8473 13.3811 64.8376Z" fill="#F4F6F8"/>
</g>
<g clip-path="url(#clip0_178_18)">
<path d="M48 67C57.9411 67 66 58.9411 66 49C66 39.0589 57.9411 31 48 31C38.0589 31 30 39.0589 30 49C30 58.9411 38.0589 67 48 67Z" fill="#3C5A9A"/>
<path d="M53.8528 36.5249H49.8654C47.4991 36.5249 44.8671 37.5201 44.8671 40.9502C44.8787 42.1453 44.8671 43.2899 44.8671 44.5781H42.1296V48.9342H44.9518V61.4747H50.1377V48.8514H53.5606L53.8703 44.5659H50.0484C50.0484 44.5659 50.0569 42.6594 50.0484 42.1058C50.0484 40.7503 51.4588 40.828 51.5436 40.828C52.2148 40.828 53.5198 40.8299 53.8548 40.828V36.5249H53.8528Z" fill="white"/>
</g>
<defs>
<filter id="filter0_d_178_18" x="0" y="0" width="95.6375" height="105" filterUnits="userSpaceOnUse" color-interpolation-filters="sRGB">
<feFlood flood-opacity="0" result="BackgroundImageFix"/>
<feColorMatrix in="SourceAlpha" type="matrix" values="0 0 0 0 0 0 0 0 0 0 0 0 0 0 0 0 0 0 127 0" result="hardAlpha"/>
<feOffset dy="4"/>
<feGaussianBlur stdDeviation="5"/>
<feComposite in2="hardAlpha" operator="out"/>
<feColorMatrix type="matrix" values="0 0 0 0 0 0 0 0 0 0 0 0 0 0 0 0 0 0 0.15 0"/>
<feBlend mode="normal" in2="BackgroundImageFix" result="effect1_dropShadow_178_18"/>
<feBlend mode="normal" in="SourceGraphic" in2="effect1_dropShadow_178_18" result="shape"/>
</filter>
<clipPath id="clip0_178_18">
<rect width="36" height="36" fill="white" transform="translate(30 31)"/>
</clipPath>
</defs>
</svg>
