<svg width="74" height="75" viewBox="0 0 74 75" fill="none" xmlns="http://www.w3.org/2000/svg">
<path d="M37 74.5378C57.4345 74.5378 74 57.9724 74 37.5378C74 17.1033 57.4345 0.537842 37 0.537842C16.5655 0.537842 0 17.1033 0 37.5378C0 57.9724 16.5655 74.5378 37 74.5378Z" fill="url(#paint0_linear_72_13)"/>
<path d="M48.5735 23.5144C47.0585 23.5144 46.0486 24.5244 46.0486 26.0393C46.0486 27.5542 47.311 28.5642 48.5735 28.5642C50.0884 28.5642 51.0984 27.3018 51.0984 26.0393C51.3509 24.5244 50.0884 23.5144 48.5735 23.5144Z" fill="white"/>
<path d="M37.4637 26.7966C31.6564 26.7966 26.8591 31.5939 26.8591 37.4012C26.8591 43.2085 31.6564 48.0058 37.4637 48.0058C43.271 48.0058 48.0683 43.2085 48.0683 37.4012C48.0683 31.5939 43.271 26.7966 37.4637 26.7966ZM37.4637 44.2184C33.6764 44.2184 30.6465 41.1885 30.6465 37.4012C30.6465 33.6138 33.6764 30.584 37.4637 30.584C41.2511 30.584 44.2809 33.6138 44.2809 37.4012C44.2809 41.1885 41.2511 44.2184 37.4637 44.2184Z" fill="white"/>
<path d="M46.0463 59.4611H28.877C21.8073 59.4611 16 53.6538 16 46.5841V29.4148C16 22.3451 21.8073 16.5378 28.877 16.5378H46.0463C53.116 16.5378 58.9233 22.3451 58.9233 29.4148V46.5841C59.1758 53.6538 53.3685 59.4611 46.0463 59.4611ZM28.877 20.0727C23.8272 20.0727 20.0398 24.1125 20.0398 28.9098V46.0791C20.0398 51.1289 24.0797 54.9163 28.877 54.9163H46.0463C51.0961 54.9163 54.8834 50.8764 54.8834 46.0791V28.9098C54.8834 23.86 50.8436 20.0727 46.0463 20.0727H28.877Z" fill="white"/>
<defs>
<linearGradient id="paint0_linear_72_13" x1="63.2216" y1="11.3978" x2="10.8189" y2="63.8005" gradientUnits="userSpaceOnUse">
<stop offset="0.0011048" stop-color="#FBE18A"/>
<stop offset="0.2094" stop-color="#FCBB45"/>
<stop offset="0.3765" stop-color="#F75274"/>
<stop offset="0.5238" stop-color="#D53692"/>
<stop offset="0.7394" stop-color="#8F39CE"/>
<stop offset="1" stop-color="#5B4FE9"/>
</linearGradient>
</defs>
</svg>
