<svg width="96" height="105" viewBox="0 0 96 105" fill="none" xmlns="http://www.w3.org/2000/svg">
<g filter="url(#filter0_d_168_405)">
<path d="M10 66.8241V30.4124C10 28.2135 11.1822 26.2038 13.0737 25.0925L44.8512 6.81572C46.7427 5.72809 49.0834 5.72809 50.9986 6.81572L82.5869 25.0925C84.4784 26.2038 85.6606 28.2371 85.637 30.4124L85.4951 66.8241C85.4951 69.0229 84.3129 71.0327 82.3978 72.1203L50.7622 90.1843C48.8706 91.2719 46.5535 91.2719 44.6857 90.1843L13.0737 72.1203C11.1822 71.0563 10 69.0229 10 66.8241Z" fill="white"/>
<path d="M13.3811 64.8376V31.6888C13.3811 29.7027 14.4451 27.8348 16.1711 26.8418L45.1113 10.1964C46.8373 9.2034 48.9652 9.2034 50.7149 10.1964L79.4896 26.8418C81.2156 27.8348 82.2796 29.7027 82.2796 31.6888L82.1377 64.8613C82.1377 66.8473 81.0501 68.6916 79.3241 69.6846L50.5257 86.1408C48.7997 87.1102 46.6954 87.1102 44.9931 86.1408L16.1947 69.6846C14.4451 68.6916 13.3811 66.8473 13.3811 64.8376Z" fill="#F4F6F8"/>
</g>
<g clip-path="url(#clip0_168_405)">
<path d="M48 67C57.9411 67 66 58.9411 66 49C66 39.0589 57.9411 31 48 31C38.0589 31 30 39.0589 30 49C30 58.9411 38.0589 67 48 67Z" fill="#4353FF"/>
<path d="M53.2875 46.8625L51.6562 52.0038C51.6562 51.61 50.5312 43.0825 50.5312 43.0825C47.9437 43.0825 46.5712 44.9163 45.8512 46.8625L43.86 52.015C43.86 51.6438 43.5787 46.9075 43.5787 46.9075C43.4827 45.8822 43.014 44.9277 42.2613 44.2249C41.5087 43.522 40.5245 43.1196 39.495 43.0938L41.61 56.0088C44.31 56.0088 45.7725 54.175 46.5262 52.2288L48.2137 47.8413C48.2137 48.0213 49.3387 56.0088 49.3387 56.0088C50.4428 56.0073 51.5177 55.6544 52.4077 55.001C53.2977 54.3477 53.9566 53.4279 54.2887 52.375L58.1137 43.0825C55.4137 43.0825 53.9962 44.9163 53.2762 46.8625H53.2875Z" fill="white"/>
</g>
<defs>
<filter id="filter0_d_168_405" x="0" y="0" width="95.6373" height="105" filterUnits="userSpaceOnUse" color-interpolation-filters="sRGB">
<feFlood flood-opacity="0" result="BackgroundImageFix"/>
<feColorMatrix in="SourceAlpha" type="matrix" values="0 0 0 0 0 0 0 0 0 0 0 0 0 0 0 0 0 0 127 0" result="hardAlpha"/>
<feOffset dy="4"/>
<feGaussianBlur stdDeviation="5"/>
<feComposite in2="hardAlpha" operator="out"/>
<feColorMatrix type="matrix" values="0 0 0 0 0 0 0 0 0 0 0 0 0 0 0 0 0 0 0.15 0"/>
<feBlend mode="normal" in2="BackgroundImageFix" result="effect1_dropShadow_168_405"/>
<feBlend mode="normal" in="SourceGraphic" in2="effect1_dropShadow_168_405" result="shape"/>
</filter>
<clipPath id="clip0_168_405">
<rect width="36" height="36" fill="white" transform="translate(30 31)"/>
</clipPath>
</defs>
</svg>
