<svg width="50" height="50" viewBox="0 0 50 50" fill="none" xmlns="http://www.w3.org/2000/svg">
<path d="M16.4605 0H17.4457C17.4529 0 17.4529 0 17.4601 0C17.5536 0.0143823 17.6543 0.0431477 17.7477 0.0503389C19.5383 0.151015 21.0844 0.841364 22.3932 2.05667C23.5438 3.12815 24.2845 4.45851 24.867 5.89674C24.8885 5.94707 24.9173 5.99741 24.9461 6.05494C24.9748 6.10528 25.0539 6.11247 25.0899 6.06213C25.0899 6.06213 25.0899 6.05494 25.0971 6.05494C25.4279 5.36459 25.7011 4.63829 26.0895 3.9767C27.3048 1.93442 29.0594 0.604056 31.4109 0.136632C31.7489 0.0719121 32.1013 0.0431468 32.4464 0H32.4536H33.3309C33.3381 0 33.3381 0 33.3453 0C33.4891 0.0143823 33.633 0.0431477 33.7768 0.0503389C35.0424 0.151015 36.193 0.568101 37.0919 1.48138C38.2569 2.66791 38.5733 4.1421 38.4007 5.73853C38.2569 7.04013 37.6672 8.17633 36.9625 9.255C36.2577 10.3409 35.3948 11.2973 34.4815 12.2034C34.4384 12.2465 34.4024 12.2897 34.3521 12.34C34.3017 12.3975 34.3449 12.4838 34.4168 12.4838C34.5031 12.4838 34.5678 12.4838 34.611 12.4838C39.3571 12.4694 43.9882 12.4838 48.8566 12.4766C49.0436 12.4766 49.5685 12.4551 49.849 12.793C49.9425 12.9081 49.9784 13.0232 50 13.1023C50 13.1095 50 13.1166 50 13.1238C49.9928 15.8061 49.9928 18.4884 50 21.1707C50 21.5734 50 22.048 50 22.4867C50 22.7312 49.7986 22.9325 49.5541 22.9325C49.3456 22.9325 49.1443 22.9325 48.9357 22.9325C48.6337 22.9325 48.3317 22.9325 48.0296 22.9325C47.9865 22.9325 47.9433 22.9685 47.9433 23.0188C47.9433 23.1914 47.9433 23.515 47.9433 23.6013C47.9433 30.548 47.9433 37.4874 47.9361 44.4341C47.9361 45.9298 47.8858 47.4328 47.8283 48.9285C47.7995 49.7196 47.6125 49.8634 46.8215 49.8921C46.7928 49.8921 46.764 49.8921 46.7352 49.8921C43.83 49.9209 40.9176 49.9712 38.0124 49.9712C29.8432 49.9856 21.6813 49.9784 13.5122 49.9784C10.4919 49.9784 7.4716 49.9497 4.45851 49.9281C3.94075 49.9281 3.42298 49.9065 2.90522 49.8706C2.43061 49.8346 2.2724 49.6764 2.20049 49.209C2.17892 49.0939 2.16453 48.9717 2.15734 48.8494C2.12858 48.0368 2.07824 47.2242 2.07105 46.4044C2.05667 41.5792 2.04948 36.7539 2.04228 31.9359C2.04228 30.2172 2.08543 27.2472 2.04948 23.2418C2.04948 23.1555 2.04948 23.0117 2.04948 22.9325C1.6252 22.9325 1.20092 22.9325 0.776643 22.9325H0.445851C0.201352 22.9325 0 22.7312 0 22.4867V22.1199V20.8399C0 18.7689 0.00719114 15.9068 0 13.4762C0 12.9944 0.510571 12.4838 0.992378 12.4838C5.78168 12.4838 10.5638 12.4838 15.3531 12.4838C15.425 12.4838 15.4897 12.4838 15.5832 12.4838C15.6551 12.4838 15.6983 12.3975 15.6479 12.34C15.5976 12.2897 15.5616 12.2465 15.5185 12.2034C14.3391 11.0312 13.2677 9.77276 12.4766 8.29139C11.8366 7.09047 11.4627 5.83202 11.5777 4.45132C11.6712 3.33669 12.1027 2.3515 12.793 1.59643C13.5481 0.776644 14.4686 0.460233 14.9288 0.294837C15.5472 0.107868 16.0794 0.0287646 16.4605 0ZM45.937 22.9397C45.786 22.9397 45.6853 22.9397 45.5846 22.9397C40.2704 22.9397 34.9561 22.9397 29.6419 22.9325C29.3686 22.9325 29.3255 23.0332 29.3255 23.2705C29.3327 31.3606 29.3327 39.4578 29.3327 47.5478C29.3327 47.9433 29.3327 47.9433 29.721 47.9433C35.0352 47.9433 40.3495 47.9433 45.6637 47.9505C45.9154 47.9505 45.9442 47.857 45.9442 47.6413C45.937 39.5225 45.9442 31.4037 45.9442 23.2777C45.937 23.177 45.937 23.0836 45.937 22.9397ZM20.9406 35.4236C20.9406 31.3678 20.9406 27.312 20.9478 23.2561C20.9478 23.0045 20.8759 22.9254 20.6242 22.9325C18.6035 22.9397 16.59 22.9397 14.5693 22.9397C11.2757 22.9397 7.97498 22.9397 4.68143 22.9325C4.39379 22.9325 4.32188 23.0117 4.32907 23.2921C4.35064 24.0472 4.33626 24.8094 4.33626 25.5717C4.33626 32.921 4.33626 40.2704 4.32907 47.6269C4.32907 47.8786 4.39379 47.9505 4.65267 47.9505C9.96692 47.9433 15.2812 47.9433 20.5954 47.9505C20.8831 47.9505 20.9478 47.8714 20.9478 47.591C20.9334 43.5352 20.9406 39.4794 20.9406 35.4236ZM20.919 14.5549C20.7896 14.5549 20.6817 14.5549 20.5739 14.5549C17.4241 14.5549 14.2744 14.5405 11.1319 14.5477C8.26981 14.5549 5.40774 14.5836 2.54566 14.5908C2.28678 14.5908 2.22206 14.6843 2.22206 14.9288C2.21487 16.7985 2.20049 18.6682 2.18611 20.5379C2.18611 20.6098 2.20049 20.6817 2.20049 20.7608H20.919V14.5549ZM29.3327 14.5908C29.3327 14.7059 29.3327 14.8066 29.3327 14.9072C29.3327 16.7554 29.3399 18.6107 29.3255 20.4588C29.3255 20.7249 29.3974 20.7968 29.6635 20.7968C35.6824 20.7896 41.7014 20.7896 47.7132 20.7896C47.8283 20.7896 47.9433 20.7824 48.0368 20.7752V14.5836H29.3327V14.5908ZM23.1051 22.9541V47.9218H27.1681V22.9541H23.1051ZM28.4122 12.4982C28.8652 12.4982 29.3255 12.4622 29.7713 12.5054C30.4617 12.5773 31.0442 12.3328 31.5907 11.9661C33.3453 10.7939 34.7332 9.27657 35.7975 7.46441C36.3368 6.54394 36.5526 5.55156 36.4231 4.48008C36.2865 3.33669 35.74 2.61038 34.6253 2.31555C34.086 2.17173 33.5107 2.07824 32.957 2.08543C30.814 2.107 29.2032 3.12815 28.0886 4.90436C26.6791 7.15519 26.334 9.70085 26.2045 12.2969C26.1973 12.4838 26.2908 12.5054 26.4418 12.5054C27.0962 12.491 27.7506 12.4982 28.4122 12.4982ZM24.0831 12.4982C24.0544 12.1458 24.0328 11.8366 24.0112 11.5202C23.889 9.90939 23.6445 8.32015 23.0836 6.79563C22.6449 5.59471 22.084 4.45851 21.106 3.58838C19.4736 2.15015 17.5967 1.74745 15.5185 2.34431C14.7059 2.58162 14.1306 3.11376 13.9364 3.9767C13.7926 4.61671 13.7638 5.25672 13.8861 5.90393C14.0299 6.68057 14.3895 7.37811 14.8209 8.02531C16.0434 9.83029 17.4745 11.4339 19.4952 12.3831C19.6462 12.4551 19.8044 12.491 19.9698 12.491C21.2282 12.4982 22.4867 12.4982 23.7451 12.4982C23.853 12.4982 23.9537 12.4982 24.0831 12.4982ZM23.0979 20.768H27.1681V14.5693H23.0979V20.768Z" fill="white"/>
</svg>
