<svg width="84" height="64" viewBox="0 0 84 64" fill="none" xmlns="http://www.w3.org/2000/svg">
<path d="M84 6.2402C84 23.0887 84 39.9251 84 56.7736C83.7695 57.5257 83.624 58.3263 83.2722 59.0177C81.9136 61.7226 79.6453 62.9963 76.6492 63.0084C71.3727 63.0206 66.0962 63.0084 60.8196 63.0084C43.0492 63.0084 25.2788 63.0084 7.50845 63.0084C5.57978 63.0084 3.8452 62.5232 2.37747 61.2253C1.01892 60.0366 0.351769 58.4839 0 56.7736C0 39.9251 0 23.0887 0 6.2402C0.230469 5.48814 0.376029 4.68756 0.727798 3.99615C2.08635 1.29117 4.35466 0.0175211 7.35076 0.0053911C12.603 -0.00673887 17.8553 0.0053911 23.0955 0.0053911C40.8901 0.0053911 58.6969 0.0053911 76.4915 0.0053911C78.4202 0.0053911 80.1548 0.490591 81.6225 1.7885C82.9932 2.97723 83.6482 4.51774 84 6.2402ZM77.6439 3.72929C76.4915 3.34113 7.0839 3.42604 6.42888 3.78994C6.63509 3.98402 6.82917 4.16597 7.02325 4.36005C15.4657 12.0626 23.9082 19.7651 32.3506 27.4676C34.6674 29.5904 36.9843 31.7131 39.3253 33.8116C41.1327 35.4249 42.843 35.4128 44.6625 33.8116C44.7596 33.7267 44.8687 33.6297 44.9658 33.5326C52.0982 27.031 59.2306 20.5414 66.363 14.0398C70.1112 10.6191 73.8351 7.21059 77.6439 3.72929ZM77.6196 59.4422C77.656 59.3452 77.6924 59.2603 77.7288 59.1632C68.51 50.6722 59.2913 42.1691 50.0604 33.6539C48.9929 34.6243 48.0832 35.437 47.1734 36.2619C43.8619 39.2458 40.138 39.2458 36.8266 36.2497C35.9168 35.4249 35.0071 34.6 33.9396 33.6539C24.6845 42.1813 15.4536 50.6844 6.2348 59.1875C6.28332 59.2724 6.34397 59.3573 6.39249 59.4422C30.1308 59.4422 53.8813 59.4422 77.6196 59.4422ZM3.6026 56.8585C12.9063 48.2705 22.1008 39.7917 31.3438 31.2764C22.1857 22.9189 12.9791 14.5128 3.6026 5.94907C3.6026 23.0523 3.6026 39.9008 3.6026 56.8585ZM52.6562 31.2764C61.9356 39.8281 71.1059 48.2948 80.3853 56.8585C80.3853 39.8766 80.3853 23.0402 80.3853 5.9612C71.0088 14.525 61.8143 22.9189 52.6562 31.2764Z" fill="#4B79C9"/>
</svg>
