<svg width="96" height="105" viewBox="0 0 96 105" fill="none" xmlns="http://www.w3.org/2000/svg">
<g filter="url(#filter0_d_168_439)">
<path d="M10 66.8241V30.4124C10 28.2135 11.1822 26.2038 13.0737 25.0925L44.8512 6.81572C46.7427 5.72809 49.0834 5.72809 50.9986 6.81572L82.5869 25.0925C84.4784 26.2038 85.6606 28.2371 85.637 30.4124L85.4951 66.8241C85.4951 69.0229 84.3129 71.0327 82.3978 72.1203L50.7622 90.1843C48.8706 91.2719 46.5535 91.2719 44.6857 90.1843L13.0737 72.1203C11.1822 71.0563 10 69.0229 10 66.8241Z" fill="white"/>
<path d="M13.3811 64.8376V31.6888C13.3811 29.7027 14.4451 27.8348 16.1711 26.8418L45.1113 10.1964C46.8373 9.2034 48.9652 9.2034 50.7149 10.1964L79.4896 26.8418C81.2156 27.8348 82.2796 29.7027 82.2796 31.6888L82.1377 64.8613C82.1377 66.8473 81.0501 68.6916 79.3241 69.6846L50.5257 86.1408C48.7997 87.1102 46.6954 87.1102 44.9931 86.1408L16.1947 69.6846C14.4451 68.6916 13.3811 66.8473 13.3811 64.8376Z" fill="#F4F6F8"/>
</g>
<path d="M65.5358 48.8507C64.5261 47.0977 63.1059 45.6924 61.3303 44.6344C60.0035 43.8549 58.6276 43.3602 57.0771 43.1477V37.5778C58.6276 36.9135 59.5898 35.4431 59.5898 33.7277C59.5898 31.3896 57.7317 29.4949 55.4166 29.4949C53.0996 29.4949 51.209 31.3896 51.209 33.7277C51.209 35.4431 52.1157 36.9135 53.6662 37.5778V43.1503C52.4258 43.3311 51.1396 43.7213 49.9649 44.3209C47.5658 42.4822 39.6988 36.4501 35.0968 32.927C35.2059 32.5299 35.29 32.1206 35.29 31.6887C35.29 29.099 33.2117 27 30.6445 27C28.0773 27 26 29.099 26 31.6887C26 34.2781 28.0795 36.3778 30.6467 36.3778C31.5224 36.3778 32.3323 36.1193 33.0313 35.6944L34.0025 36.4379L47.3475 46.1408C46.642 46.7945 45.9849 47.538 45.4593 48.3722C44.3942 50.0729 43.7433 51.9441 43.7433 53.9853V54.4112C43.7433 55.844 44.0131 57.1968 44.4726 58.4675C44.8773 59.5771 45.469 60.586 46.2017 61.4981L41.7727 65.9785C41.1308 65.7374 40.4337 65.6879 39.7647 65.8359C39.0957 65.984 38.4831 66.3233 38.0001 66.8133C37.6657 67.1491 37.4007 67.5485 37.2203 67.9885C37.04 68.4284 36.948 68.9 36.9496 69.3761C36.9499 70.344 37.3235 71.2536 38.002 71.9379C38.3345 72.2757 38.7302 72.5434 39.166 72.7257C39.6019 72.908 40.0692 73.0013 40.541 73C41.0129 73.0012 41.4804 72.908 41.9164 72.7257C42.3524 72.5434 42.7482 72.2756 43.081 71.9379C43.4152 71.6022 43.6801 71.2029 43.8606 70.7632C44.041 70.3234 44.1333 69.852 44.1322 69.3761C44.1322 69.0015 44.0748 68.6361 43.9669 68.2887L48.5447 63.6685C49.1724 64.106 49.8502 64.4743 50.5789 64.7919C52.0162 65.419 53.6026 65.801 55.3388 65.801H55.6569C57.5764 65.801 59.387 65.346 61.0891 64.4154C62.8826 63.4319 64.2864 62.087 65.3469 60.37C66.413 58.6484 67 56.7462 67 54.6534V54.5489C67 52.4902 66.5277 50.5908 65.5358 48.8507ZM59.9424 58.5426C58.6998 59.936 57.2716 60.7944 55.6569 60.7944H55.3909C54.4687 60.7944 53.5666 60.5371 52.6835 60.0693C51.6881 59.5543 50.9315 58.8195 50.3122 57.8892C49.6722 56.9762 49.3249 55.9792 49.3249 54.9222V54.6011C49.3249 53.5619 49.5224 52.5765 50.0204 51.6459C50.5529 50.6286 51.272 49.8376 52.2283 49.2086C53.1672 48.584 54.1701 48.2777 55.287 48.2777H55.3909C56.4036 48.2777 57.3624 48.4792 58.2673 48.9464C59.1892 49.4446 59.9424 50.1252 60.5263 51.0204C61.0934 51.916 61.4308 52.882 61.5393 53.9343C61.5564 54.153 61.5651 54.3771 61.5651 54.5911C61.5651 56.0193 61.0243 57.342 59.9424 58.5426Z" fill="#F8761F"/>
<defs>
<filter id="filter0_d_168_439" x="0" y="0" width="95.6375" height="105" filterUnits="userSpaceOnUse" color-interpolation-filters="sRGB">
<feFlood flood-opacity="0" result="BackgroundImageFix"/>
<feColorMatrix in="SourceAlpha" type="matrix" values="0 0 0 0 0 0 0 0 0 0 0 0 0 0 0 0 0 0 127 0" result="hardAlpha"/>
<feOffset dy="4"/>
<feGaussianBlur stdDeviation="5"/>
<feComposite in2="hardAlpha" operator="out"/>
<feColorMatrix type="matrix" values="0 0 0 0 0 0 0 0 0 0 0 0 0 0 0 0 0 0 0.15 0"/>
<feBlend mode="normal" in2="BackgroundImageFix" result="effect1_dropShadow_168_439"/>
<feBlend mode="normal" in="SourceGraphic" in2="effect1_dropShadow_168_439" result="shape"/>
</filter>
</defs>
</svg>
