<svg width="75" height="76" viewBox="0 0 75 76" fill="none" xmlns="http://www.w3.org/2000/svg">
<path d="M37.5194 75.9479C58.2193 75.9479 74.9999 59.1673 74.9999 38.4674C74.9999 17.7674 58.2193 0.986816 37.5194 0.986816C16.8195 0.986816 0.0388184 17.7674 0.0388184 38.4674C0.0388184 59.1673 16.8195 75.9479 37.5194 75.9479Z" fill="url(#paint0_linear_72_36)"/>
<path fill-rule="evenodd" clip-rule="evenodd" d="M47.5316 31.5359C50.6122 33.8464 54.4629 35.1299 58.3136 35.1299V27.4285C57.5435 27.4285 56.7734 27.4285 56.0032 27.1717V33.3329C51.8957 33.3329 48.3017 32.0493 45.2211 29.7389V45.6553C45.2211 53.6135 38.8032 60.0314 30.845 60.0314C27.7644 60.0314 25.1973 59.0045 22.8868 57.4642C25.454 60.0314 29.048 61.8284 33.1555 61.8284C41.1137 61.8284 47.5316 55.4105 47.5316 47.4523V31.5359ZM50.3555 23.8344C48.8152 22.0374 47.7883 19.9837 47.5316 17.4165V16.3896H45.4778C45.9913 19.4702 47.7883 22.0374 50.3555 23.8344ZM27.7644 51.5598C26.9943 50.5329 26.4809 48.9926 26.4809 47.4523C26.4809 43.8583 29.5615 40.7777 33.1555 40.7777C33.9256 40.7777 34.439 40.7777 35.2092 41.0344V33.0762C34.439 33.0762 33.6689 32.8195 32.8988 32.8195V38.9807C32.1286 38.724 31.6152 38.724 30.845 38.724C27.251 38.724 24.1704 41.8046 24.1704 45.3986C24.1704 48.2225 25.7107 50.5329 27.7644 51.5598Z" fill="#EE1D52"/>
<path fill-rule="evenodd" clip-rule="evenodd" d="M45.2213 29.7389C48.3019 32.0493 52.1527 33.3329 56.0034 33.3329V27.1717C53.693 26.6583 51.6392 25.6314 50.0989 23.8344C47.5318 22.2941 45.7348 19.4702 45.2213 16.3896H39.5736V47.709C39.5736 51.3031 36.493 54.3836 32.8989 54.3836C30.8452 54.3836 28.7915 53.3568 27.5079 51.8165C25.4542 50.7896 23.9139 48.4792 23.9139 45.912C23.9139 42.318 26.9945 39.2374 30.5885 39.2374C31.3587 39.2374 31.8721 39.2374 32.6422 39.4941V33.3329C24.684 33.5896 18.5228 40.0075 18.5228 47.709C18.5228 51.5598 20.0631 55.1538 22.6303 57.7209C24.9407 59.2612 27.7646 60.2881 30.5885 60.2881C38.5467 60.2881 44.9646 53.8702 44.9646 45.912V29.7389H45.2213Z" fill="white"/>
<path fill-rule="evenodd" clip-rule="evenodd" d="M56.26 27.1719V25.6316C54.2063 25.6316 52.1525 25.1181 50.3555 24.0913C51.8958 25.3748 53.9496 26.6584 56.26 27.1719ZM45.4779 16.3898C45.4779 16.1331 45.4779 15.8764 45.4779 15.6196V14.5928H37.5197V45.6554C37.5197 49.2495 34.4391 52.33 30.8451 52.33C29.8182 52.33 28.7914 52.0733 27.7645 51.5599C29.0481 53.1002 30.8451 54.1271 33.1555 54.1271C36.7496 54.1271 39.8301 51.3032 39.8301 47.4524V16.3898H45.4779ZM32.8988 33.0763V31.2793C32.1287 31.2793 31.6152 31.0226 30.8451 31.0226C22.8869 31.0226 16.469 37.4405 16.469 45.3987C16.469 50.2763 19.0362 54.8972 22.8869 57.4644C20.3197 54.8972 18.7794 51.3032 18.7794 47.4524C18.7794 39.7509 24.9406 33.333 32.8988 33.0763Z" fill="#69C9D0"/>
<defs>
<linearGradient id="paint0_linear_72_36" x1="10.8828" y1="11.9879" x2="63.966" y2="65.0711" gradientUnits="userSpaceOnUse">
<stop stop-color="#22004A"/>
<stop offset="0.9565" stop-color="#020003"/>
<stop offset="1"/>
</linearGradient>
</defs>
</svg>
