<svg width="25" height="25" viewBox="0 0 25 25" fill="none" xmlns="http://www.w3.org/2000/svg">
<path d="M17.8722 0H6.81182C3.05579 0 0 3.09502 0 6.8991V18.1009C0 21.9051 3.05579 25 6.81182 25H17.8722C21.6285 25 24.6843 21.905 24.6843 18.1009V6.8991C24.6844 3.09502 21.6285 0 17.8722 0ZM22.4943 18.1009C22.4943 20.6821 20.4209 22.7819 17.8723 22.7819H6.81182C4.26341 22.782 2.19011 20.6821 2.19011 18.1009V6.8991C2.19011 4.31809 4.26341 2.21812 6.81182 2.21812H17.8722C20.4207 2.21812 22.4942 4.31809 22.4942 6.8991V18.1009H22.4943Z" fill="white"/>
<path d="M12.3423 6.05859C8.83509 6.05859 5.98181 8.94836 5.98181 12.5005C5.98181 16.0524 8.83509 18.942 12.3423 18.942C15.8496 18.942 18.7028 16.0524 18.7028 12.5005C18.7028 8.94836 15.8496 6.05859 12.3423 6.05859ZM12.3423 16.7238C10.0429 16.7238 8.17192 14.8292 8.17192 12.5003C8.17192 10.1713 10.0427 8.27657 12.3423 8.27657C14.6419 8.27657 16.5127 10.1713 16.5127 12.5003C16.5127 14.8292 14.6418 16.7238 12.3423 16.7238Z" fill="white"/>
<path d="M18.9695 4.17773C18.5475 4.17773 18.133 4.35075 17.835 4.65389C17.5355 4.95556 17.3634 5.37552 17.3634 5.80436C17.3634 6.23186 17.5357 6.65168 17.835 6.95482C18.1329 7.25649 18.5475 7.43098 18.9695 7.43098C19.3929 7.43098 19.8061 7.25649 20.1054 6.95482C20.4047 6.65168 20.5756 6.23171 20.5756 5.80436C20.5756 5.37552 20.4047 4.95556 20.1054 4.65389C19.8076 4.35075 19.3929 4.17773 18.9695 4.17773Z" fill="white"/>
</svg>
