<svg width="42" height="42" viewBox="0 0 42 42" fill="none" xmlns="http://www.w3.org/2000/svg">
<path d="M0.99994 35.6239C-0.333314 34.0609 -0.333314 31.7866 0.99994 30.0164C-0.249285 28.8288 -0.0308102 27.3106 0.193266 25.8485C0.383731 24.5881 1.59374 23.7534 2.9438 23.7478C7.25167 23.7422 11.5539 23.7422 15.8618 23.7534C16.2427 23.7534 16.4332 23.6694 16.5957 23.2885C18.786 18.2636 23.9173 15.0985 29.396 15.373C35.9558 15.7035 41.2833 20.8741 41.9331 27.3947C42.6837 34.9292 37.0034 40.7216 30.7181 41.7468C28.4549 42.1165 26.2589 41.9148 24.1246 41.0745C23.9005 40.9849 23.7661 41.0185 23.5924 41.181C23.0434 41.6851 22.3824 41.9092 21.6374 41.9092C15.4136 41.9092 9.18433 41.9092 2.96061 41.9036C1.28004 41.9036 0.0868299 40.6936 0.081228 39.0074C0.081228 38.7441 0.081228 38.4808 0.081228 38.2232C0.0756261 36.9347 0.187664 36.6154 0.99994 35.6239ZM28.679 40.5199C35.1884 40.5367 40.6614 35.2261 40.5606 28.7503C40.443 21.0253 34.757 16.8575 28.7686 16.8295C22.7914 16.8015 17.0326 20.9133 16.8589 28.6831C16.7189 35.1365 22.1695 40.5031 28.679 40.5199ZM22.3824 40.3911C22.3096 40.2959 22.2984 40.2679 22.276 40.2511C20.601 39.2875 19.1781 38.0439 18.0241 36.4922C17.9569 36.3969 17.7833 36.3297 17.66 36.3297C12.7303 36.3241 7.80066 36.3185 2.87098 36.3241C2.0643 36.3241 1.48731 36.9347 1.4705 37.747C1.4593 38.1839 1.4649 38.6209 1.4705 39.0578C1.4817 39.9205 2.0643 40.5087 2.9326 40.5087C9.17312 40.5143 15.4136 40.5143 21.6486 40.5031C21.8839 40.5143 22.1135 40.4415 22.3824 40.3911ZM15.4921 30.7446C11.3018 30.7446 7.0444 30.739 2.78135 30.7502C2.06991 30.7502 1.50411 31.3608 1.4705 32.0779C1.4537 32.47 1.4649 32.8621 1.4649 33.2543C1.4649 34.4083 1.98588 34.9292 3.13987 34.9292C7.60459 34.9292 12.0693 34.9292 16.534 34.9292C16.6741 34.9292 16.8141 34.9292 16.8869 34.9292C16.4332 33.5456 15.9738 32.1787 15.4921 30.7446ZM15.8002 25.1539C15.5929 25.1539 15.3464 25.1539 15.1055 25.1539C11.061 25.1539 7.02199 25.1539 2.97741 25.1539C2.0587 25.1539 1.4817 25.7365 1.4705 26.6496C1.4649 26.9969 1.4705 27.3499 1.4705 27.6972C1.4705 28.8176 2.00268 29.3441 3.13427 29.3441C7.07801 29.3441 11.0162 29.3441 14.9599 29.3441C15.1167 29.3441 15.2736 29.3441 15.3576 29.3441C15.5033 27.9269 15.6489 26.56 15.8002 25.1539Z" fill="white"/>
<path d="M13.3466 11.3453C13.3466 12.3088 13.3466 13.2051 13.3466 14.107C13.3466 15.4739 13.3522 16.8407 13.3466 18.2076C13.341 19.5353 12.4558 20.4148 11.1226 20.426C10.2655 20.4316 9.40841 20.4316 8.54572 20.426C7.24608 20.4148 6.36658 19.5241 6.36097 18.2188C6.35537 16.1069 6.36097 14.0006 6.36097 11.8887C6.36097 11.7318 6.36097 11.5693 6.36097 11.3453C6.05287 11.3453 5.77277 11.3509 5.48708 11.3453C3.71687 11.3117 2.73654 9.57506 3.66085 8.06255C5.10615 5.70975 6.56825 3.36815 8.05275 1.03216C8.92665 -0.340311 10.7697 -0.345914 11.6492 1.02655C13.1393 3.36815 14.6126 5.72095 16.0635 8.09056C16.971 9.57506 15.9795 11.3061 14.2317 11.3397C13.9516 11.3453 13.6771 11.3453 13.3466 11.3453ZM7.75585 14.4487C7.75585 15.6699 7.75585 16.8912 7.75585 18.1124C7.75585 18.7846 7.99673 19.0199 8.68016 19.0255C9.40841 19.0311 10.1367 19.0255 10.8593 19.0255C11.7556 19.0255 11.9405 18.8406 11.9405 17.9611C11.9405 15.6027 11.9405 13.2499 11.9405 10.8915C11.9405 10.1521 12.1533 9.94479 12.904 9.93919C13.341 9.93919 13.7779 9.95039 14.2148 9.93359C14.9039 9.91118 15.212 9.37339 14.8479 8.7908C13.4026 6.4548 11.9461 4.12441 10.484 1.79962C10.1255 1.23382 9.55406 1.23943 9.19554 1.81642C7.74465 4.13001 6.29375 6.4492 4.85406 8.76839C4.47873 9.379 4.77563 9.91118 5.49268 9.93359C5.94083 9.94479 6.39459 9.93359 6.84274 9.93919C7.52617 9.94479 7.74465 10.1689 7.74465 10.8635C7.76145 12.0623 7.75585 13.2555 7.75585 14.4487Z" fill="white"/>
<path d="M26.5951 36.3298C26.2309 36.3298 25.9004 36.3354 25.5643 36.3298C24.4047 36.2962 23.486 35.3663 23.4916 34.2291C23.4972 33.0863 24.4159 32.162 25.5811 32.1452C26.6735 32.134 27.7659 32.1452 28.8526 32.1396C29.4016 32.1396 29.7321 31.8819 29.7433 31.4561C29.7545 31.0136 29.4184 30.7279 28.8414 30.7447C27.5026 30.7839 26.2757 30.4982 25.2226 29.6187C22.5225 27.3555 23.0715 22.9524 26.2477 21.4455C26.4438 21.3503 26.6063 21.2999 26.6063 20.9974C26.6119 19.8378 27.4353 18.9751 28.5613 18.8854C29.5921 18.8014 30.522 19.5353 30.7573 20.6108C30.7797 20.7117 30.7909 20.8125 30.8133 20.9582C31.1382 20.9582 31.4687 20.9526 31.7992 20.9582C32.9924 20.9806 33.9224 21.9049 33.9168 23.0589C33.9111 24.2185 32.9812 25.1316 31.7824 25.1428C30.7069 25.154 29.6313 25.1428 28.5501 25.1484C27.9955 25.1484 27.6706 25.4005 27.6594 25.8262C27.6482 26.2688 27.9843 26.5096 28.5557 26.5489C29.2168 26.5937 29.9058 26.6049 30.5332 26.7841C32.4883 27.3499 33.7263 29.0473 33.8887 31.2601C34.0288 33.1759 32.9476 34.9853 31.1438 35.8368C30.9477 35.932 30.7853 35.9825 30.7853 36.285C30.7797 37.4278 29.9842 38.2792 28.875 38.3969C27.8387 38.5033 26.8696 37.7639 26.6343 36.6715C26.6343 36.5763 26.6231 36.4754 26.5951 36.3298ZM27.4129 33.5344C26.8471 33.5344 26.2757 33.5288 25.71 33.5344C25.2058 33.54 24.8809 33.8201 24.8865 34.2347C24.8921 34.6492 25.2114 34.9237 25.7212 34.9293C26.2477 34.9349 26.7687 34.9181 27.2953 34.9349C27.7322 34.9461 27.9899 35.2094 28.0179 35.6464C28.0291 35.8648 28.0123 36.0833 28.0235 36.3018C28.046 36.7163 28.3316 37.0076 28.707 37.0132C29.0935 37.0244 29.396 36.7163 29.4184 36.285C29.424 36.1561 29.4184 36.0217 29.4184 35.8928C29.4184 35.0862 29.4744 35.0077 30.2251 34.7108C31.6536 34.1618 32.5275 32.991 32.5611 31.5906C32.6115 29.4226 30.9197 27.8429 28.6398 27.9325C27.3233 27.9829 26.3318 27.1203 26.2982 25.8878C26.2645 24.6778 27.2393 23.7535 28.5557 23.7535C29.6201 23.7535 30.6789 23.7591 31.7432 23.7535C32.2418 23.7479 32.5667 23.451 32.5499 23.0365C32.5331 22.6331 32.225 22.3698 31.7432 22.3586C31.2502 22.353 30.7517 22.3586 30.2587 22.3586C29.6817 22.353 29.4352 22.1009 29.424 21.5351C29.4184 21.3167 29.4464 21.0926 29.4072 20.8797C29.3456 20.5044 29.0991 20.2747 28.7182 20.2803C28.3373 20.2859 28.0964 20.5156 28.0347 20.8909C28.0067 21.059 28.0291 21.2382 28.0291 21.4119C28.0291 22.1906 27.9563 22.2914 27.2393 22.5547C25.301 23.2717 24.4103 25.2156 25.161 27.1203C25.6651 28.4031 26.9368 29.5067 28.9255 29.3554C30.1299 29.2658 31.1046 30.1901 31.1494 31.3777C31.1942 32.5373 30.2475 33.512 29.0375 33.5288C28.4885 33.5456 27.9507 33.5344 27.4129 33.5344Z" fill="white"/>
</svg>
