<svg width="96" height="105" viewBox="0 0 96 105" fill="none" xmlns="http://www.w3.org/2000/svg">
<g filter="url(#filter0_d_178_19)">
<path d="M10 66.8241V30.4124C10 28.2135 11.1822 26.2038 13.0737 25.0925L44.8512 6.81572C46.7427 5.72809 49.0834 5.72809 50.9986 6.81572L82.5869 25.0925C84.4784 26.2038 85.6606 28.2371 85.637 30.4124L85.4951 66.8241C85.4951 69.0229 84.3129 71.0327 82.3978 72.1203L50.7622 90.1843C48.8706 91.2719 46.5535 91.2719 44.6857 90.1843L13.0737 72.1203C11.1822 71.0563 10 69.0229 10 66.8241Z" fill="white"/>
<path d="M13.3811 64.8376V31.6888C13.3811 29.7027 14.4451 27.8348 16.1711 26.8418L45.1113 10.1964C46.8373 9.2034 48.9652 9.2034 50.7149 10.1964L79.4896 26.8418C81.2156 27.8348 82.2796 29.7027 82.2796 31.6888L82.1377 64.8613C82.1377 66.8473 81.0501 68.6916 79.3241 69.6846L50.5257 86.1408C48.7997 87.1102 46.6954 87.1102 44.9931 86.1408L16.1947 69.6846C14.4451 68.6916 13.3811 66.8473 13.3811 64.8376Z" fill="#F4F6F8"/>
</g>
<path d="M43.3782 63C55.8316 63 62.6419 52.6134 62.6419 43.6064C62.6419 43.3115 62.6359 43.0178 62.6227 42.7254C63.9479 41.7601 65.0915 40.5649 66 39.1959C64.7868 39.7388 63.4814 40.1043 62.1119 40.269C63.5098 39.4252 64.5829 38.0903 65.0892 36.499C63.7601 37.2928 62.3062 37.8523 60.79 38.1535C59.5545 36.8286 57.7955 36 55.8479 36C52.1089 36 49.077 39.0525 49.077 42.8151C49.077 43.3501 49.1365 43.8702 49.2526 44.3693C43.6255 44.0843 38.6358 41.372 35.2965 37.2478C34.695 38.288 34.3786 39.4702 34.3797 40.6737C34.3797 43.0385 35.5749 45.1261 37.3926 46.3474C36.3174 46.3144 35.2659 46.022 34.3263 45.4949C34.3253 45.5235 34.3253 45.5514 34.3253 45.582C34.3253 48.8829 36.659 51.639 39.757 52.2635C39.1752 52.423 38.5748 52.5037 37.9717 52.5033C37.5362 52.5033 37.1118 52.4602 36.6993 52.3805C37.5612 55.0887 40.0607 57.0595 43.024 57.1146C40.7067 58.9431 37.7876 60.0322 34.615 60.0322C34.0753 60.0327 33.536 60.0012 33 59.9378C35.9964 61.8713 39.5544 62.9995 43.3785 62.9995" fill="#1DA1F2"/>
<defs>
<filter id="filter0_d_178_19" x="0" y="0" width="95.6373" height="105" filterUnits="userSpaceOnUse" color-interpolation-filters="sRGB">
<feFlood flood-opacity="0" result="BackgroundImageFix"/>
<feColorMatrix in="SourceAlpha" type="matrix" values="0 0 0 0 0 0 0 0 0 0 0 0 0 0 0 0 0 0 127 0" result="hardAlpha"/>
<feOffset dy="4"/>
<feGaussianBlur stdDeviation="5"/>
<feComposite in2="hardAlpha" operator="out"/>
<feColorMatrix type="matrix" values="0 0 0 0 0 0 0 0 0 0 0 0 0 0 0 0 0 0 0.15 0"/>
<feBlend mode="normal" in2="BackgroundImageFix" result="effect1_dropShadow_178_19"/>
<feBlend mode="normal" in="SourceGraphic" in2="effect1_dropShadow_178_19" result="shape"/>
</filter>
</defs>
</svg>
