<svg width="75" height="75" viewBox="0 0 75 75" fill="none" xmlns="http://www.w3.org/2000/svg">
<path d="M37.4806 74.9611C58.1805 74.9611 74.9611 58.1805 74.9611 37.4806C74.9611 16.7806 58.1805 0 37.4806 0C16.7806 0 0 16.7806 0 37.4806C0 58.1805 16.7806 74.9611 37.4806 74.9611Z" fill="url(#paint0_linear_72_21)"/>
<path d="M21.8204 30.2927H29.0085V53.6539H21.8204V30.2927ZM25.4145 18.7405C27.7249 18.7405 29.5219 20.5375 29.5219 22.8479C29.5219 25.1584 27.7249 26.9554 25.4145 26.9554C23.104 26.9554 21.307 25.1584 21.307 22.8479C21.307 20.5375 23.104 18.7405 25.4145 18.7405Z" fill="white"/>
<path d="M33.6294 30.2926H40.5607V33.3732C41.5876 31.5762 43.898 29.5225 47.4921 29.5225C54.9368 29.5225 56.2204 34.4001 56.2204 40.5613V53.3971H49.0324V42.3583C49.0324 39.5344 49.0324 36.1971 45.1816 36.1971C41.3309 36.1971 40.8174 39.021 40.8174 42.1016V53.6538H33.6294V30.2926Z" fill="white"/>
<defs>
<linearGradient id="paint0_linear_72_21" x1="64.1213" y1="10.8162" x2="11.038" y2="63.8995" gradientUnits="userSpaceOnUse">
<stop stop-color="#007AB5"/>
<stop offset="1" stop-color="#0046E5"/>
</linearGradient>
</defs>
</svg>
