<svg width="96" height="105" viewBox="0 0 96 105" fill="none" xmlns="http://www.w3.org/2000/svg">
<g filter="url(#filter0_d_159_95)">
<path d="M10 66.8241V30.4124C10 28.2135 11.1822 26.2038 13.0737 25.0925L44.8512 6.81572C46.7427 5.72809 49.0834 5.72809 50.9986 6.81572L82.5869 25.0925C84.4784 26.2038 85.6606 28.2371 85.637 30.4124L85.4951 66.8241C85.4951 69.0229 84.3129 71.0327 82.3978 72.1203L50.7622 90.1843C48.8706 91.2719 46.5535 91.2719 44.6857 90.1843L13.0737 72.1203C11.1822 71.0563 10 69.0229 10 66.8241Z" fill="white"/>
<path d="M13.3811 64.8376V31.6888C13.3811 29.7027 14.445 27.8348 16.1711 26.8418L45.1112 10.1964C46.8373 9.2034 48.9652 9.2034 50.7149 10.1964L79.4895 26.8418C81.2156 27.8348 82.2795 29.7027 82.2795 31.6888L82.1377 64.8613C82.1377 66.8473 81.0501 68.6916 79.324 69.6846L50.5257 86.1408C48.7997 87.1102 46.6954 87.1102 44.993 86.1408L16.1947 69.6846C14.445 68.6916 13.3811 66.8473 13.3811 64.8376Z" fill="#F4F6F8"/>
</g>
<mask id="mask0_159_95" style="mask-type:luminance" maskUnits="userSpaceOnUse" x="30" y="31" width="35" height="35">
<path d="M47.5 66C57.165 66 65 58.165 65 48.5C65 38.835 57.165 31 47.5 31C37.835 31 30 38.835 30 48.5C30 58.165 37.835 66 47.5 66Z" fill="white"/>
</mask>
<g mask="url(#mask0_159_95)">
<path d="M29.1421 30.1421H65.8578V66.8578H29.1421V30.1421Z" fill="#4A8CFF"/>
</g>
<mask id="mask1_159_95" style="mask-type:luminance" maskUnits="userSpaceOnUse" x="31" y="32" width="33" height="33">
<path d="M47.5 64.284C56.2174 64.284 63.2843 57.2171 63.2843 48.4996C63.2843 39.7822 56.2174 32.7153 47.5 32.7153C38.7825 32.7153 31.7156 39.7822 31.7156 48.4996C31.7156 57.2171 38.7825 64.284 47.5 64.284Z" fill="white"/>
</mask>
<g mask="url(#mask1_159_95)">
<path d="M30.8577 31.8579H64.142V65.1422H30.8577V31.8579Z" fill="#4A8CFF"/>
</g>
<mask id="mask2_159_95" style="mask-type:luminance" maskUnits="userSpaceOnUse" x="37" y="43" width="21" height="11">
<path d="M52.3039 46.4519L56.7647 43.1921C57.1542 42.8747 57.451 42.9484 57.451 43.5352V53.4759C57.451 54.1347 57.0804 54.0592 56.7647 53.819L52.3039 50.5592V46.4519ZM37.2059 43.5592V50.971C37.21 51.7756 37.5334 52.5457 38.1051 53.112C38.6768 53.6782 39.45 53.9942 40.2546 53.9906H51.0635C51.2097 53.991 51.3501 53.9335 51.454 53.8306C51.5579 53.7277 51.6167 53.5878 51.6176 53.4416V46.0298C51.6135 45.2252 51.2901 44.4551 50.7184 43.8888C50.1467 43.3226 49.3735 43.0065 48.5689 43.0102H37.76C37.6138 43.0097 37.4734 43.0673 37.3695 43.1702C37.2656 43.2731 37.2068 43.413 37.2059 43.5592Z" fill="white"/>
</mask>
<g mask="url(#mask2_159_95)">
<path d="M36.348 42.1519H58.3088V54.8479H36.348V42.1519Z" fill="white"/>
</g>
<defs>
<filter id="filter0_d_159_95" x="0" y="0" width="95.6373" height="105" filterUnits="userSpaceOnUse" color-interpolation-filters="sRGB">
<feFlood flood-opacity="0" result="BackgroundImageFix"/>
<feColorMatrix in="SourceAlpha" type="matrix" values="0 0 0 0 0 0 0 0 0 0 0 0 0 0 0 0 0 0 127 0" result="hardAlpha"/>
<feOffset dy="4"/>
<feGaussianBlur stdDeviation="5"/>
<feComposite in2="hardAlpha" operator="out"/>
<feColorMatrix type="matrix" values="0 0 0 0 0 0 0 0 0 0 0 0 0 0 0 0 0 0 0.15 0"/>
<feBlend mode="normal" in2="BackgroundImageFix" result="effect1_dropShadow_159_95"/>
<feBlend mode="normal" in="SourceGraphic" in2="effect1_dropShadow_159_95" result="shape"/>
</filter>
</defs>
</svg>
