<svg width="96" height="105" viewBox="0 0 96 105" fill="none" xmlns="http://www.w3.org/2000/svg">
<g filter="url(#filter0_d_159_96)">
<path d="M10 66.8241V30.4124C10 28.2135 11.1822 26.2038 13.0737 25.0925L44.8512 6.81572C46.7427 5.72809 49.0834 5.72809 50.9986 6.81572L82.5869 25.0925C84.4784 26.2038 85.6606 28.2371 85.637 30.4124L85.4951 66.8241C85.4951 69.0229 84.3129 71.0327 82.3978 72.1203L50.7622 90.1843C48.8706 91.2719 46.5535 91.2719 44.6857 90.1843L13.0737 72.1203C11.1822 71.0563 10 69.0229 10 66.8241Z" fill="white"/>
<path d="M13.3811 64.8376V31.6888C13.3811 29.7027 14.445 27.8348 16.1711 26.8418L45.1112 10.1964C46.8373 9.2034 48.9652 9.2034 50.7149 10.1964L79.4895 26.8418C81.2156 27.8348 82.2795 29.7027 82.2795 31.6888L82.1377 64.8613C82.1377 66.8473 81.0501 68.6916 79.324 69.6846L50.5257 86.1408C48.7997 87.1102 46.6954 87.1102 44.993 86.1408L16.1947 69.6846C14.445 68.6916 13.3811 66.8473 13.3811 64.8376Z" fill="#F4F6F8"/>
</g>
<path d="M57.6869 48.091C57.9625 48.091 58.2382 48.091 58.5138 48.091C58.6893 47.7151 58.6893 47.1638 58.5138 46.5373C58.3384 45.6101 58.0628 44.9837 57.5115 45.0588C56.9602 45.1591 56.9602 45.8858 57.1356 46.813C57.2108 47.3643 57.4112 47.8153 57.6869 48.091Z" fill="black"/>
<path d="M52.8255 48.9179C53.2013 49.0933 53.477 49.1936 53.5522 49.0933C53.6524 48.9931 53.5522 48.9179 53.4519 48.7174C53.2765 48.3416 52.8004 48.0659 52.4496 47.8905C51.5224 47.5146 50.52 47.6149 49.6931 48.2664C49.4174 48.4418 49.1418 48.7174 49.242 48.9179C49.242 49.0182 49.3423 49.0182 49.4174 49.0182C49.5928 49.0182 50.4198 48.6423 51.347 48.5671C51.8983 48.542 52.4496 48.7425 52.8255 48.9179Z" fill="black"/>
<path d="M51.9985 49.369C51.4472 49.4692 51.1716 49.6446 50.9962 49.8201C50.8208 49.9955 50.7205 50.0957 50.7205 50.1959V50.2962H50.8208C50.921 50.2962 51.1966 50.1959 51.1966 50.1959C51.9234 49.9203 52.3995 49.9203 52.8505 50.0205C53.1262 50.0205 53.2264 50.1208 53.3016 50.0205C53.3016 50.0205 53.3016 49.9203 53.3016 49.8451C53.2765 49.5695 52.7252 49.2938 51.9985 49.369Z" fill="black"/>
<path d="M56.033 51.023C56.4089 51.1984 56.7597 51.1232 56.9602 50.8476C57.0604 50.5719 56.8599 50.196 56.5091 50.0206C56.1332 49.8452 55.7824 49.9204 55.5819 50.196C55.3815 50.4717 55.6571 50.8476 56.033 51.023Z" fill="black"/>
<path d="M58.3134 49.0181C58.0377 49.0181 57.7621 49.2937 57.7621 49.7448C57.7621 50.1207 57.9375 50.4715 58.3134 50.4715C58.589 50.4715 58.8646 50.1958 58.8646 49.7448C58.7895 49.3689 58.589 49.0181 58.3134 49.0181Z" fill="black"/>
<path d="M38.8927 56.16C38.7924 56.0598 38.7172 56.0598 38.617 56.16C38.5168 56.16 38.4416 56.16 38.3414 56.16C38.1659 56.16 37.9655 56.0598 37.8903 55.8843C37.8151 55.7089 37.7901 55.4333 37.8903 55.0574L37.9905 54.882C38.2662 54.3307 38.6421 53.5037 38.1659 52.6768C37.7901 52.0253 37.339 51.6744 36.6875 51.5742C36.0359 51.474 35.4095 51.7496 35.0336 52.2257C34.382 52.9524 34.3069 53.8796 34.382 54.2304C34.382 54.3307 34.4823 54.4059 34.5574 54.4059C34.6577 54.4059 34.8331 54.3056 34.9333 54.03V53.9297C34.9333 53.7543 35.0336 53.5539 35.209 53.2782C35.3844 53.0026 35.66 52.8271 35.9357 52.8271C36.2113 52.7269 36.5872 52.8271 36.8629 53.0026C37.3139 53.2782 37.5144 53.8295 37.3139 54.3808C37.0383 54.6565 36.9381 55.1075 36.9381 55.5836C37.0383 56.4106 37.5896 56.7865 38.0406 56.8616C38.4917 56.8616 38.8676 56.586 38.8676 56.4106C38.9678 56.2602 38.8927 56.2602 38.8927 56.16Z" fill="black"/>
<path d="M65.5554 54.6065C65.5554 54.5063 65.4552 54.1555 65.2798 53.6042L64.9039 52.7772C65.5554 51.85 65.5554 50.9479 65.4552 50.4968C65.3549 49.9455 65.0793 49.3942 64.6282 48.8429C64.1772 48.2916 63.0746 47.7404 61.6963 47.3645L60.9696 47.1891C60.9696 47.1891 60.9696 45.4349 60.8694 44.7082C60.8694 44.1569 60.7691 43.33 60.4935 42.503C60.2178 41.4004 59.6665 40.3981 58.9398 39.7465C60.7691 37.817 61.972 35.6118 61.972 33.7825C61.972 30.2993 57.6618 29.1967 52.2491 31.4019L51.1465 31.853C51.1465 31.853 49.1418 29.8482 49.0415 29.8482C43.1026 24.5357 24.1329 45.7106 30.1721 50.8477L31.4501 51.9503C31.0743 52.8774 30.9991 53.8798 31.0743 54.9824C31.2497 56.3606 32.0014 57.7389 33.079 58.8415C34.1816 59.8438 35.635 60.4954 37.1135 60.4954C39.4941 66.0083 44.9068 69.2911 51.2217 69.4915C58.0127 69.667 63.7762 66.4594 66.1568 60.771C66.3322 60.3951 66.9838 58.5658 66.9838 56.9119C67.1341 55.233 66.2069 54.6065 65.5554 54.6065ZM37.6898 58.9167C37.5144 58.9167 37.2388 59.0169 37.0383 58.9167C35.0336 58.8164 32.7281 56.9871 32.5527 54.7819C32.3773 52.4013 33.5551 50.572 35.7603 50.0959C36.0359 49.9957 36.3116 49.9957 36.6875 49.9957C37.8903 50.0959 39.7196 50.998 40.1707 53.6543C40.5215 56.1602 39.9952 58.5408 37.6898 58.9167ZM35.4095 48.6425C34.0312 48.9181 32.8534 49.6448 32.1017 50.7474C31.6506 50.3715 30.8237 49.6448 30.7234 49.3692C29.5206 47.164 32.0014 42.7787 33.7556 40.373C37.9655 34.3338 44.6562 29.748 47.6884 30.5499C48.2397 30.7253 49.8935 32.6548 49.8935 32.6548C49.8935 32.6548 46.7862 34.409 43.9295 36.7896C40.0704 39.6463 37.1385 43.9564 35.4095 48.6425ZM57.0354 57.9895L57.1356 57.8892C57.1356 57.789 57.0354 57.789 57.0354 57.789C57.0354 57.789 53.8278 58.2401 50.7957 57.1375C51.1716 56.0349 51.9985 56.4108 53.3517 56.5862C55.7323 56.7616 57.9375 56.4108 59.4911 55.9346C60.8694 55.5588 62.6987 54.7318 64.0769 53.6543C64.528 54.6566 64.7285 55.8595 64.7285 55.8595C64.7285 55.8595 65.1043 55.7592 65.38 55.9597C65.6556 56.1351 65.8311 56.511 65.7559 57.4382C65.4802 59.2675 64.6533 60.6457 63.4755 62.024C62.7488 62.8509 61.7214 63.5776 60.6439 64.1289C60.0926 64.4046 59.441 64.6802 58.8145 64.8556C53.8529 66.4093 48.9162 64.7554 47.3626 60.9966C47.2624 60.7209 47.0869 60.4453 47.0869 60.0694C46.4354 57.5885 46.9867 54.6566 48.8411 52.8273C48.9413 52.7271 49.0165 52.5517 49.0165 52.3763C49.0165 52.2009 48.9162 52.1006 48.8411 52.0004C48.1895 51.0732 46.0094 49.5195 46.4605 46.4874C46.7361 44.2822 48.6657 42.8288 50.3947 42.904H50.8458C51.5725 42.904 52.3243 43.0794 52.8505 43.0794C53.8529 43.0794 54.8552 42.9791 55.9578 42.077C56.3337 41.8014 56.6094 41.5257 57.1607 41.4255C57.2609 41.4255 57.3361 41.3252 57.6117 41.4255C57.8874 41.4255 58.163 41.5257 58.3384 41.7011C59.2656 42.3527 59.3408 43.7059 59.441 44.8084C59.441 45.46 59.5413 46.9134 59.5413 47.2893C59.6415 48.2165 59.8169 48.3919 60.3682 48.5673C60.6438 48.6675 60.9195 48.7427 61.2954 48.8429C62.4982 49.2188 63.2249 49.4945 63.676 49.9455C63.9516 50.2212 64.0519 50.4968 64.127 50.7725C64.3025 51.7749 63.3001 53.0529 60.8193 54.2557C58.0628 55.5337 54.8552 55.8093 52.5749 55.5337L51.7479 55.4335C49.9186 55.1578 48.9162 57.5384 49.9938 59.0921C50.7205 60.0944 52.65 60.8462 54.4793 60.8462C58.8897 60.8462 62.2727 59.0169 63.4755 57.363L63.5758 57.1876C63.676 57.0873 63.5758 57.0122 63.4755 57.0873C62.4732 57.8141 57.8874 60.5705 53.0259 59.7436C53.0259 59.7436 52.4746 59.6434 51.9233 59.468C51.4723 59.2925 50.6453 58.9167 50.4448 57.9895C54.5545 59.1923 57.0354 57.9895 57.0354 57.9895ZM43.278 40.3981C44.7565 38.6439 46.6609 37.0903 48.3148 36.2633C48.4151 36.2633 48.4151 36.2633 48.4151 36.3636C48.3148 36.6392 48.0392 37.0903 47.964 37.4662C47.964 37.5664 48.0642 37.5664 48.0642 37.5664C49.0666 36.8397 50.8959 36.0879 52.4746 36.0127C52.5749 36.0127 52.5749 36.113 52.5749 36.113C52.2992 36.2884 52.1238 36.564 51.8481 36.8397C51.8481 36.8397 51.8481 36.9399 51.9484 36.9399C53.051 36.9399 54.6046 37.3158 55.607 37.9423C55.7072 37.9423 55.607 38.1177 55.5068 38.1177C53.9531 37.7418 51.4723 37.4662 48.816 38.1177C46.4354 38.669 44.6813 39.5962 43.4033 40.4983C43.278 40.4732 43.2028 40.4732 43.278 40.3981Z" fill="black"/>
<defs>
<filter id="filter0_d_159_96" x="0" y="0" width="95.6373" height="105" filterUnits="userSpaceOnUse" color-interpolation-filters="sRGB">
<feFlood flood-opacity="0" result="BackgroundImageFix"/>
<feColorMatrix in="SourceAlpha" type="matrix" values="0 0 0 0 0 0 0 0 0 0 0 0 0 0 0 0 0 0 127 0" result="hardAlpha"/>
<feOffset dy="4"/>
<feGaussianBlur stdDeviation="5"/>
<feComposite in2="hardAlpha" operator="out"/>
<feColorMatrix type="matrix" values="0 0 0 0 0 0 0 0 0 0 0 0 0 0 0 0 0 0 0.15 0"/>
<feBlend mode="normal" in2="BackgroundImageFix" result="effect1_dropShadow_159_96"/>
<feBlend mode="normal" in="SourceGraphic" in2="effect1_dropShadow_159_96" result="shape"/>
</filter>
</defs>
</svg>
