<svg width="96" height="105" viewBox="0 0 96 105" fill="none" xmlns="http://www.w3.org/2000/svg">
<g filter="url(#filter0_d_178_16)">
<path d="M10 66.8241V30.4124C10 28.2135 11.1822 26.2038 13.0737 25.0925L44.8512 6.81572C46.7427 5.72809 49.0834 5.72809 50.9986 6.81572L82.5869 25.0925C84.4784 26.2038 85.6606 28.2371 85.637 30.4124L85.4951 66.8241C85.4951 69.0229 84.3129 71.0327 82.3978 72.1203L50.7622 90.1843C48.8706 91.2719 46.5535 91.2719 44.6857 90.1843L13.0737 72.1203C11.1822 71.0563 10 69.0229 10 66.8241Z" fill="white"/>
<path d="M13.3811 64.8376V31.6888C13.3811 29.7027 14.4451 27.8348 16.1711 26.8418L45.1113 10.1964C46.8373 9.2034 48.9652 9.2034 50.7149 10.1964L79.4896 26.8418C81.2156 27.8348 82.2796 29.7027 82.2796 31.6888L82.1377 64.8612C82.1377 66.8473 81.0501 68.6916 79.3241 69.6846L50.5257 86.1408C48.7997 87.1102 46.6954 87.1102 44.9931 86.1408L16.1947 69.6846C14.4451 68.6916 13.3811 66.8473 13.3811 64.8376Z" fill="#F4F6F8"/>
</g>
<path d="M60.9999 64.524C60.9994 65.074 60.7808 65.6013 60.3919 65.9902C60.003 66.3791 59.4757 66.5978 58.9257 66.5982H36.7939C36.2439 66.5982 35.7164 66.38 35.3272 65.9914C34.938 65.6028 34.7189 65.0757 34.718 64.5257V32.132C34.7178 31.8593 34.7713 31.5893 34.8756 31.3373C34.9798 31.0854 35.1327 30.8565 35.3255 30.6637C35.5183 30.4709 35.7473 30.318 35.9992 30.2137C36.2512 30.1095 36.5212 30.0559 36.7939 30.0562H50.9975L60.9999 40.2569V64.524Z" fill="#23A566"/>
<path d="M52.0984 39.9905L61 48.4988V40.1971H53.1148C52.7706 40.201 52.4312 40.1156 52.1298 39.9492L52.0984 39.9905Z" fill="#1C8F5A"/>
<path d="M60.9999 40.2404H53.0932C52.5433 40.2399 52.0159 40.0213 51.627 39.6324C51.2382 39.2435 51.0195 38.7162 51.019 38.1662V30L60.9999 40.2404Z" fill="#8ED1B1"/>
<path fill-rule="evenodd" clip-rule="evenodd" d="M54.6715 59.8618H40.9951V48.0034H54.6715V59.8618ZM48.6837 49.714V51.7898H52.9907V49.7173L48.6837 49.714ZM48.6837 53.0972V55.0804H52.9907V53.0872L48.6837 53.0972ZM48.6837 56.3448V58.181H52.9907V56.3349L48.6837 56.3448ZM46.9929 58.1711V56.3349H42.6875V58.1711H46.9929ZM46.9929 55.059V53.0872H42.6875V55.0689L46.9929 55.059ZM46.9929 51.8113V49.714H42.6875V51.7898L46.9929 51.8113Z" fill="white"/>
<defs>
<filter id="filter0_d_178_16" x="0" y="0" width="95.6375" height="105" filterUnits="userSpaceOnUse" color-interpolation-filters="sRGB">
<feFlood flood-opacity="0" result="BackgroundImageFix"/>
<feColorMatrix in="SourceAlpha" type="matrix" values="0 0 0 0 0 0 0 0 0 0 0 0 0 0 0 0 0 0 127 0" result="hardAlpha"/>
<feOffset dy="4"/>
<feGaussianBlur stdDeviation="5"/>
<feComposite in2="hardAlpha" operator="out"/>
<feColorMatrix type="matrix" values="0 0 0 0 0 0 0 0 0 0 0 0 0 0 0 0 0 0 0.15 0"/>
<feBlend mode="normal" in2="BackgroundImageFix" result="effect1_dropShadow_178_16"/>
<feBlend mode="normal" in="SourceGraphic" in2="effect1_dropShadow_178_16" result="shape"/>
</filter>
</defs>
</svg>
