<svg width="96" height="105" viewBox="0 0 96 105" fill="none" xmlns="http://www.w3.org/2000/svg">
<g filter="url(#filter0_d_159_279)">
<path d="M10 66.8241V30.4124C10 28.2135 11.1822 26.2038 13.0737 25.0925L44.8512 6.81572C46.7427 5.72809 49.0834 5.72809 50.9986 6.81572L82.5869 25.0925C84.4784 26.2038 85.6606 28.2371 85.637 30.4124L85.4951 66.8241C85.4951 69.0229 84.3129 71.0327 82.3978 72.1203L50.7622 90.1843C48.8706 91.2719 46.5535 91.2719 44.6857 90.1843L13.0737 72.1203C11.1822 71.0563 10 69.0229 10 66.8241Z" fill="white"/>
<path d="M13.3811 64.8376V31.6888C13.3811 29.7027 14.4451 27.8348 16.1711 26.8418L45.1113 10.1964C46.8373 9.2034 48.9652 9.2034 50.7149 10.1964L79.4896 26.8418C81.2156 27.8348 82.2796 29.7027 82.2796 31.6888L82.1377 64.8613C82.1377 66.8473 81.0501 68.6916 79.3241 69.6846L50.5257 86.1408C48.7997 87.1102 46.6954 87.1102 44.9931 86.1408L16.1947 69.6846C14.4451 68.6916 13.3811 66.8473 13.3811 64.8376Z" fill="#F4F6F8"/>
</g>
<path d="M44.0816 32.7038C39.0308 33.0977 34.7371 33.4599 34.5352 33.5023C33.9691 33.6087 33.4542 34.0133 33.2121 34.5458L33 35.0144L33.0204 46.1822L33.0505 57.35L33.3737 58.042C33.5558 58.4251 34.7882 60.2139 36.1317 62.0553C38.7887 65.6854 38.9803 65.888 39.9904 65.9944C40.2836 66.0261 42.4857 65.9197 44.87 65.7709C47.2644 65.6113 51.1026 65.3663 53.4064 65.2283C63.2454 64.5988 62.7401 64.652 63.3055 64.141C64.0127 63.5236 63.9622 64.5348 63.9922 50.9615C64.0127 39.4531 64.0025 38.6977 63.8408 38.3463C63.6492 37.9524 63.3055 37.6757 58.82 34.354C55.82 32.1397 55.6079 32.0225 54.2637 32.001C53.7085 31.9801 49.1222 32.2992 44.0816 32.7038ZM55.436 34.1621C55.8602 34.3641 58.9619 36.6423 59.4161 37.0792C59.5375 37.2072 59.5777 37.3135 59.517 37.3775C59.3758 37.5054 40.1814 38.7085 39.6262 38.623C39.3739 38.5806 39.0001 38.421 38.788 38.2716C37.909 37.6434 35.7273 35.759 35.7273 35.621C35.7273 35.2588 35.6564 35.2588 44.2132 34.6098C45.85 34.4926 48.537 34.2799 50.1738 34.1412C53.7188 33.843 54.7799 33.8537 55.436 34.1621ZM61.5377 39.9856C61.6789 40.1344 61.8003 40.4219 61.8406 40.6986C61.8706 40.9544 61.891 45.7237 61.8706 51.2807C61.8406 60.8192 61.8303 61.4157 61.6585 61.6924C61.5575 61.8627 61.3557 62.0438 61.2036 62.097C60.7801 62.2781 40.6669 63.4812 40.2529 63.3533C40.0613 63.3001 39.7981 63.1298 39.6569 62.981L39.4141 62.7043L39.3841 52.4205C39.3637 45.2026 39.3841 42.0087 39.4652 41.7213C39.5259 41.5085 39.6773 41.2527 39.8089 41.1679C39.991 41.0399 41.1831 40.9336 45.2846 40.6784C48.1639 40.5081 52.6187 40.2206 55.1747 40.061C61.2547 39.6665 61.2349 39.6665 61.5377 39.9856Z" fill="black"/>
<path d="M56.3679 43.1492C55.2741 43.2239 54.302 43.3301 54.1905 43.3939C53.8562 43.5748 53.6539 43.8726 53.6135 44.2128C53.5834 44.5637 53.6846 44.6061 54.7778 44.7446L55.2536 44.8084V49.3477C55.2536 52.0476 55.2133 53.8338 55.1627 53.7807C55.1121 53.7168 53.6744 51.421 51.9625 48.6781C50.2514 45.9251 48.8335 43.6602 48.813 43.6393C48.7925 43.6178 47.6788 43.6817 46.3423 43.7778C44.7016 43.8948 43.8005 44.001 43.618 44.1072C43.324 44.2666 43 44.8299 43 45.2024C43 45.4256 43.3849 45.5426 44.195 45.5426H44.6202V58.5969L43.9318 58.8201C43.3951 58.9902 43.2126 59.0965 43.1217 59.3089C42.9597 59.6706 42.9699 60 43.1319 60C43.1928 60 44.3372 59.9254 45.6532 59.8407C48.2558 59.6813 48.5492 59.6067 48.8226 59.0433C48.9039 58.8733 48.9744 58.6924 48.9744 58.6393C48.9744 58.5969 48.6202 58.4692 48.1944 58.363C47.7589 58.2568 47.3234 58.1505 47.2325 58.129C47.0602 58.0759 47.05 57.7465 47.05 53.175V48.274L50.1284 53.3451C53.3586 58.6601 53.764 59.2665 54.2603 59.5321C54.8783 59.8723 56.448 59.6383 57.2376 59.0965L57.4809 58.9371L57.5014 51.6872L57.5315 44.4266L58.0682 44.3203C58.7061 44.1926 59 43.8847 59 43.3529C59 43.0128 58.9795 42.9912 58.676 43.002C58.4947 43.0107 57.4515 43.0746 56.3679 43.1492Z" fill="black"/>
<defs>
<filter id="filter0_d_159_279" x="0" y="0" width="95.6373" height="105" filterUnits="userSpaceOnUse" color-interpolation-filters="sRGB">
<feFlood flood-opacity="0" result="BackgroundImageFix"/>
<feColorMatrix in="SourceAlpha" type="matrix" values="0 0 0 0 0 0 0 0 0 0 0 0 0 0 0 0 0 0 127 0" result="hardAlpha"/>
<feOffset dy="4"/>
<feGaussianBlur stdDeviation="5"/>
<feComposite in2="hardAlpha" operator="out"/>
<feColorMatrix type="matrix" values="0 0 0 0 0 0 0 0 0 0 0 0 0 0 0 0 0 0 0.15 0"/>
<feBlend mode="normal" in2="BackgroundImageFix" result="effect1_dropShadow_159_279"/>
<feBlend mode="normal" in="SourceGraphic" in2="effect1_dropShadow_159_279" result="shape"/>
</filter>
</defs>
</svg>
