<svg width="96" height="105" viewBox="0 0 96 105" fill="none" xmlns="http://www.w3.org/2000/svg">
<g filter="url(#filter0_d_159_277)">
<path d="M10 66.8241V30.4124C10 28.2135 11.1822 26.2038 13.0737 25.0925L44.8512 6.81572C46.7427 5.72809 49.0834 5.72809 50.9986 6.81572L82.5869 25.0925C84.4784 26.2038 85.6606 28.2371 85.637 30.4124L85.4951 66.8241C85.4951 69.0229 84.3129 71.0327 82.3978 72.1203L50.7622 90.1843C48.8706 91.2719 46.5535 91.2719 44.6857 90.1843L13.0737 72.1203C11.1822 71.0563 10 69.0229 10 66.8241Z" fill="white"/>
<path d="M13.3811 64.8376V31.6888C13.3811 29.7027 14.445 27.8348 16.1711 26.8418L45.1112 10.1964C46.8373 9.2034 48.9652 9.2034 50.7149 10.1964L79.4895 26.8418C81.2156 27.8348 82.2795 29.7027 82.2795 31.6888L82.1377 64.8613C82.1377 66.8473 81.0501 68.6916 79.324 69.6846L50.5257 86.1408C48.7997 87.1102 46.6954 87.1102 44.993 86.1408L16.1947 69.6846C14.445 68.6916 13.3811 66.8473 13.3811 64.8376Z" fill="#F4F6F8"/>
</g>
<g clip-path="url(#clip0_159_277)">
<path d="M43.5586 36.1895C45.0744 34.6101 47.1847 33.6306 49.5186 33.6306C52.6212 33.6306 55.328 35.3606 56.7695 37.9288C58.0222 37.3692 59.4087 37.0578 60.8676 37.0578C66.4633 37.0578 71 41.634 71 47.2786C71 52.924 66.4633 57.5001 60.8676 57.5001C60.1973 57.5005 59.5287 57.4339 58.8717 57.3013C57.6024 59.5655 55.1834 61.0954 52.4069 61.0954C51.2446 61.0954 50.1453 60.827 49.1665 60.3496C47.8796 63.3764 44.8816 65.4988 41.3873 65.4988C37.7485 65.4988 34.6473 63.1963 33.4569 59.9673C32.9367 60.0777 32.3978 60.1353 31.8447 60.1353C27.5123 60.1354 24 56.5869 24 52.209C24 49.2752 25.5781 46.7136 27.9227 45.3431C27.44 44.2324 27.1715 43.0065 27.1715 41.7176C27.1715 36.6829 31.2589 32.6016 36.3004 32.6016C39.2603 32.6016 41.8908 34.0089 43.5586 36.1895Z" fill="#00A1E0"/>
<path d="M30.8075 49.6611C30.7781 49.7381 30.8182 49.7542 30.8276 49.7675C30.916 49.8318 31.0057 49.878 31.0961 49.9296C31.5755 50.1839 32.0281 50.2582 32.5015 50.2582C33.4655 50.2582 34.0641 49.7454 34.0641 48.9199V48.9038C34.0641 48.1406 33.3886 47.8634 32.7545 47.6632L32.6722 47.6364C32.1941 47.4811 31.7817 47.3472 31.7817 47.0325V47.0158C31.7817 46.7467 32.0227 46.5485 32.3963 46.5485C32.8114 46.5485 33.3042 46.6864 33.6215 46.8618C33.6215 46.8618 33.7146 46.9221 33.7488 46.8317C33.7675 46.7835 33.9282 46.351 33.9449 46.3041C33.963 46.2532 33.9309 46.2157 33.8981 46.1956C33.5359 45.9754 33.0351 45.8247 32.5169 45.8247L32.4205 45.8254C31.5381 45.8254 30.9221 46.3583 30.9221 47.1222V47.1383C30.9221 47.9437 31.6017 48.2048 32.2384 48.3869L32.3408 48.4184C32.8048 48.561 33.2045 48.6835 33.2045 49.0103V49.0264C33.2045 49.325 32.9448 49.5472 32.5256 49.5472C32.3629 49.5472 31.8441 49.5439 31.2837 49.1897C31.216 49.1501 31.1766 49.1214 31.1243 49.0899C31.0969 49.0725 31.0279 49.0423 30.9978 49.1334L30.8075 49.6611ZM44.9215 49.6611C44.8921 49.7381 44.9323 49.7542 44.9416 49.7675C45.03 49.8318 45.1198 49.878 45.2101 49.9296C45.6894 50.1839 46.1421 50.2582 46.6154 50.2582C47.5795 50.2582 48.1781 49.7454 48.1781 48.9199V48.9038C48.1781 48.1406 47.5025 47.8634 46.8685 47.6632L46.7862 47.6364C46.3081 47.4811 45.8957 47.3472 45.8957 47.0325V47.0158C45.8957 46.7467 46.1367 46.5485 46.5103 46.5485C46.9254 46.5485 47.4181 46.6864 47.7355 46.8618C47.7355 46.8618 47.8286 46.9221 47.8627 46.8317C47.8814 46.7835 48.0421 46.351 48.0589 46.3041C48.077 46.2532 48.0448 46.2157 48.012 46.1956C47.6498 45.9754 47.149 45.8247 46.6308 45.8247L46.5344 45.8254C45.6519 45.8254 45.036 46.3583 45.036 47.1222V47.1383C45.036 47.9437 45.7156 48.2048 46.3523 48.3869L46.4547 48.4184C46.9187 48.561 47.3191 48.6835 47.3191 49.0103V49.0264C47.3191 49.325 47.0587 49.5472 46.6395 49.5472C46.4769 49.5472 45.958 49.5439 45.3976 49.1897C45.33 49.1501 45.2898 49.1227 45.239 49.0899C45.2215 49.0785 45.1398 49.0471 45.1117 49.1334L44.9215 49.6611ZM54.5568 48.0441C54.5568 48.5107 54.4698 48.8783 54.2984 49.138C54.129 49.3952 53.8726 49.5203 53.5151 49.5203C53.1569 49.5203 52.9019 49.3958 52.7351 49.138C52.5664 48.879 52.4807 48.5107 52.4807 48.0441C52.4807 47.5781 52.5664 47.2112 52.7351 46.9541C52.9019 46.6997 53.1569 46.5758 53.5151 46.5758C53.8726 46.5758 54.129 46.6997 54.2991 46.9541C54.4698 47.2111 54.5568 47.5781 54.5568 48.0441ZM55.3616 47.1791C55.2826 46.9119 55.1594 46.6762 54.9954 46.4801C54.8313 46.2832 54.6238 46.1252 54.3774 46.0101C54.1317 45.8956 53.8411 45.8374 53.5151 45.8374C53.1884 45.8374 52.8978 45.8956 52.6521 46.0101C52.4057 46.1252 52.1982 46.2833 52.0335 46.4801C51.8701 46.6769 51.7469 46.9126 51.6672 47.1791C51.5889 47.4448 51.5494 47.7354 51.5494 48.0441C51.5494 48.3527 51.5889 48.644 51.6672 48.9091C51.7469 49.1755 51.8695 49.4112 52.0342 49.608C52.1982 49.8049 52.4064 49.9622 52.6521 50.074C52.8985 50.1858 53.1884 50.2427 53.5152 50.2427C53.8412 50.2427 54.1311 50.1858 54.3774 50.074C54.6232 49.9622 54.8313 49.8048 54.9954 49.608C55.1595 49.4119 55.2826 49.1762 55.3617 48.9091C55.4407 48.6433 55.4802 48.352 55.4802 48.0441C55.4802 47.7361 55.4406 47.4448 55.3616 47.1791ZM61.9702 49.3957C61.9434 49.3174 61.8677 49.3468 61.8677 49.3468C61.7506 49.3917 61.626 49.4332 61.4935 49.454C61.3589 49.4747 61.2109 49.4854 61.0522 49.4854C60.6626 49.4854 60.3533 49.3696 60.1317 49.1406C59.9094 48.9117 59.7849 48.5414 59.7862 48.0406C59.7876 47.5847 59.8973 47.2419 60.0949 46.9808C60.2911 46.721 60.5897 46.5878 60.988 46.5878C61.3201 46.5878 61.5732 46.6259 61.8382 46.7096C61.8382 46.7096 61.9019 46.737 61.932 46.6541C62.0023 46.4585 62.0545 46.3186 62.1295 46.1037C62.1509 46.0428 62.0987 46.0167 62.0799 46.0093C61.9755 45.9684 61.7291 45.9022 61.543 45.8741C61.3689 45.8473 61.1654 45.8332 60.9391 45.8332C60.6009 45.8332 60.2997 45.8908 60.0419 46.006C59.7848 46.1204 59.5666 46.2784 59.3939 46.4753C59.2211 46.6722 59.0899 46.9078 59.0022 47.1743C58.9152 47.44 58.871 47.7319 58.871 48.0406C58.871 48.7081 59.0511 49.2477 59.4066 49.6428C59.7628 50.0391 60.2977 50.2406 60.9954 50.2406C61.4078 50.2406 61.831 50.157 62.1349 50.0371C62.1349 50.0371 62.1932 50.009 62.1677 49.9414L61.9702 49.3957ZM63.3782 47.597C63.4164 47.3379 63.488 47.1223 63.5985 46.9543C63.7653 46.6992 64.0196 46.5593 64.3772 46.5593C64.7347 46.5593 64.9711 46.6999 65.1404 46.9543C65.2529 47.1223 65.3018 47.3473 65.3212 47.597H63.3782ZM66.0878 47.0272C66.0195 46.7695 65.8501 46.509 65.739 46.3898C65.5635 46.201 65.3922 46.0692 65.2221 45.9955C64.9998 45.9004 64.7333 45.8375 64.4415 45.8375C64.1014 45.8375 63.7927 45.8944 63.5423 46.0122C63.2913 46.1301 63.0804 46.2908 62.915 46.491C62.7496 46.6905 62.6251 46.9281 62.546 47.198C62.4664 47.4665 62.4262 47.759 62.4262 48.0676C62.4262 48.3817 62.4677 48.6743 62.5501 48.9373C62.6331 49.2025 62.7656 49.4361 62.9451 49.6296C63.1238 49.8245 63.3542 49.9771 63.63 50.0835C63.9039 50.1893 64.2366 50.2442 64.6189 50.2435C65.4056 50.2408 65.82 50.0654 65.9907 49.971C66.0209 49.9543 66.0497 49.9249 66.0134 49.8405L65.8354 49.3417C65.8086 49.2674 65.7329 49.2948 65.7329 49.2948C65.5381 49.3671 65.261 49.497 64.6148 49.4957C64.1924 49.495 63.879 49.3705 63.6828 49.1756C63.4813 48.9762 63.3829 48.6829 63.3655 48.2691L66.0897 48.2718C66.0897 48.2718 66.1614 48.2705 66.1688 48.2008C66.1715 48.1715 66.2626 47.6412 66.0878 47.0272ZM41.5609 47.597C41.5997 47.3379 41.6707 47.1223 41.7812 46.9543C41.9478 46.6992 42.2023 46.5593 42.5598 46.5593C42.9173 46.5593 43.1537 46.6999 43.3237 46.9543C43.4355 47.1223 43.4843 47.3473 43.5038 47.597H41.5609ZM44.2697 47.0272C44.2014 46.7695 44.0327 46.509 43.9216 46.3898C43.7462 46.201 43.5748 46.0692 43.4047 45.9955C43.1824 45.9004 42.916 45.8375 42.6241 45.8375C42.2846 45.8375 41.9753 45.8944 41.7249 46.0122C41.4739 46.1301 41.263 46.2908 41.0976 46.491C40.9322 46.6905 40.8077 46.9281 40.7287 47.198C40.6497 47.4665 40.6089 47.759 40.6089 48.0676C40.6089 48.3817 40.6504 48.6743 40.7328 48.9373C40.8158 49.2025 40.9484 49.4361 41.1278 49.6296C41.3065 49.8245 41.5368 49.9771 41.8127 50.0835C42.0865 50.1893 42.4193 50.2442 42.8016 50.2435C43.5882 50.2408 44.0027 50.0654 44.1734 49.971C44.2036 49.9543 44.2323 49.9249 44.1962 49.8405L44.0188 49.3417C43.9913 49.2674 43.9157 49.2948 43.9157 49.2948C43.7209 49.3671 43.4443 49.497 42.7969 49.4957C42.3751 49.495 42.0618 49.3705 41.8656 49.1756C41.6641 48.9762 41.5657 48.6829 41.5482 48.2691L44.2725 48.2718C44.2725 48.2718 44.3441 48.2705 44.3515 48.2008C44.3541 48.1715 44.4451 47.6412 44.2697 47.0272ZM35.6724 49.3808C35.566 49.2957 35.5512 49.2743 35.5151 49.2194C35.4615 49.1357 35.4341 49.0166 35.4341 48.8653C35.4341 48.6256 35.5131 48.4535 35.6771 48.3377C35.6752 48.3384 35.9115 48.1335 36.4671 48.1408C36.8574 48.1462 37.2063 48.2038 37.2063 48.2038V49.4424H37.2069C37.2069 49.4424 36.8608 49.5167 36.4711 49.5401C35.9168 49.5736 35.6704 49.3801 35.6724 49.3808ZM36.7563 47.4667C36.6459 47.4586 36.5026 47.4539 36.3312 47.4539C36.0975 47.4539 35.8719 47.4834 35.6603 47.5403C35.4474 47.5972 35.256 47.6863 35.0913 47.804C34.9268 47.9214 34.7916 48.0751 34.6962 48.2533C34.5998 48.4327 34.551 48.6443 34.551 48.8813C34.551 49.1223 34.5925 49.3319 34.6755 49.5033C34.7585 49.6754 34.8784 49.8186 35.031 49.9291C35.1823 50.0396 35.3691 50.1206 35.586 50.1695C35.7996 50.2183 36.0419 50.2431 36.3071 50.2431C36.5863 50.2431 36.8648 50.2204 37.1346 50.1741C37.4017 50.1286 37.7298 50.0623 37.8208 50.0416C37.8847 50.0262 37.9483 50.0099 38.0116 49.9927C38.0793 49.976 38.0739 49.9036 38.0739 49.9036L38.0726 47.4124C38.0726 46.866 37.9266 46.461 37.6394 46.2099C37.3535 45.9595 36.9324 45.8329 36.3881 45.8329C36.1839 45.8329 35.8552 45.8611 35.6583 45.9006C35.6583 45.9006 35.0631 46.0158 34.818 46.2072C34.818 46.2072 34.7645 46.2407 34.794 46.3157L34.9868 46.834C35.0109 46.9009 35.0759 46.8781 35.0759 46.8781C35.0759 46.8781 35.0966 46.8701 35.1207 46.856C35.645 46.5708 36.3078 46.5795 36.3078 46.5795C36.6024 46.5795 36.8287 46.6384 36.9813 46.7556C37.1299 46.8694 37.2056 47.0414 37.2056 47.4043V47.5195C36.9713 47.486 36.7563 47.4667 36.7563 47.4667ZM58.7287 46.063C58.7494 46.0013 58.7059 45.9719 58.6878 45.9652C58.6416 45.9471 58.41 45.8982 58.2312 45.8869C57.8891 45.8661 57.699 45.9237 57.5289 46C57.3602 46.0763 57.1727 46.1995 57.0682 46.3394V46.008C57.0682 45.9618 57.0355 45.925 56.9899 45.925H56.2916C56.2461 45.925 56.2133 45.9618 56.2133 46.008V50.0713C56.2133 50.1169 56.2508 50.1544 56.2963 50.1544H57.012C57.0339 50.1542 57.0549 50.1454 57.0704 50.1299C57.0858 50.1143 57.0944 50.0932 57.0944 50.0713V48.0414C57.0944 47.7689 57.1245 47.4971 57.1848 47.3264C57.2437 47.1576 57.324 47.0224 57.4231 46.9253C57.5229 46.8289 57.636 46.7613 57.7599 46.7231C57.8864 46.6843 58.0263 46.6716 58.1254 46.6716C58.268 46.6716 58.4247 46.7083 58.4247 46.7083C58.4769 46.7144 58.5064 46.6822 58.5237 46.6347C58.5706 46.5102 58.7032 46.1372 58.7287 46.063Z" fill="white"/>
<path d="M52.0106 44.1798C51.9235 44.153 51.8446 44.1349 51.7414 44.1155C51.6369 44.0968 51.5124 44.0874 51.3712 44.0874C50.8784 44.0874 50.4901 44.2267 50.2176 44.5011C49.9464 44.7743 49.7623 45.1901 49.6699 45.7371L49.6364 45.9212H49.0178C49.0178 45.9212 48.9428 45.9185 48.9267 46.0002L48.8257 46.5673C48.8183 46.6209 48.8418 46.655 48.914 46.655H49.516L48.9053 50.0642C48.8578 50.3387 48.8029 50.5643 48.7419 50.7357C48.6823 50.9044 48.6241 51.0309 48.5518 51.1233C48.4822 51.2117 48.4166 51.2773 48.3027 51.3155C48.209 51.3469 48.1005 51.3617 47.982 51.3617C47.9164 51.3617 47.8288 51.3509 47.7638 51.3375C47.6995 51.3248 47.6654 51.3108 47.6165 51.29C47.6165 51.29 47.5462 51.2633 47.5181 51.3335C47.4959 51.3918 47.3353 51.8329 47.3159 51.8872C47.2971 51.9414 47.3239 51.9836 47.358 51.9963C47.4384 52.0245 47.4979 52.0432 47.6071 52.0693C47.7584 52.1048 47.8862 52.1068 48.0061 52.1068C48.2565 52.1068 48.4854 52.0713 48.6749 52.0031C48.8651 51.9341 49.0311 51.8142 49.1784 51.6522C49.3371 51.4768 49.4368 51.2934 49.532 51.0423C49.6263 50.7946 49.7074 50.4866 49.7716 50.1278L50.3856 46.655H51.2827C51.2827 46.655 51.3583 46.6577 51.3738 46.5753L51.4755 46.0089C51.4822 45.9547 51.4595 45.9212 51.3865 45.9212H50.5154C50.5201 45.9019 50.5596 45.5952 50.6594 45.3067C50.7022 45.1842 50.7826 45.0844 50.8502 45.0161C50.9172 44.9491 50.9942 44.9016 51.0786 44.8741C51.1649 44.846 51.2634 44.8326 51.3712 44.8326C51.4528 44.8326 51.5338 44.842 51.5947 44.8547C51.6791 44.8728 51.7119 44.8822 51.734 44.8889C51.8231 44.9157 51.8351 44.8896 51.8526 44.8467L52.0608 44.275C52.0822 44.2133 52.0293 44.1871 52.0106 44.1798ZM39.8405 50.0716C39.8405 50.1171 39.8077 50.1539 39.7621 50.1539H39.0397C38.9942 50.1539 38.962 50.1171 38.962 50.0716V44.2575C38.962 44.212 38.9942 44.1751 39.0397 44.1751H39.7621C39.8077 44.1751 39.8405 44.212 39.8405 44.2575V50.0716Z" fill="white"/>
</g>
<defs>
<filter id="filter0_d_159_277" x="0" y="0" width="95.6373" height="105" filterUnits="userSpaceOnUse" color-interpolation-filters="sRGB">
<feFlood flood-opacity="0" result="BackgroundImageFix"/>
<feColorMatrix in="SourceAlpha" type="matrix" values="0 0 0 0 0 0 0 0 0 0 0 0 0 0 0 0 0 0 127 0" result="hardAlpha"/>
<feOffset dy="4"/>
<feGaussianBlur stdDeviation="5"/>
<feComposite in2="hardAlpha" operator="out"/>
<feColorMatrix type="matrix" values="0 0 0 0 0 0 0 0 0 0 0 0 0 0 0 0 0 0 0.15 0"/>
<feBlend mode="normal" in2="BackgroundImageFix" result="effect1_dropShadow_159_277"/>
<feBlend mode="normal" in="SourceGraphic" in2="effect1_dropShadow_159_277" result="shape"/>
</filter>
<clipPath id="clip0_159_277">
<rect width="47" height="32.9" fill="white" transform="translate(24 32.6001)"/>
</clipPath>
</defs>
</svg>
